<?xml version="1.0" encoding="UTF-8" standalone="no"?>
<svg
   version="1.1"
   viewBox="203.97 196.06 1025.18 1022.01"
   id="svg18"
   sodipodi:docname="bookstack-cropped.svg"
   inkscape:version="1.3.2 (091e20e, 2023-11-25, custom)"
   xmlns:inkscape="http://www.inkscape.org/namespaces/inkscape"
   xmlns:sodipodi="http://sodipodi.sourceforge.net/DTD/sodipodi-0.dtd"
   xmlns="http://www.w3.org/2000/svg"
   xmlns:svg="http://www.w3.org/2000/svg">
  <defs
     id="defs18" />
  <sodipodi:namedview
     id="namedview18"
     pagecolor="#ffffff"
     bordercolor="#000000"
     borderopacity="0.25"
     inkscape:showpageshadow="2"
     inkscape:pageopacity="0.0"
     inkscape:pagecheckerboard="0"
     inkscape:deskcolor="#d1d1d1"
     inkscape:zoom="1.3042925"
     inkscape:cx="112.70478"
     inkscape:cy="455.03596"
     inkscape:window-width="3840"
     inkscape:window-height="1529"
     inkscape:window-x="1432"
     inkscape:window-y="355"
     inkscape:window-maximized="1"
     inkscape:current-layer="svg18" />
  <g
     stroke-width="2"
     fill="none"
     stroke-linecap="butt"
     id="g3"
     transform="matrix(0.99027771,0,0,0.96999261,7.4043975,19.202912)">
    <path
       stroke="#ffe9c6"
       vector-effect="non-scaling-stroke"
       d="m 211.05,540.45 q 1.59,-2.57 0.74,-4.97 -0.79,-2.26 -0.8,-2.3 -2.16,-9.34 -3.55,-18.91 -0.57,-3.92 0.28,-7.88 c 0.25,-1.17 0.16,-2.34 0.13,-3.53 q -0.01,-0.5 0.28,-0.91 0.5,-0.7 0.47,-1.56 -0.01,-0.48 0.34,-0.82 L 219.3,489.4 q 0.35,-0.34 0.58,-0.77 0.45,-0.86 1.32,-1.33 1.03,-0.56 1.88,-1.44 3.64,-3.8 8.19,-6.94 0.11,-0.08 0.11,0.05 -0.01,0.06 0.02,0.11 0.1,0.2 0.32,0.11 6.67,-2.93 11.48,-8.24 0.37,-0.4 0.38,-0.94 0.02,-0.9 0.59,-1.61 0.69,-0.87 1.08,-1.94 1.01,-2.71 1.52,-5.38 0.44,-2.32 -0.22,-4.55 -0.49,-1.67 -1.78,-2.7 -2.07,-1.64 -3.94,-3.68 -0.62,-0.67 -0.89,-1.41 -0.39,-1.1 -1.11,-1.76 -0.44,-0.4 -0.45,-0.99 -0.01,-0.51 -0.27,-0.97 -0.29,-0.51 -0.12,-1.07 0.6,-2.01 1.56,-3.65 0.8,-1.36 2.41,-1.17 0.59,0.07 1.1,-0.23 l 4.21,-2.55 a 0.95,0.94 78.1 0 0 0.46,-0.72 q 0.11,-1.02 -0.5,-1.76"
       id="path1" />
    <path
       stroke="#ffe9c6"
       vector-effect="non-scaling-stroke"
       d="m 1214.19,411.05 c -0.85,-1.27 -2.35,-2.05 -3.52,-3.03 q -2.93,-2.47 -6.86,-3.62 -2.32,-0.69 -4.51,-1.02 -5.23,-0.81 -11.26,-0.27 -3.68,0.32 -7.18,1.76 -3.81,1.56 -7.7,2.77 -1.24,0.39 -2.66,1.17 -1.27,0.7 -2.71,1.17 -2.44,0.78 -3.98,1.7 -1.94,1.16 -4.07,2.2 -15.72,7.73 -31.5,15.5 -2.3,1.14 -4.19,2.31 -1.78,1.12 -3.7,1.82 -1.91,0.7 -3.64,1.85 -0.41,0.28 -0.9,0.32 -0.35,0.04 -0.67,0.21 -11.58,6.25 -21.84,11.01 -9.15,4.24 -17.93,8.91 -10.84,5.78 -18.82,9.53 -5.48,2.57 -10.5,5.17 -3.2,1.65 -6.48,3.37 -5.65,2.98 -11.51,5.68 -5.91,2.73 -11.47,5.71 -8.69,4.66 -18.74,9.35 -5.44,2.53 -8.27,4.06 -9.13,4.93 -18.2,9.25 -10.04,4.78 -17.86,8.96 -7.4,3.96 -14.75,7.46 -7.51,3.59 -14.87,7.36 -8.07,4.14 -16.65,8.21 -11.2,5.33 -21.23,10.83 -3.42,1.88 -7.03,3.53 -3.95,1.81 -7.2,3.44 -10.28,5.14 -20.6,10.32 a 49.33,8.44 -27.6 0 1 -6.19,3.03 q -5.03,2.4 -10.8,5.59 c -1.6,0.89 -3.25,1.27 -4.88,2.25 q -3.08,1.86 -6.62,3.51 -8.08,3.76 -16.17,8.09 -5.7,3.06 -11.59,5.87 -6.07,2.9 -11.68,5.66 -1.37,0.67 -2.47,1.49 -1.2,0.9 -2.46,1.47 -2.92,1.31 -5.72,2.84 -9.26,5.05 -18.41,9.55 -1.42,0.7 -2.75,1.48 -1.28,0.76 -2.91,1.33 -4.82,1.7 -9.53,3.71 -1.81,0.77 -3.91,0.85 -1.83,0.06 -3.69,0.34 -3.17,0.46 -6.27,0.84 -3.09,0.38 -6.31,0.11 -7.47,-0.6 -14.59,-2.41 -2.05,-0.52 -4.15,-0.84 -2.41,-0.36 -4.42,-1.09 -17.53,-6.38 -35.15,-13.55 -3.32,-1.35 -6.43,-2.15 -1.4,-0.36 -2.64,-1.01 -1.29,-0.69 -2.68,-1.08 -1.98,-0.56 -3.96,-1.47 -5.03,-2.32 -10.22,-3.79 -1.89,-0.54 -3.57,-1.41 -1.74,-0.91 -3.55,-1.39 -4.32,-1.13 -8.33,-3.27 c -1.65,-0.87 -3.21,-1.13 -4.98,-1.56 q -1.9,-0.46 -3.67,-1.33 -3.72,-1.85 -7.9,-3.04 -2.84,-0.82 -5.45,-2.01 -2.5,-1.15 -5.31,-2.04 -4.04,-1.28 -7.97,-2.75 -7.94,-2.96 -16.09,-6.04 c -1.78,-0.67 -3.23,-1.62 -5.1,-2.12 -3.31,-0.89 -6.34,-2.59 -9.63,-3.51 q -4.73,-1.32 -8.91,-3.13 -2.6,-1.13 -5.33,-1.87 -2.78,-0.76 -5.7,-1.88 -2.86,-1.1 -5.8,-2.12 -2.92,-1.01 -5.74,-2.29 -2.15,-0.97 -4.25,-1.58 -2.14,-0.62 -4.23,-1.42 -4,-1.54 -8.31,-3.39 -4.04,-1.74 -8.37,-3.24 -5.07,-1.77 -8.41,-3.37 -3.32,-1.6 -6.14,-1.91 -0.48,-0.05 -0.79,-0.42 -0.32,-0.36 -0.77,-0.56 -3.71,-1.67 -7.63,-2.31 c -1.27,-0.21 -2.04,-1.01 -3.39,-1.08 q -0.95,-0.04 -1.91,-0.29 -3.01,-0.78 -6.32,-0.58 -2.62,0.16 -4.91,2.04 -2.61,2.16 -4.46,4.4 -1.3,1.58 -1.99,3.36 -0.8,2.06 -1.65,3.96 -0.21,0.46 -0.14,0.97 0.09,0.6 -0.08,1.16 -0.99,3.34 -0.63,6.87 0.48,4.6 -0.15,8.9 -0.9,6.16 0.29,13.9 0.51,3.29 0.19,5.58 -1.11,8.01 -0.72,16.8 0.21,4.92 -0.11,9.25 c -0.08,1.02 0.28,1.75 0.2,2.77 q -0.04,0.51 0.13,1 0.94,2.71 0.34,5.31 -0.14,0.62 0.27,1.11 0.25,0.31 0.26,0.7 l 0.33,10.32 q 0.02,0.59 0.38,1.07 1.74,2.33 4.29,3.35 7.65,3.07 15.93,5.21 0.47,0.13 0.79,0.49 0.34,0.38 0.84,0.5 c 2.67,0.61 4.89,1.92 7.48,2.72 q 3.82,1.17 7.62,2.2 3.12,0.85 6.49,2.22 3.16,1.28 6.44,2.37 2.43,0.81 4.6,1.88 2.26,1.11 4.8,1.6 c 0.79,0.15 1.5,1.05 2.31,1.33 q 16.8,5.64 31.59,10.96 1.53,0.55 2.93,1.26 1.62,0.82 3.18,1.14 2.67,0.54 5.01,1.38 11.79,4.22 23.66,8.4 1.85,0.66 3.65,1.52 1.89,0.9 3.93,1.52 2.9,0.87 5.84,2.05 3.99,1.59 8.14,2.77 c 2.57,0.74 5,1.79 7.42,2.87 q 0.51,0.22 1.05,0.13 c 1.31,-0.22 1.59,0.62 2.61,0.94 q 3.09,0.97 6.11,2.45 1.49,0.73 3.1,1.19 1.67,0.47 3.25,1.28 2.32,1.21 4.65,1.9 9.84,2.93 20.23,7.05 1.24,0.49 2.44,0.73 c 2.29,0.47 4.08,0.68 6.33,1.66 q 11.95,5.25 22.15,8.61 8.52,2.8 15.29,3.64 9.6,1.19 20.87,-0.89 c 0.87,-0.16 1.19,-0.64 2.21,-0.56 q 0.51,0.04 0.96,-0.23 2.76,-1.64 7.46,-2.9 2.6,-0.7 5.56,-3.05 0.39,-0.32 0.89,-0.36 0.47,-0.04 0.77,-0.4 0.27,-0.32 0.62,-0.55 3.87,-2.46 7.49,-3.84 1.57,-0.6 2.92,-1.45 1.41,-0.89 3.04,-1.63 2.37,-1.07 4.43,-2.53 1.38,-0.98 2.67,-1.39 1.55,-0.5 2.97,-1.26 0.9,-0.49 1.9,-0.81 0.91,-0.3 1.68,-1.15 0.41,-0.45 0.99,-0.66 1.19,-0.43 2.38,-0.84 1.16,-0.39 2.1,-1.1 2.52,-1.89 5.34,-3.46 0.99,-0.55 2.18,-0.85 1.12,-0.29 2.14,-0.76 3.24,-1.51 6.18,-3.1 1.41,-0.77 2.84,-1.81 1.26,-0.93 2.72,-1.22 4.03,-0.82 7.58,-3.6 1.17,-0.92 2.71,-1.25 2.18,-0.48 3.73,-1.91 2.13,-1.97 5.36,-2.29 0.53,-0.05 0.97,-0.33 1.81,-1.17 3.86,-1.99 0.47,-0.19 0.67,-0.68 0.21,-0.51 0.76,-0.58 2.78,-0.34 5.47,-2.15 2.06,-1.39 4.43,-2.3 2.49,-0.95 4.75,-2.56 1.15,-0.82 2.49,-1.36 1.32,-0.53 2.61,-1.12 0.09,-0.04 3.72,-1.25 2.82,-0.94 4.88,-3 c 0.49,-0.49 0.92,-0.53 1.58,-0.51 a 2,1.98 -57.5 0 0 0.93,-0.21 q 3.16,-1.63 6.16,-3.54 1.41,-0.91 3.24,-1.61 1.5,-0.57 3.23,-1.51 1.65,-0.9 4.26,-1.64 2.77,-0.79 4.72,-2.63 0.86,-0.81 3.59,-1.58 1.96,-0.56 5.45,-3.22 1.79,-1.37 3.41,-1.98 1.85,-0.7 3.76,-1.39 0.71,-0.25 1.2,-0.71 0.6,-0.55 1.35,-0.75 c 1.87,-0.49 3.28,-1.82 5.15,-2.39 q 3.11,-0.95 5.43,-2.57 1.58,-1.1 3.3,-2.08 1.7,-0.96 3.47,-1.77 3.06,-1.39 5.73,-3.15 0.41,-0.27 0.91,-0.28 c 1.7,-0.03 4.55,-1.89 5.88,-2.87 q 1.69,-1.25 3.79,-2.04 3.26,-1.24 6.24,-2.96 0.48,-0.27 1.03,-0.36 1.9,-0.31 3.07,-1.65 c 1.42,-1.61 4.33,-2.98 6.2,-3.57 q 1.65,-0.52 3.2,-1.46 c 2.06,-1.25 4.24,-1.84 6.29,-2.97 q 1.12,-0.62 2.32,-1.14 0.46,-0.2 0.72,-0.62 0.53,-0.84 1.54,-0.81 0.45,0.02 0.79,-0.28 0.16,-0.13 0.27,-0.31 0.29,-0.43 0.77,-0.66 10.68,-5.18 21.61,-10.82 1.6,-0.83 3.14,-1.81 1.6,-1.02 3.4,-1.72 0.57,-0.22 0.99,-0.69 0.33,-0.37 0.8,-0.49 1.46,-0.39 2.57,-1.43 0.35,-0.33 0.83,-0.3 0.73,0.06 1.32,-0.42 c 0.54,-0.44 1.2,-0.56 1.87,-0.63 q 0.76,-0.08 1.34,-0.44 6.03,-3.64 12.52,-6.92 0.45,-0.23 2.52,-0.85 1.32,-0.4 2.36,-1.38 0.36,-0.34 0.84,-0.46 1.41,-0.36 3.15,-1.38 2.47,-1.47 12.46,-5.91 0.46,-0.2 0.77,-0.59 0.69,-0.86 1.78,-0.83 0.49,0.02 0.86,-0.3 1.05,-0.88 1.73,-1.14 3.92,-1.52 7.53,-3.67 c 1.53,-0.91 3.11,-1.26 4.5,-2.33 q 0.55,-0.43 1.25,-0.68 0.71,-0.24 1.37,-0.73 0.94,-0.7 2.05,-1.12 1.32,-0.5 2.63,-1.05 0.45,-0.19 0.79,-0.52 0.35,-0.35 0.83,-0.44 0.65,-0.11 1.23,-0.39 2.32,-1.12 4.76,-2.35 0.68,-0.35 1.21,-0.91 0.33,-0.35 0.8,-0.37 0.8,-0.04 1.36,-0.72 0.32,-0.39 0.77,-0.61 1.8,-0.86 3.71,-1.44 1.87,-0.57 3.52,-1.69 1.5,-1 3.74,-1.65 1.78,-0.52 3.25,-1.58 1.6,-1.17 3.46,-1.9 1.61,-0.63 3.13,-1.55 c 1.25,-0.75 2.66,-1.63 4.07,-1.94 q 0.83,-0.18 1.91,-0.77 6.61,-3.63 13.25,-7.08 0.96,-0.5 1.97,-0.82 1.22,-0.38 1.98,-0.82 4.56,-2.67 9.33,-4.43 c 0.84,-0.3 1.49,-1.13 2.37,-1.51 q 6.5,-2.84 13.55,-6.48 0.79,-0.41 2.15,-0.73 1.21,-0.27 2.32,-0.85 0.33,-0.17 0.7,-0.15 0.44,0.02 0.63,-0.38 0.22,-0.48 0.73,-0.6 1.45,-0.36 2.32,-1.58 0.26,-0.37 0.71,-0.43 0.45,-0.05 0.85,-0.26 0.46,-0.24 0.8,-0.64 0.54,-0.65 1.38,-0.59 0.11,0.01 0.09,-0.1 -0.05,-0.21 0.24,-0.44 0.23,-0.18 0.52,-0.24 3.47,-0.66 6.73,-3.02 1.75,-1.27 4.1,-1.78 0.52,-0.12 0.91,-0.48 2.36,-2.23 5.69,-3.21 c 1.74,-0.51 3.07,-1.42 4.49,-2.48 q 1.39,-1.02 3.1,-1.32 2.01,-0.34 3.8,-1.73 1.57,-1.23 3.74,-2.15 2.41,-1.03 4.8,-2.48 1.87,-1.14 3.78,-1.6 2.32,-0.55 4.41,-2.06 2,-1.45 4.17,-2.29 3.09,-1.21 5.76,-2.95 0.86,-0.56 1.91,-0.85 1.04,-0.28 1.91,-0.85 4.04,-2.64 8.23,-5.25 3.5,-2.19 6.22,-5.04 3.14,-3.28 5.2,-6.73 7.49,-12.5 6.9,-28.67 -0.08,-2.25 -0.9,-3.89 -0.21,-0.43 -0.2,-0.9 c 0.02,-1.11 0.05,-2.86 -0.58,-3.83 -0.57,-0.88 -0.43,-1.85 -0.89,-2.86 q -1.4,-3.01 -2.91,-5.5 -0.27,-0.44 -0.71,-0.7 -0.43,-0.25 -0.61,-0.7 -0.26,-0.68 -0.7,-1.24 -1.24,-1.59 -2.57,-2.96 -0.66,-0.69 -1.23,-1.53"
       id="path2" />
    <path
       stroke="#ffe9c6"
       vector-effect="non-scaling-stroke"
       d="m 575.71,616.11 q -1.12,0.52 -2.39,0.63 -0.54,0.05 -0.07,0.31 0.34,0.18 0.66,0.05 0.44,-0.17 0.46,0.3 0.12,2.16 2.11,2.17 5.14,0.01 8.12,-3.52 1.86,-2.21 1.78,-5.44 0,-0.08 0.05,-0.14 0.09,-0.1 0.17,-0.19 0.22,-0.26 0.25,-0.59 0.55,-5.41 -2.38,-9.47 c -2.11,-2.92 -5.98,-4.6 -9.33,-5.87 -6.65,-2.53 -13.3,-5.35 -19.97,-7.54 q -11.85,-3.88 -21.91,-7.53 -2.08,-0.75 -3.5,-1.15 -1.78,-0.51 -3.51,-1.15 -19.85,-7.36 -39.68,-14.72 -0.99,-0.37 -2,-0.65 -1.3,-0.36 -2.41,-1.09 -0.45,-0.29 -0.99,-0.34 c -1.94,-0.18 -3.31,-1.3 -5.23,-1.71 q -2.68,-0.58 -5.32,-1.3 -4.93,-1.34 -8.34,2.28 -1.01,1.07 -2.09,1.8 -0.38,0.26 -0.52,0.7 -0.5,1.45 -1.21,2.84 -0.62,1.21 -0.72,2.54 -0.16,1.93 -0.36,3.8 a 1.21,1.19 36.4 0 0 0.11,0.69 l 1.48,3.07 a 2.57,2.45 7.7 0 0 0.72,0.9 q 2.75,2.18 2.79,-0.56"
       id="path3" />
  </g>
  <path
     fill="#00dc94"
     d="m 595.31247,228.03262 q -21.20185,9.98123 -27.16332,12.57111 -21.20184,9.21493 -40.83905,18.67236 -7.42708,3.57927 -13.40836,6.22735 c -6.13972,2.71598 -12.05168,5.88785 -18.06267,8.47773 q -17.63684,7.57565 -29.91629,13.5217 c -6.19914,2.99728 -12.58643,5.65506 -18.68654,8.60383 -12.46759,6.03336 -25.21247,11.46532 -37.74938,17.45987 -10.91286,5.21856 -21.90495,9.93273 -32.59995,14.86029 -7.62513,3.51137 -15.12154,6.75115 -22.92493,10.30132 q -11.34858,5.16036 -23.09327,9.76783 a 0.65964887,0.6832358 87.685661 0 1 -0.92096,-0.7372 q 0.93086,-4.73356 1.19824,-9.13733 0.26737,-4.26797 1.4359,-8.58443 c 3.14908,-11.66901 9.05114,-22.05764 18.48848,-29.75938 q 3.93141,-3.21067 13.07167,-7.68234 c 10.13054,-4.94696 20.37991,-10.09762 30.90657,-14.54989 9.60569,-4.06427 19.09255,-9.06943 28.68834,-13.2792 5.91196,-2.58988 11.7447,-5.16036 17.62695,-8.01214 q 8.67483,-4.20976 16.39899,-7.63384 c 8.77387,-3.88967 17.52792,-8.75903 26.79692,-12.6293 q 10.60587,-4.43287 22.22183,-10.27222 4.06014,-2.03699 8.88279,-4.15157 c 6.21895,-2.72568 12.04178,-5.70356 18.63703,-7.77934 q 5.60497,-1.76539 10.28898,-2.50258 3.70364,-0.5723 7.51621,-1.07669 3.70364,-0.4947 7.39738,-0.4171 5.25837,0.1261 10.11073,-0.6596 3.78286,-0.61109 8.83328,0.2813 c 2.58462,0.4559 4.91178,0.3783 7.4766,0.3589 2.90151,-0.0194 5.55545,0.94089 8.47677,0.99909 q 1.80231,0.0388 3.60461,0.4268 9.19968,2.01758 18.58752,4.55896 1.94094,0.5238 0.17825,1.47439 -5.25838,2.82268 -10.64549,5.28646 -5.38711,2.46378 -10.81383,5.01486 z"
     id="path4"
     style="stroke-width:0.980083" />
  <path
     fill="#00dc94"
     d="m 332.52247,417.23938 c 11.25946,-5.51926 23.70725,-10.59232 33.99624,-15.69448 q 24.12316,-11.94061 48.4939,-23.02762 c 7.63504,-3.47258 15.11163,-7.09065 22.32086,-10.44682 q 8.9422,-4.15157 17.8349,-8.37104 c 11.29907,-5.36406 23.43987,-10.74752 35.26379,-16.24738 31.35219,-14.56928 62.09041,-28.39168 93.26435,-42.99007 10.15035,-4.76266 20.02342,-9.08883 30.14406,-13.80299 q 10.18995,-4.75297 17.98344,-8.12854 c 9.45715,-4.10307 18.57761,-8.80753 27.98525,-13.0173 q 11.0713,-4.95666 21.96436,-9.78723 c 5.7337,-2.54138 11.63576,-5.73265 17.62694,-8.22553 q 3.47587,-1.45499 6.86262,-3.13308 c 11.93285,-5.90726 24.14298,-10.79602 35.84806,-16.51898 q 12.42798,-6.08185 24.58859,-10.67961 6.88243,-2.59958 16.46832,-4.60747 7.13,-1.50349 14.79475,-1.37739 8.89269,0.1358 17.50811,0 6.17933,-0.0873 13.33904,1.31919 9.93249,1.95939 14.26,3.44348 52.36589,17.95456 98.43361,33.52294 16.03259,5.41256 28.05456,9.67083 9.04124,3.20097 18.56771,6.37285 26.15327,8.71053 54.57427,18.28436 c 12.22,4.11277 24.5588,8.85603 36.4323,12.7263 q 38.9476,12.69721 76.6178,26.2965 c 14.6264,5.27676 28.4011,9.45743 42.78,13.8806 a 0.59586249,0.60967854 68.300662 0 1 0.1386,1.07669 q -2.7233,1.65868 -5.8228,3.25917 -19.2213,9.87453 -39.017,18.59476 -3.159,1.38709 -9.774,4.52017 c -4.3473,2.05638 -8.8432,3.87027 -13.0816,5.94605 q -21.4593,10.46622 -43.4336,21.05854 -3.9611,1.91089 -8.5758,4.08367 -21.0236,9.91332 -39.4526,19.03126 c -3.0798,1.52288 -6.7042,2.89057 -9.9424,4.48136 q -28.9558,14.21039 -57.9709,28.32379 c -9.30862,4.52986 -19.01334,8.82693 -28.1536,13.32769 -15.82464,7.79874 -32.03548,15.86908 -48.63254,23.60962 q -17.04268,7.95394 -32.38208,15.55869 -8.556,4.24856 -17.77548,8.58443 -20.98399,9.87452 -41.0074,19.69085 -8.51639,4.17097 -17.8052,8.52624 -15.64639,7.32344 -31.09472,15.03488 -4.01062,1.99819 -8.04105,3.59867 c -7.30825,2.90028 -14.76504,5.77146 -22.39018,6.29526 -4.278,0.29099 -10.22957,0.54319 -14.76504,-0.2813 -2.28754,-0.4171 -4.72363,-0.6402 -6.92204,-1.27069 -26.24236,-7.56595 -51.3459,-18.44926 -76.88517,-27.70299 -8.85308,-3.21068 -17.70616,-6.82875 -26.79691,-9.99093 -13.24001,-4.61716 -25.91557,-9.69022 -39.13578,-14.31709 -14.38873,-5.03426 -28.48038,-10.71842 -42.92854,-15.80118 -7.97173,-2.80327 -15.84444,-6.16915 -23.88549,-8.93363 q -18.96382,-6.52805 -36.42242,-13.1628 c -13.00234,-4.94696 -26.30177,-9.59322 -39.52198,-14.55959 q -4.72363,-1.77508 -20.20167,-6.92574 c -10.95247,-3.64718 -23.36065,-8.71054 -34.92709,-12.66811 q -5.21877,-1.78478 -10.23947,-3.51137 c -9.21949,-3.18158 -18.48849,-6.85785 -27.68817,-9.77753 q -1.96075,-0.62079 -0.0792,-1.44529 c 2.8619,-1.26099 5.83273,-2.35708 8.60551,-3.71507 z m 261.58186,-66.35719 c -6.13972,-4.67537 -13.62622,-7.42045 -21.3999,-7.63384 q -5.60497,-0.1552 -12.25964,-0.1358 c -9.96219,0.0388 -22.90512,3.38527 -27.35147,12.8136 -1.46561,3.10398 -0.31689,6.46015 1.47551,9.06943 q 5.22867,7.57564 15.13145,9.98122 8.80357,2.13399 15.09183,2.22129 4.33742,0.0582 9.07094,-0.7954 c 7.34786,-1.31919 12.834,-2.87117 19.18168,-7.13914 q 3.06986,-2.06609 3.95121,-4.88876 c 1.29727,-4.13217 1.01999,-10.51472 -2.89161,-13.4926 z m 328.95045,55.10528 q 5.19896,0.62079 10.11074,0.0485 4.53547,-0.5238 8.67483,-0.98939 16.7753,-1.85269 31.3918,-8.50684 13.55691,-6.17885 17.06249,-20.28255 0.48523,-1.96908 -0.20796,-3.96727 c -2.33705,-6.70264 -6.10011,-12.445 -12.58643,-16.11157 q -8.09057,-4.55897 -14.30951,-6.53775 -7.59543,-2.41528 -14.9532,-3.34648 -2.37666,-0.31039 -4.85236,-0.71779 c -4.38693,-0.7372 -8.9125,-0.4171 -13.33904,-0.7566 -4.2978,-0.32979 -8.54609,0.291 -12.8637,0.3201 -4.6048,0.0388 -9.42745,0.94089 -14.03224,1.77509 q -10.3385,1.86238 -20.60768,6.90635 -6.00108,2.95847 -9.96219,5.95575 c -3.53529,2.66748 -8.1797,10.45652 -7.55582,15.88848 0.81203,6.97425 4.39683,12.31891 10.11073,16.25708 q 3.73335,2.58018 5.97138,3.66657 16.01279,7.79874 34.46166,9.50592 0.10893,0.0194 7.4865,0.8924 z"
     id="path5"
     style="stroke-width:0.980083" />
  <path
     fill="#fef4d2"
     d="m 839.27729,571.9144 q 33.8873,-16.83907 68.23013,-33.59084 40.57168,-19.78785 78.47951,-38.49901 7.16961,-3.53077 14.57687,-7.00334 c 6.5161,-3.05548 12.9529,-6.56685 19.3501,-9.57383 q 9.7542,-4.58807 19.3896,-9.40893 c 11.6556,-5.83935 23.1626,-11.09671 34.6498,-17.09127 q 8.2094,-4.27767 16.9437,-8.26434 c 9.576,-4.37466 19.0133,-9.38952 28.7972,-13.90969 q 5.9219,-2.73538 11.6556,-5.69386 c 10.3385,-5.36406 21.796,-10.46622 32.6297,-15.69448 q 6.7041,-3.23977 15.6265,-6.00425 c 2.4559,-0.7566 4.8227,-0.88269 7.2687,-1.43559 q 2.3866,-0.5432 5.0207,-0.0776 2.8817,0.4947 5.8327,1.06699 c 5.8922,1.14459 12.3191,4.83057 16.3198,9.52533 9.6453,11.31011 12.7647,26.7912 9.0016,40.94339 q -5.5257,20.75784 -26.678,31.13676 -45.4637,22.29043 -91.8879,44.89126 c -2.852,1.38709 -5.7733,2.47348 -8.6253,3.85087 q -36.0065,17.48897 -72.5775,35.66663 c -3.9809,1.97878 -7.5954,3.95757 -11.9526,5.88785 q -4.9316,2.17279 -9.9028,4.87907 c -9.88301,5.39316 -20.96422,10.08792 -31.09476,15.37438 q -8.31833,4.35527 -15.93357,7.73084 -6.7834,3.01668 -11.47732,5.58716 -3.59471,1.95938 -7.28844,3.78297 -80.73734,39.5757 -161.60342,79.1999 c -16.92385,8.29343 -34.48147,17.56656 -50.55368,25.1325 -3.87198,1.82359 -7.88261,3.40468 -12.21012,4.13217 q -14.6264,2.48318 -29.46076,-2.18248 -12.4676,-3.91877 -24.955,-8.64263 c -14.39864,-5.44166 -29.18349,-10.49532 -43.67125,-15.71388 q -59.94151,-21.59204 -138.64878,-48.88763 -12.43789,-4.31647 -24.46977,-8.82694 a 1.5943471,1.5616881 0 0 1 -1.01998,-1.59078 c 0.33669,-3.77327 -0.95067,-7.15855 -0.95067,-10.92212 q -0.01,-18.90516 -0.01,-38.41171 c 0,-2.78388 -0.84174,-5.31556 -0.90115,-8.09944 -0.099,-5.14096 0.41591,-10.82511 -0.67339,-15.84968 -0.82193,-3.84117 0.0792,-7.69204 0.84173,-11.46531 1.66367,-8.21584 8.12028,-15.32588 16.20095,-17.25617 q 2.90151,-0.68869 5.62477,-0.22309 c 6.01099,1.03789 11.09111,2.48318 17.27045,4.83056 q 31.33238,11.86301 66.16045,24.04612 c 13.81438,4.84026 27.66836,10.29162 41.58176,15.24828 17.71607,6.30495 35.37272,13.0852 52.96996,19.43865 q 24.22219,8.72993 45.32501,16.87787 7.04087,2.72568 16.65647,5.00516 c 3.72344,0.8827 7.4865,0.9118 11.26936,1.62959 2.88171,0.5432 5.91196,-0.61109 8.83328,-0.79539 q 5.46633,-0.3395 11.23965,-2.45408 c 6.62496,-2.42498 12.95283,-5.20886 19.18168,-8.62324 q 13.82428,-7.58534 28.41107,-14.58869 8.87288,-4.25826 17.74577,-8.71053 c 11.11092,-5.56776 22.30106,-10.82512 33.46149,-16.37348 z M 1209.7897,417.91838 c -0.8417,-1.23189 -2.3271,-1.98849 -3.4858,-2.93908 q -2.9015,-2.39588 -6.7933,-3.51137 -2.2974,-0.6693 -4.4661,-0.9894 -5.1792,-0.78569 -11.1505,-0.26189 -3.6443,0.31039 -7.1102,1.70718 -3.773,1.51319 -7.6252,2.68688 -1.2279,0.3783 -2.6341,1.13489 -1.2577,0.679 -2.6837,1.1349 -2.4162,0.75659 -3.9413,1.64898 -1.9211,1.12519 -4.0304,2.13399 -15.5672,7.49804 -31.1938,15.03488 -2.2776,1.10579 -4.1492,2.24068 -1.7627,1.0864 -3.664,1.76539 -1.8915,0.679 -3.6047,1.79449 -0.406,0.2716 -0.8912,0.3104 -0.3466,0.0388 -0.6635,0.20369 -11.4674,6.06246 -21.6277,10.67962 -9.061,4.11277 -17.7556,8.64264 -10.7346,5.60655 -18.6371,9.24403 -5.4267,2.49288 -10.3979,5.01486 -3.1689,1.60049 -6.417,3.26887 -5.595,2.89058 -11.3981,5.50956 -5.8525,2.64808 -11.3585,5.53866 -8.6055,4.52016 -18.55779,9.06943 -5.38711,2.45408 -8.18959,3.93817 -9.04124,4.78206 -18.02306,8.97243 -9.94239,4.63657 -17.68636,8.69114 -7.32805,3.84117 -14.60659,7.23614 -7.43699,3.48227 -14.72543,7.13915 -7.99154,4.01577 -16.48813,7.96364 -11.09111,5.17006 -21.02359,10.50502 -3.38675,1.82358 -6.96166,3.42407 -3.91159,1.75569 -7.13,3.33677 -10.18005,4.98577 -20.39972,10.01033 a 8.2225638,48.637556 62.912644 0 1 -6.12982,2.93908 q -4.98109,2.32798 -10.69499,5.42225 c -1.58445,0.8633 -3.21841,1.23189 -4.83256,2.18249 q -3.05006,1.80418 -6.55564,3.40467 -8.00144,3.64717 -16.01279,7.84724 -5.64458,2.96818 -11.47732,5.69386 -6.01098,2.81298 -11.56644,5.49016 -1.35668,0.64989 -2.44599,1.44529 -1.18833,0.87299 -2.43608,1.42588 -2.89161,1.2707 -5.66439,2.75478 -9.16997,4.89847 -18.23101,9.26343 -1.4062,0.679 -2.72327,1.43559 -1.26755,0.7372 -2.8817,1.29009 -4.77314,1.64899 -9.43735,3.59868 -1.7924,0.74689 -3.87199,0.82449 -1.8122,0.0582 -3.65412,0.3298 -3.13918,0.44619 -6.20904,0.81479 -3.05996,0.3686 -6.24865,0.1067 -7.39738,-0.582 -14.44816,-2.33768 -2.03007,-0.5044 -4.10965,-0.8148 -2.38657,-0.34919 -4.37703,-1.05729 -17.35956,-6.18855 -34.80826,-13.1434 -3.28772,-1.30949 -6.36748,-2.08548 -1.38639,-0.3492 -2.61434,-0.9797 -1.27746,-0.66929 -2.65394,-1.04759 -1.96075,-0.54319 -3.9215,-1.42589 -4.9811,-2.25038 -10.12064,-3.67627 -1.87162,-0.52379 -3.53529,-1.36769 -1.72308,-0.88269 -3.51549,-1.34829 -4.278,-1.09609 -8.24901,-3.17187 c -1.63396,-0.8439 -3.17879,-1.0961 -4.93158,-1.51319 q -1.88153,-0.4462 -3.63432,-1.29009 -3.68384,-1.79449 -7.8232,-2.94878 -2.81238,-0.79539 -5.39701,-1.94968 -2.47569,-1.1155 -5.25837,-1.97879 -4.00073,-1.24159 -7.89252,-2.66748 -7.8628,-2.87118 -15.93357,-5.85875 c -1.76269,-0.6499 -3.19859,-1.57139 -5.05041,-2.05639 -3.27782,-0.86329 -6.27836,-2.51228 -9.53638,-3.40467 q -4.68401,-1.28039 -8.82337,-3.03608 -2.57472,-1.09609 -5.27818,-1.81389 -2.75297,-0.73719 -5.64458,-1.82358 -2.8322,-1.06699 -5.74362,-2.05639 -2.89161,-0.97969 -5.68419,-2.22128 -2.1291,-0.94089 -4.20868,-1.53259 -2.11919,-0.60139 -4.18887,-1.37739 -3.96112,-1.49379 -8.22921,-3.28827 -4.00072,-1.68779 -8.28863,-3.14278 -5.0207,-1.71689 -8.32823,-3.26887 -3.28772,-1.55199 -6.08031,-1.85269 -0.47533,-0.0485 -0.78232,-0.4074 -0.31689,-0.34919 -0.76251,-0.54319 -3.67393,-1.61989 -7.55582,-2.24069 c -1.25765,-0.20369 -2.02017,-0.97969 -3.35704,-1.04759 q -0.94076,-0.0388 -1.89143,-0.2813 -2.98074,-0.75659 -6.25856,-0.56259 -2.59452,0.1552 -4.86226,1.97878 -2.58463,2.09519 -4.41664,4.26797 -1.28736,1.53259 -1.97065,3.25918 -0.79222,1.99818 -1.63396,3.84117 -0.20796,0.44619 -0.13864,0.94089 0.0891,0.582 -0.0792,1.12519 -0.98038,3.23978 -0.62388,6.66385 0.47534,4.46197 -0.14854,8.63294 -0.89125,5.97515 0.28718,13.48289 0.50504,3.19128 0.18816,5.41256 -1.09921,7.76964 -0.713,16.29588 0.20795,4.77236 -0.10893,8.97243 c -0.0792,0.98939 0.27727,1.69749 0.19805,2.68688 q -0.0396,0.49469 0.12874,0.96999 0.93086,2.62868 0.33669,5.15066 -0.13864,0.6014 0.26738,1.07669 0.24757,0.3007 0.25747,0.679 l 0.32679,10.01032 q 0.0198,0.5723 0.37631,1.03789 1.72308,2.26009 4.24829,3.24948 7.57562,2.97788 15.77512,5.05366 0.46543,0.1261 0.78232,0.4753 0.33669,0.36859 0.83183,0.48499 c 2.64405,0.5917 4.84246,1.86239 7.40728,2.63838 q 3.78286,1.13489 7.54592,2.13399 3.08966,0.82449 6.4269,2.15338 3.12928,1.24159 6.37739,2.29888 2.40637,0.7857 4.55528,1.82359 2.23802,1.07669 4.75333,1.55199 c 0.78232,0.1455 1.48542,1.01849 2.28754,1.29009 q 16.63667,5.47076 31.28287,10.63112 1.51513,0.53349 2.90152,1.22219 1.60425,0.79539 3.14908,1.10579 2.64404,0.5238 4.96129,1.33859 11.67538,4.09337 23.42997,8.14794 1.83202,0.64019 3.61452,1.47439 1.87162,0.87299 3.89179,1.47438 2.8718,0.8439 5.78322,1.98849 3.95121,1.54229 8.06086,2.68688 c 2.54501,0.71779 4.95139,1.73629 7.34786,2.78388 q 0.50504,0.2134 1.03979,0.1261 c 1.29727,-0.2134 1.57454,0.60139 2.58463,0.91179 q 3.05995,0.94089 6.05059,2.37648 1.47552,0.7081 3.06986,1.15429 1.65377,0.4559 3.21841,1.24159 2.29744,1.17369 4.60479,1.84299 9.74433,2.84208 20.03332,6.83845 1.22794,0.47529 2.41627,0.70809 c 2.26774,0.4559 4.04034,0.6596 6.26846,1.61019 q 11.83382,5.09246 21.93465,8.35164 8.43717,2.71598 15.14135,3.53077 9.50667,1.15429 20.6671,-0.86329 c 0.86154,-0.1552 1.17843,-0.6208 2.18851,-0.5432 q 0.50504,0.0388 0.95067,-0.2231 2.73316,-1.59079 7.38747,-2.81298 2.57472,-0.67899 5.50594,-2.95847 0.38621,-0.3104 0.88135,-0.3492 0.46543,-0.0388 0.76251,-0.388 0.26738,-0.3104 0.61398,-0.53349 3.83237,-2.38619 7.41718,-3.72478 1.55473,-0.58199 2.89161,-1.40649 1.39629,-0.86329 3.01044,-1.58108 2.34696,-1.0379 4.38693,-2.45409 1.36658,-0.95059 2.64404,-1.34828 1.53493,-0.485 2.94113,-1.2222 0.89125,-0.47529 1.88152,-0.78569 0.90116,-0.291 1.66367,-1.11549 0.40602,-0.4365 0.98038,-0.6402 1.17843,-0.41709 2.35686,-0.81479 1.14872,-0.3783 2.07958,-1.06699 2.4955,-1.83329 5.28808,-3.35618 0.98038,-0.53349 2.15881,-0.82449 1.10911,-0.2813 2.11919,-0.73719 3.2085,-1.46469 6.11992,-3.00698 1.39629,-0.7469 2.81239,-1.75569 1.24775,-0.90209 2.69355,-1.18339 3.99082,-0.79539 7.50631,-3.49197 1.15862,-0.8924 2.68365,-1.21249 2.15881,-0.4656 3.69374,-1.85269 2.10929,-1.91088 5.30789,-2.22128 0.52484,-0.0485 0.96056,-0.3201 1.79241,-1.13489 3.82248,-1.93029 0.46543,-0.18429 0.66348,-0.65959 0.20796,-0.4947 0.75261,-0.5626 2.75298,-0.32979 5.41682,-2.08548 2.03998,-1.34829 4.38693,-2.23098 2.46579,-0.9215 4.70382,-2.48318 1.13882,-0.7954 2.46579,-1.31919 1.30717,-0.5141 2.58463,-1.0864 0.0891,-0.0388 3.68383,-1.21249 2.79259,-0.91179 4.83256,-2.90997 c 0.48523,-0.4753 0.91105,-0.5141 1.56464,-0.4947 a 1.9320894,1.9687629 75.51348 0 0 0.92095,-0.2037 q 3.12928,-1.58109 6.10012,-3.43377 1.39629,-0.8827 3.20849,-1.56169 1.48542,-0.5529 3.1986,-1.46469 1.63396,-0.87299 4.21858,-1.59079 2.74307,-0.76629 4.67412,-2.55108 0.85163,-0.78569 3.55509,-1.53259 1.94095,-0.54319 5.39702,-3.12337 1.77259,-1.32889 3.37684,-1.92059 1.83202,-0.67899 3.72345,-1.34829 0.70309,-0.2425 1.18833,-0.68869 0.59417,-0.5335 1.33688,-0.7275 c 1.85181,-0.47529 3.24811,-1.76538 5.09993,-2.31828 q 3.07976,-0.92149 5.3772,-2.49288 1.56464,-1.06699 3.26792,-2.01759 1.68347,-0.93119 3.43626,-1.71688 3.03025,-1.34829 5.6743,-3.05548 0.40601,-0.2619 0.90115,-0.2716 c 1.68347,-0.0291 4.50576,-1.83328 5.82283,-2.78388 q 1.67357,-1.21249 3.75315,-1.97878 3.22831,-1.20279 6.17934,-2.87118 0.47533,-0.2619 1.01998,-0.3492 1.88153,-0.30069 3.04016,-1.60048 c 1.40619,-1.56169 4.2879,-2.89058 6.13972,-3.46288 q 1.63396,-0.50439 3.16889,-1.41619 c 2.03997,-1.21249 4.19877,-1.78478 6.22884,-2.88087 q 1.10911,-0.6014 2.29745,-1.1058 0.45552,-0.19399 0.713,-0.60139 0.52484,-0.8148 1.52502,-0.7857 0.44563,0.0194 0.78232,-0.27159 0.15845,-0.1261 0.26738,-0.3007 0.28718,-0.4171 0.76251,-0.6402 10.57617,-5.02456 21.3999,-10.49532 1.58445,-0.80509 3.10948,-1.75568 1.58444,-0.9894 3.36694,-1.66839 0.56446,-0.2134 0.98038,-0.6693 0.32679,-0.35889 0.79222,-0.47529 1.4458,-0.3783 2.54501,-1.38709 0.3466,-0.3201 0.82193,-0.291 0.7229,0.0582 1.30717,-0.4074 c 0.53475,-0.42679 1.18833,-0.54319 1.85182,-0.61109 q 0.75261,-0.0776 1.32697,-0.4268 5.97137,-3.53077 12.39828,-6.71235 0.44562,-0.2231 2.4955,-0.82449 1.30713,-0.388 2.33703,-1.33859 0.3565,-0.3298 0.8319,-0.4462 1.3963,-0.34919 3.1193,-1.33859 2.446,-1.42589 12.3389,-5.73265 0.4555,-0.194 0.7625,-0.5723 0.6833,-0.83419 1.7627,-0.80509 0.4852,0.0194 0.8516,-0.291 1.0398,-0.85359 1.7132,-1.10579 3.8819,-1.47439 7.4568,-3.55987 c 1.5151,-0.8827 3.0798,-1.2222 4.4563,-2.26009 q 0.5446,-0.41709 1.2378,-0.65959 0.7031,-0.2328 1.3567,-0.7081 0.9308,-0.67899 2.0301,-1.08639 1.3071,-0.485 2.6044,-1.01849 0.4456,-0.1843 0.7823,-0.5044 0.3466,-0.33949 0.8219,-0.42679 0.6437,-0.1067 1.2181,-0.3783 2.2974,-1.08639 4.7137,-2.27948 0.6734,-0.3395 1.1982,-0.8827 0.3268,-0.33949 0.7923,-0.35889 0.7922,-0.0388 1.3467,-0.6984 0.3169,-0.3783 0.7625,-0.59169 1.7825,-0.8342 3.674,-1.39679 1.8518,-0.5529 3.4858,-1.63929 1.4854,-0.96999 3.7036,-1.60049 1.7627,-0.5044 3.2184,-1.53259 1.5844,-1.13489 3.4264,-1.84298 1.5943,-0.6111 3.0995,-1.50349 c 1.2379,-0.7275 2.6342,-1.58109 4.0305,-1.88179 q 0.8219,-0.1746 1.8914,-0.74689 6.5457,-3.52108 13.1212,-6.86755 0.9506,-0.485 1.9508,-0.79539 1.2082,-0.3686 1.9608,-0.7954 4.5156,-2.58988 9.2393,-4.29706 c 0.8318,-0.291 1.4755,-1.0961 2.3469,-1.46469 q 6.4368,-2.75478 13.4183,-6.28556 0.7823,-0.39769 2.1291,-0.70809 1.1982,-0.2619 2.2974,-0.82449 0.3268,-0.1649 0.6932,-0.1455 0.4357,0.0194 0.6239,-0.3686 0.2178,-0.4656 0.7229,-0.582 1.4359,-0.34919 2.2974,-1.53258 0.2575,-0.3589 0.7031,-0.4171 0.4457,-0.0485 0.8418,-0.2522 0.4555,-0.2328 0.7922,-0.62079 0.5347,-0.6305 1.3666,-0.5723 0.1089,0.01 0.089,-0.097 -0.05,-0.2037 0.2377,-0.4268 0.2277,-0.17459 0.5149,-0.23279 3.4363,-0.6402 6.6646,-2.92938 1.733,-1.23189 4.0601,-1.72659 0.515,-0.1164 0.9012,-0.4656 2.337,-2.16308 5.6347,-3.11367 c 1.723,-0.4947 3.0401,-1.37739 4.4463,-2.40558 q 1.3765,-0.9894 3.0699,-1.28039 1.9904,-0.3298 3.763,-1.67809 1.5548,-1.19309 3.7037,-2.08548 2.3865,-0.9991 4.7533,-2.40559 1.8518,-1.10579 3.7432,-1.55198 2.2975,-0.5335 4.3672,-1.99819 1.9805,-1.40649 4.1294,-2.22128 3.06,-1.17369 5.704,-2.86148 0.8517,-0.5432 1.8914,-0.82449 1.0299,-0.2716 1.8915,-0.8245 4.0007,-2.56078 8.15,-5.09246 3.4659,-2.12428 6.1595,-4.88876 3.1095,-3.18158 5.1494,-6.52805 7.4172,-12.12491 6.833,-27.80969 -0.079,-2.18248 -0.8913,-3.77327 -0.208,-0.4171 -0.1981,-0.873 c 0.02,-1.07669 0.05,-2.77417 -0.5743,-3.71507 -0.5645,-0.85359 -0.4258,-1.79448 -0.8814,-2.77418 q -1.3864,-2.91967 -2.8817,-5.33496 -0.2673,-0.42679 -0.7031,-0.67899 -0.4258,-0.2425 -0.604,-0.67899 -0.2575,-0.6596 -0.6932,-1.2028 -1.228,-1.54228 -2.545,-2.87117 -0.6536,-0.6693 -1.2181,-1.48409 z"
     id="path6"
     style="stroke-width:0.980083" />
  <path
     fill="#ffddb9"
     d="m 1211.0078,419.40247 q 1.317,1.32889 2.545,2.87117 0.4357,0.5432 0.6932,1.2028 0.1782,0.43649 0.604,0.67899 0.4358,0.2522 0.7031,0.67899 1.4953,2.41529 2.8817,5.33496 c 0.4556,0.9797 0.3169,1.92059 0.8814,2.77418 0.6239,0.9409 0.5942,2.63838 0.5743,3.71507 q -0.01,0.4559 0.1981,0.873 0.812,1.59079 0.8913,3.77327 0.5842,15.68478 -6.833,27.80969 -2.0399,3.34647 -5.1494,6.52805 -2.6936,2.76448 -6.1595,4.88876 -4.1493,2.53168 -8.15,5.09246 -0.8616,0.5529 -1.8915,0.8245 -1.0397,0.28129 -1.8914,0.82449 -2.644,1.68779 -5.704,2.86148 -2.1489,0.81479 -4.1294,2.22128 -2.0697,1.46469 -4.3672,1.99819 -1.8914,0.44619 -3.7432,1.55198 -2.3668,1.40649 -4.7533,2.40559 -2.1489,0.89239 -3.7037,2.08548 -1.7726,1.34829 -3.763,1.67809 -1.6934,0.29099 -3.0699,1.28039 c -1.4062,1.02819 -2.7233,1.91088 -4.4463,2.40558 q -3.2977,0.95059 -5.6347,3.11367 -0.3862,0.3492 -0.9012,0.4656 -2.3271,0.4947 -4.0601,1.72659 -3.2283,2.28918 -6.6646,2.92938 -0.2872,0.0582 -0.5149,0.23279 -0.2872,0.2231 -0.2377,0.4268 0.02,0.1067 -0.089,0.097 -0.8319,-0.0582 -1.3666,0.5723 -0.3367,0.38799 -0.7922,0.62079 -0.3961,0.2037 -0.8418,0.2522 -0.4456,0.0582 -0.7031,0.4171 -0.8615,1.18339 -2.2974,1.53258 -0.5051,0.1164 -0.7229,0.582 -0.1882,0.388 -0.6239,0.3686 -0.3664,-0.0194 -0.6932,0.1455 -1.0992,0.56259 -2.2974,0.82449 -1.3468,0.3104 -2.1291,0.70809 -6.9815,3.53078 -13.4183,6.28556 c -0.8714,0.36859 -1.5151,1.17369 -2.3469,1.46469 q -4.7237,1.70718 -9.2393,4.29706 -0.7526,0.4268 -1.9608,0.7954 -1.0002,0.31039 -1.9508,0.79539 -6.5755,3.34647 -13.1212,6.86755 -1.0695,0.57229 -1.8914,0.74689 c -1.3963,0.3007 -2.7926,1.15429 -4.0305,1.88179 q -1.5052,0.89239 -3.0995,1.50349 -1.842,0.70809 -3.4264,1.84298 -1.4557,1.02819 -3.2184,1.53259 -2.2182,0.6305 -3.7036,1.60049 -1.634,1.08639 -3.4858,1.63929 -1.8915,0.56259 -3.674,1.39679 -0.4456,0.21339 -0.7625,0.59169 -0.5545,0.6596 -1.3467,0.6984 -0.4655,0.0194 -0.7923,0.35889 -0.5248,0.5432 -1.1982,0.8827 -2.4163,1.19309 -4.7137,2.27948 -0.5744,0.2716 -1.2181,0.3783 -0.4753,0.0873 -0.8219,0.42679 -0.3367,0.3201 -0.7823,0.5044 -1.2973,0.53349 -2.6044,1.01849 -1.0993,0.4074 -2.0301,1.08639 -0.6536,0.4753 -1.3567,0.7081 -0.6932,0.2425 -1.2378,0.65959 c -1.3765,1.03789 -2.9412,1.37739 -4.4563,2.26009 q -3.5749,2.08548 -7.4568,3.55987 -0.6734,0.2522 -1.7132,1.10579 -0.3664,0.3104 -0.8516,0.291 -1.0794,-0.0291 -1.7627,0.80509 -0.307,0.3783 -0.7625,0.5723 -9.8929,4.30676 -12.3389,5.73265 -1.7231,0.9894 -3.1194,1.33859 -0.4753,0.1164 -0.8318,0.4462 -1.0299,0.95059 -2.33705,1.33859 -2.04988,0.60139 -2.4955,0.82449 -6.42691,3.18158 -12.39828,6.71235 -0.57436,0.3492 -1.32697,0.4268 c -0.66349,0.0679 -1.31707,0.1843 -1.85182,0.61109 q -0.58427,0.4656 -1.30717,0.4074 -0.47533,-0.0291 -0.82193,0.291 -1.09921,1.00879 -2.54501,1.38709 -0.46543,0.1164 -0.79222,0.47529 -0.41592,0.4559 -0.98038,0.6693 -1.7825,0.67899 -3.36694,1.66839 -1.52503,0.95059 -3.10948,1.75568 -10.82373,5.47076 -21.3999,10.49532 -0.47533,0.2231 -0.76251,0.6402 -0.10893,0.1746 -0.26738,0.3007 -0.33669,0.29099 -0.78232,0.27159 -1.00018,-0.0291 -1.52502,0.7857 -0.25748,0.4074 -0.713,0.60139 -1.18834,0.5044 -2.29745,1.1058 c -2.03007,1.09609 -4.18887,1.66838 -6.22884,2.88087 q -1.53493,0.9118 -3.16889,1.41619 c -1.85182,0.5723 -4.73353,1.90119 -6.13972,3.46288 q -1.15863,1.29979 -3.04016,1.60048 -0.54465,0.0873 -1.01998,0.3492 -2.95103,1.66839 -6.17934,2.87118 -2.07958,0.76629 -3.75315,1.97878 c -1.31707,0.9506 -4.13936,2.75478 -5.82283,2.78388 q -0.49514,0.01 -0.90115,0.2716 -2.64405,1.70719 -5.6743,3.05548 -1.75279,0.78569 -3.43626,1.71688 -1.70328,0.9506 -3.26792,2.01759 -2.29744,1.57139 -5.3772,2.49288 c -1.85182,0.5529 -3.24812,1.84299 -5.09993,2.31828 q -0.74271,0.194 -1.33688,0.7275 -0.48524,0.44619 -1.18833,0.68869 -1.89143,0.6693 -3.72345,1.34829 -1.60425,0.5917 -3.37684,1.92059 -3.45607,2.58018 -5.39702,3.12337 -2.70346,0.7469 -3.55509,1.53259 -1.93105,1.78479 -4.67412,2.55108 -2.58462,0.7178 -4.21858,1.59079 -1.71318,0.91179 -3.1986,1.46469 -1.8122,0.67899 -3.20849,1.56169 -2.97084,1.85268 -6.10012,3.43377 a 1.9320894,1.9687629 75.51348 0 1 -0.92095,0.2037 c -0.65359,-0.0194 -1.07941,0.0194 -1.56464,0.4947 q -2.03997,1.99818 -4.83256,2.90997 -3.59471,1.17369 -3.68383,1.21249 -1.27746,0.5723 -2.58463,1.0864 -1.32697,0.52379 -2.46579,1.31919 -2.23803,1.56168 -4.70382,2.48318 -2.34695,0.88269 -4.38693,2.23098 -2.66384,1.75569 -5.41682,2.08548 -0.54465,0.0679 -0.75261,0.5626 -0.19805,0.4753 -0.66348,0.65959 -2.03007,0.7954 -3.82248,1.93029 -0.43572,0.2716 -0.96056,0.3201 -3.1986,0.3104 -5.30789,2.22128 -1.53493,1.38709 -3.69374,1.85269 -1.52503,0.32009 -2.68365,1.21249 -3.51549,2.69658 -7.50631,3.49197 -1.4458,0.2813 -2.69355,1.18339 -1.4161,1.00879 -2.81239,1.75569 -2.91142,1.54229 -6.11992,3.00698 -1.01008,0.45589 -2.11919,0.73719 -1.17843,0.291 -2.15881,0.82449 -2.79258,1.52289 -5.28808,3.35618 -0.93086,0.68869 -2.07958,1.06699 -1.17843,0.3977 -2.35686,0.81479 -0.57436,0.2037 -0.98038,0.6402 -0.76251,0.82449 -1.66367,1.11549 -0.99027,0.3104 -1.88152,0.78569 -1.4062,0.7372 -2.94113,1.2222 -1.27746,0.39769 -2.64404,1.34828 -2.03997,1.41619 -4.38693,2.45409 -1.61415,0.71779 -3.01044,1.58108 -1.33688,0.8245 -2.89161,1.40649 -3.58481,1.33859 -7.41718,3.72478 -0.3466,0.22309 -0.61398,0.53349 -0.29708,0.3492 -0.76251,0.388 -0.49514,0.0388 -0.88135,0.3492 -2.93122,2.27948 -5.50594,2.95847 -4.65431,1.22219 -7.38747,2.81298 -0.44563,0.2619 -0.95067,0.2231 c -1.01008,-0.0776 -1.32697,0.388 -2.18851,0.5432 q -11.16043,2.01758 -20.6671,0.86329 -6.70418,-0.81479 -15.14135,-3.53077 -10.10083,-3.25918 -21.93465,-8.35164 c -2.22812,-0.95059 -4.00072,-1.15429 -6.26846,-1.61019 q -1.18833,-0.2328 -2.41627,-0.70809 -10.28899,-3.99637 -20.03332,-6.83845 -2.30735,-0.6693 -4.60479,-1.84299 -1.56464,-0.78569 -3.21841,-1.24159 -1.59434,-0.44619 -3.06986,-1.15429 -2.99064,-1.43559 -6.05059,-2.37648 c -1.01009,-0.3104 -1.28736,-1.12519 -2.58463,-0.91179 q -0.53475,0.0873 -1.03979,-0.1261 c -2.39647,-1.04759 -4.80285,-2.06609 -7.34786,-2.78388 q -4.10965,-1.14459 -8.06086,-2.68688 -2.91142,-1.14459 -5.78322,-1.98849 -2.02017,-0.60139 -3.89179,-1.47438 -1.7825,-0.8342 -3.61452,-1.47439 -11.75459,-4.05457 -23.42997,-8.14794 -2.31725,-0.81479 -4.96129,-1.33859 -1.54483,-0.3104 -3.14908,-1.10579 -1.38639,-0.6887 -2.90152,-1.22219 -14.6462,-5.16036 -31.28287,-10.63112 c -0.80212,-0.2716 -1.50522,-1.14459 -2.28754,-1.29009 q -2.51531,-0.4753 -4.75333,-1.55199 -2.14891,-1.03789 -4.55528,-1.82359 -3.24811,-1.05729 -6.37739,-2.29888 -3.33724,-1.32889 -6.4269,-2.15338 -3.76306,-0.9991 -7.54592,-2.13399 c -2.56482,-0.77599 -4.76323,-2.04668 -7.40728,-2.63838 q -0.49514,-0.1164 -0.83183,-0.48499 -0.31689,-0.3492 -0.78232,-0.4753 -8.1995,-2.07578 -15.77512,-5.05366 -2.52521,-0.98939 -4.24829,-3.24948 -0.3565,-0.46559 -0.37631,-1.03789 l -0.32679,-10.01032 q -0.01,-0.3783 -0.25747,-0.679 -0.40602,-0.47529 -0.26738,-1.07669 0.59417,-2.52198 -0.33669,-5.15066 -0.16835,-0.4753 -0.12874,-0.96999 c 0.0792,-0.98939 -0.27728,-1.69749 -0.19805,-2.68688 q 0.31688,-4.20007 0.10893,-8.97243 -0.38621,-8.52624 0.713,-16.29588 0.31688,-2.22128 -0.18816,-5.41256 -1.17843,-7.50774 -0.28718,-13.48289 0.62388,-4.17097 0.14854,-8.63294 -0.3565,-3.42407 0.62388,-6.66385 0.16835,-0.54319 0.0792,-1.12519 -0.0693,-0.4947 0.13864,-0.94089 0.84174,-1.84299 1.63396,-3.84117 0.68329,-1.72659 1.97065,-3.25918 1.83201,-2.17278 4.41664,-4.26797 2.26774,-1.82358 4.86226,-1.97878 3.27782,-0.194 6.25856,0.56259 0.95067,0.2425 1.89143,0.2813 c 1.33687,0.0679 2.09939,0.8439 3.35704,1.04759 q 3.88189,0.6208 7.55582,2.24069 0.44562,0.194 0.76251,0.54319 0.30699,0.3589 0.78232,0.4074 2.79259,0.3007 6.08031,1.85269 3.30753,1.55198 8.32823,3.26887 4.28791,1.45499 8.28863,3.14278 4.26809,1.79448 8.22921,3.28827 2.06968,0.776 4.18887,1.37739 2.07958,0.5917 4.20868,1.53259 2.79258,1.24159 5.68419,2.22128 2.91142,0.9894 5.74362,2.05639 2.89161,1.08639 5.64458,1.82358 2.70346,0.7178 5.27818,1.81389 4.13936,1.75569 8.82337,3.03608 c 3.25802,0.89239 6.25856,2.54138 9.53638,3.40467 1.85182,0.485 3.28772,1.40649 5.05041,2.05639 q 8.07077,2.98757 15.93357,5.85875 3.89179,1.42589 7.89252,2.66748 2.78268,0.86329 5.25837,1.97879 2.58463,1.15429 5.39701,1.94968 4.13936,1.15429 7.8232,2.94878 1.75279,0.84389 3.63432,1.29009 c 1.75279,0.41709 3.29762,0.66929 4.93158,1.51319 q 3.97101,2.07578 8.24901,3.17187 1.79241,0.4656 3.51549,1.34829 1.66367,0.8439 3.53529,1.36769 5.13954,1.42589 10.12064,3.67627 1.96075,0.8827 3.9215,1.42589 1.37648,0.3783 2.65394,1.04759 1.22795,0.6305 2.61434,0.9797 3.07976,0.77599 6.36748,2.08548 17.4487,6.95485 34.80826,13.1434 1.99046,0.7081 4.37703,1.05729 2.07958,0.3104 4.10965,0.8148 7.05078,1.75568 14.44816,2.33768 3.18869,0.2619 6.24865,-0.1067 3.06986,-0.3686 6.20904,-0.81479 1.84192,-0.2716 3.65412,-0.3298 2.07959,-0.0776 3.87199,-0.82449 4.66421,-1.94969 9.43735,-3.59868 1.61415,-0.55289 2.8817,-1.29009 1.31707,-0.75659 2.72327,-1.43559 9.06104,-4.36496 18.23101,-9.26343 2.77278,-1.48408 5.66439,-2.75478 1.24775,-0.55289 2.43608,-1.42588 1.08931,-0.7954 2.44599,-1.44529 5.55546,-2.67718 11.56644,-5.49016 5.83274,-2.72568 11.47732,-5.69386 8.01135,-4.20007 16.01279,-7.84724 3.50558,-1.60049 6.55564,-3.40467 c 1.61415,-0.9506 3.24811,-1.31919 4.83256,-2.18249 q 5.7139,-3.09427 10.69499,-5.42225 a 8.2225638,48.637556 62.912644 0 0 6.12982,-2.93908 q 10.21967,-5.02456 20.39972,-10.01033 3.21841,-1.58108 7.13,-3.33677 3.57491,-1.60049 6.96166,-3.42407 9.93248,-5.33496 21.02359,-10.50502 8.49659,-3.94787 16.48813,-7.96364 7.28844,-3.65688 14.72543,-7.13915 7.27854,-3.39497 14.60659,-7.23614 7.74397,-4.05457 17.68636,-8.69114 8.98182,-4.19037 18.02306,-8.97243 2.80248,-1.48409 8.18959,-3.93817 9.95231,-4.54927 18.55781,-9.06943 5.506,-2.89058 11.3585,-5.53866 5.8031,-2.61898 11.3981,-5.50956 3.2481,-1.66838 6.417,-3.26887 4.9712,-2.52198 10.3979,-5.01486 7.9025,-3.63748 18.6371,-9.24403 8.6946,-4.52987 17.7556,-8.64264 10.1603,-4.61716 21.6277,-10.67962 0.3169,-0.16489 0.6635,-0.20369 0.4852,-0.0388 0.8912,-0.3104 1.7132,-1.11549 3.6047,-1.79449 1.9013,-0.67899 3.664,-1.76539 1.8716,-1.13489 4.1492,-2.24068 15.6266,-7.53684 31.1938,-15.03488 2.1093,-1.0088 4.0304,-2.13399 1.5251,-0.89239 3.9413,-1.64898 1.426,-0.4559 2.6837,-1.1349 1.4062,-0.75659 2.6341,-1.13489 3.8522,-1.17369 7.6252,-2.68688 3.4659,-1.39679 7.1102,-1.70718 5.9713,-0.5238 11.1505,0.26189 2.1687,0.3201 4.4661,0.9894 3.8918,1.11549 6.7933,3.51137 c 1.1587,0.95059 2.6441,1.70719 3.4858,2.93908 q 0.5645,0.81479 1.2181,1.48409 z M 465.38803,577.17176 q 3.565,3.96727 8.43717,5.58716 c 5.32769,1.76539 10.58607,3.33678 15.81473,5.20886 q 27.57924,9.91333 53.74238,18.91486 7.06068,2.42498 14.74523,5.23796 10.51675,3.84117 14.9631,4.56866 1.01998,0.1649 4.42654,0.1358 -1.10911,0.5044 -2.36676,0.6111 -0.53475,0.0485 -0.0693,0.3007 0.33669,0.17459 0.65358,0.0485 0.43572,-0.1649 0.45553,0.29099 0.11883,2.09519 2.08948,2.10489 5.09003,0.01 8.04106,-3.41438 1.84191,-2.14368 1.76269,-5.27676 0,-0.0776 0.0495,-0.1358 0.0891,-0.097 0.16834,-0.18429 0.21786,-0.2522 0.24757,-0.5723 0.54466,-5.24766 -2.35686,-9.18583 c -2.08948,-2.83238 -5.92186,-4.46197 -9.23929,-5.69386 -6.58535,-2.45408 -13.17069,-5.18946 -19.77585,-7.31374 q -11.73479,-3.76357 -21.69698,-7.30405 -2.05978,-0.72749 -3.46597,-1.11549 -1.7627,-0.49469 -3.47588,-1.11549 -19.65701,-7.13914 -39.29422,-14.27829 -0.98037,-0.3589 -1.98055,-0.63049 -1.28736,-0.3492 -2.38657,-1.0573 -0.44563,-0.28129 -0.98038,-0.32979 c -1.92114,-0.1746 -3.27782,-1.26099 -5.17915,-1.65869 q -2.65394,-0.5626 -5.26828,-1.26099 -4.88207,-1.29979 -8.25891,2.21158 -1.00018,1.03789 -2.06968,1.74599 -0.37631,0.2522 -0.51495,0.67899 -0.49514,1.40649 -1.19823,2.75478 -0.61398,1.17369 -0.713,2.46378 -0.15845,1.87209 -0.3565,3.68597 a 1.1939335,1.1584509 15.924533 0 0 0.10893,0.6693 l 1.46561,2.97788 a 2.5443515,2.3771004 5.3796301 0 0 0.713,0.87299 q 2.72326,2.11458 2.76287,-0.5432 z m 70.66622,68.21959 q 18.55781,6.60564 37.54143,12.4644 3.82247,1.17369 7.05078,-0.5238 c 3.69373,-1.94968 6.48632,-5.43195 5.57526,-9.65142 -0.93086,-4.28737 -5.0009,-6.99365 -8.9224,-8.36134 -6.97156,-2.42498 -13.86389,-4.86936 -21.15233,-7.02275 -10.97228,-3.25917 -21.88514,-7.46894 -32.53063,-10.98031 q -19.71643,-6.51835 -38.64063,-13.8127 -4.17898,-1.61018 -10.18996,-3.05547 c -3.74325,-0.8924 -6.72399,0.67899 -8.1896,4.07397 -1.86172,4.30676 -2.61433,9.03063 1.50522,11.9406 2.98074,2.09519 6.7636,3.82178 10.26918,4.99547 q 27.71788,9.26343 57.68368,19.93335 z"
     id="path7"
     style="stroke-width:0.980083" />
  <path
     fill="#ffddb9"
     d="m 216.40251,543.43542 q 1.57454,-2.49288 0.7328,-4.82086 -0.78232,-2.19219 -0.79222,-2.23098 -2.139,-9.05974 -3.51549,-18.34257 -0.56445,-3.80237 0.27728,-7.64354 c 0.24757,-1.13489 0.15845,-2.26978 0.12874,-3.42407 q -0.01,-0.485 0.27728,-0.88269 0.49514,-0.679 0.46543,-1.51319 -0.01,-0.4656 0.33669,-0.7954 l 10.25928,-9.86482 q 0.3466,-0.3298 0.57436,-0.7469 0.44562,-0.83419 1.30717,-1.29009 1.01998,-0.54319 1.86172,-1.39679 3.60461,-3.68597 8.11037,-6.73174 0.10893,-0.0776 0.10893,0.0485 -0.01,0.0582 0.0198,0.10669 0.099,0.194 0.31689,0.1067 6.60515,-2.84207 11.36839,-7.99274 0.3664,-0.38799 0.3763,-0.91179 0.0198,-0.87299 0.58427,-1.56169 0.68329,-0.84389 1.0695,-1.88178 1.00018,-2.62868 1.50522,-5.21856 0.43572,-2.25039 -0.21786,-4.41347 -0.48524,-1.61989 -1.7627,-2.61898 -2.04987,-1.59079 -3.90169,-3.56957 -0.61397,-0.6499 -0.88135,-1.36769 -0.38621,-1.06699 -1.09921,-1.70719 -0.43572,-0.388 -0.44562,-0.96029 -0.01,-0.4947 -0.26738,-0.94089 -0.28718,-0.4947 -0.11883,-1.0379 0.59417,-1.94968 1.54483,-3.54047 0.79222,-1.31919 2.38657,-1.13489 0.58427,0.0679 1.08931,-0.2231 l 4.16907,-2.47348 a 0.93165208,0.92071058 10.595357 0 0 0.45552,-0.69839 q 0.10893,-0.9894 -0.49513,-1.70719 10.06122,-2.85178 17.59723,-1.66839 4.44635,0.6984 9.28881,1.41619 a 0.59296742,0.57345304 11.985525 0 1 0.32679,0.97969 c -8.79367,8.57474 -16.32968,18.87606 -20.18186,30.17647 q -2.57473,7.51745 -3.14909,16.14068 -0.21786,3.31738 -0.63377,6.66385 c -1.0695,8.66203 -0.46543,17.87696 -0.49514,26.5002 0,3.78297 0.98037,7.33314 0.97047,11.04821 q 0,10.94152 0.0198,21.98004 c 0.01,2.90997 0.83184,5.59685 1.01009,8.52623 0.67339,10.95122 5.92186,19.99155 13.10137,28.01339 q 1.39629,1.56169 -0.713,1.70719 -2.05978,0.14549 -3.89179,-0.2425 -12.30915,-2.61898 -22.21193,-10.16553 c -2.99064,-2.27948 -5.89215,-4.36496 -8.34804,-7.33314 q -1.48542,-1.79449 -4.01062,-4.78206 -9.01153,-10.63112 -14.50757,-25.57871 z"
     id="path8"
     style="stroke-width:0.980083" />
  <path
     fill="#fef4d2"
     d="m 252.23076,440.05361 q 0.60406,0.71779 0.49513,1.70719 a 0.93165208,0.92071058 10.595357 0 1 -0.45552,0.69839 l -4.16907,2.47348 q -0.50504,0.291 -1.08931,0.2231 -1.59435,-0.1843 -2.38657,1.13489 -0.95066,1.59079 -1.54483,3.54047 -0.16835,0.5432 0.11883,1.0379 0.25747,0.44619 0.26738,0.94089 0.01,0.57229 0.44562,0.96029 0.713,0.6402 1.09921,1.70719 0.26738,0.71779 0.88135,1.36769 1.85182,1.97878 3.90169,3.56957 1.27746,0.99909 1.7627,2.61898 0.65358,2.16308 0.21786,4.41347 -0.50504,2.58988 -1.50522,5.21856 -0.38621,1.03789 -1.0695,1.88178 -0.56446,0.6887 -0.58427,1.56169 -0.01,0.5238 -0.3763,0.91179 -4.76324,5.15067 -11.36839,7.99274 -0.21786,0.0873 -0.31689,-0.1067 -0.0297,-0.0485 -0.0198,-0.10669 0,-0.1261 -0.10893,-0.0485 -4.50576,3.04577 -8.11037,6.73174 -0.84174,0.8536 -1.86172,1.39679 -0.86155,0.4559 -1.30717,1.29009 -0.22776,0.4171 -0.57436,0.7469 l -10.25928,9.86482 q -0.3466,0.3298 -0.33669,0.7954 0.0297,0.83419 -0.46543,1.51319 -0.28718,0.39769 -0.27728,0.88269 c 0.0297,1.15429 0.11883,2.28918 -0.12874,3.42407 q -0.84173,3.84117 -0.27728,7.64354 1.37649,9.28283 3.51549,18.34257 0.01,0.0388 0.79222,2.23098 0.84174,2.32798 -0.7328,4.82086 -3.36695,-8.99183 -4.50577,-15.47138 c -1.00018,-5.69386 -2.4955,-11.62051 -2.5054,-17.19797 q -0.0198,-6.31465 0.0594,-12.7166 c 0.0297,-2.90028 0.69319,-6.11096 1.47551,-8.89484 q 2.41628,-8.63293 7.4766,-20.77724 4.90187,-11.73691 16.4089,-19.32225 8.77386,-5.78116 17.41899,-9.00153 z"
     id="path9"
     style="stroke-width:0.980083" />
  <path
     fill="#ffddb9"
     d="m 351.39717,485.85666 q 21.80591,7.59504 46.98867,16.00488 2.59453,0.86329 5.82284,1.65869 a 0.61397218,0.60139542 0 0 1 0.3862,0.87299 q -4.56518,8.00244 -8.08066,15.51988 c -2.23803,4.79176 -4.6147,12.26071 -5.02071,18.33286 -0.16835,2.44438 -1.02989,4.78206 -0.87144,7.24585 q 0.27727,4.20006 -0.38621,8.25463 -0.61397,3.79267 -0.61397,7.47865 0.0198,10.40802 0.0495,21.80543 c 0.01,3.57927 0.89125,6.78995 0.93086,10.25282 q 0.099,8.35164 0.0297,16.05338 c -0.0396,3.94787 1.37648,7.28464 0.85164,11.36831 a 0.62387496,0.61109535 0 0 1 -0.82193,0.4947 c -20.54825,-7.13915 -41.95805,-14.93789 -63.14009,-21.22344 q -11.16043,-3.29797 -15.40872,-14.23949 c -1.55474,-3.98667 -2.74307,-8.21584 -2.69356,-12.46441 0.0495,-3.18157 -0.89125,-6.16915 -0.90115,-9.33132 q -0.0594,-11.62052 -0.11883,-23.16343 c -0.01,-3.06517 -0.86154,-5.95575 -0.89125,-9.09853 q -0.12874,-12.7263 0,-23.22162 0.0495,-3.89937 1.35668,-9.46713 c 2.21822,-9.44773 7.64494,-14.98639 15.7157,-19.55505 q 1.60425,-0.91179 4.85237,-0.2716 7.98163,1.55199 15.41862,4.33587 3.22831,1.20279 6.54574,2.35708 z m -16.71589,24.08492 c -6.60515,-1.29979 -9.77404,6.04305 -9.20959,11.27131 0.45553,4.28737 5.42673,6.10125 8.96202,7.30405 q 14.6165,4.97606 28.13379,9.42832 1.84191,0.6014 4.04033,1.17369 c 4.39683,1.1252 6.97156,-6.66384 7.55582,-9.59322 0.90115,-4.57837 -3.75315,-7.87634 -7.46669,-9.45743 q -16.55745,-7.07125 -32.01568,-10.12672 z"
     id="path10"
     style="stroke-width:0.980083" />
  <path
     fill="#ff711e"
     d="m 449.30592,721.25447 c 1.59435,-5.13126 6.91214,-12.70691 12.93303,-13.2598 6.55564,-0.6014 13.97282,1.50349 19.67682,3.43377 q 20.29079,6.86755 63.65505,22.20313 c 8.556,3.02638 17.72597,5.85876 26.43051,8.91424 q 33.02576,11.59141 66.19016,22.79482 16.51784,5.58716 36.11543,12.69721 9.85327,3.56957 20.04322,5.92665 c 3.05996,0.70809 6.09021,0.3007 9.10066,1.30949 q 0.61397,0.2134 1.24775,0.0194 2.32715,-0.71779 4.92168,-0.76629 c 5.3475,-0.1164 12.1408,-2.65778 16.4287,-4.74327 17.8052,-8.63293 35.75893,-17.16887 53.30665,-26.3256 q 11.45752,-5.98485 22.92493,-11.47501 c 5.64458,-2.70628 11.20995,-6.00425 16.77531,-8.68143 q 24.76684,-11.92121 49.24651,-24.37592 c 25.17286,-12.8136 50.69231,-25.04521 76.06323,-37.48051 2.57472,-1.26099 5.60497,-3.20098 8.45697,-4.59777 19.32032,-9.46713 38.73966,-18.82755 57.92137,-28.58568 q 27.9456,-14.20069 56.8617,-28.06189 c 2.8322,-1.35799 5.5258,-3.10397 8.259,-4.47166 18.7954,-9.39923 37.581,-18.37166 56.1586,-27.91639 q 16.7654,-8.61353 32.2633,-15.92728 c 6.308,-2.97788 14.8838,-6.39225 21.9742,-6.30495 3.1095,0.0388 6.2586,-0.2425 9.2987,0.4559 q 7.1795,1.64898 11.5764,4.86936 12.9429,9.50593 16.0722,25.21981 1.624,8.18673 1.1586,12.7554 -0.2872,2.76448 -0.8021,5.96545 c -1.5845,9.81633 -6.526,18.55596 -13.9134,25.98611 -3.2085,3.23007 -6.1496,5.35436 -10.1504,7.31374 q -27.3316,13.3859 -55.4852,27.13069 c -12.0418,5.88786 -23.4795,12.37711 -36.056,17.77997 -6.9221,2.97788 -14.26,7.36224 -21.3108,10.80572 -30.758,15.01548 -61.3774,30.50626 -91.75917,45.49265 -3.60461,1.77509 -7.03097,3.87997 -10.55636,5.60656 q -23.45968,11.44591 -46.45393,22.73662 c -3.54519,1.73629 -6.82301,3.85087 -10.37811,5.54836 q -10.90296,5.21856 -22.103,11.00942 c -20.00361,10.34012 -40.23498,20.03035 -60.65451,30.19587 q -3.13918,1.56169 -6.45661,3.23007 -23.65774,11.92121 -45.53297,22.69783 -2.8619,1.40649 -6.00108,3.04578 -14.93339,7.75994 -30.25299,15.24828 -1.48541,0.7275 -3.06986,1.54229 -14.90368,7.65324 -31.99587,16.04368 -7.90242,3.87997 -12.98254,4.74326 -3.61452,0.6208 -7.42708,1.27069 c -4.44635,0.7566 -8.83328,-0.4462 -13.22021,-1.01849 -5.94167,-0.78569 -12.04178,-2.74508 -17.76558,-4.84026 q -22.77639,-8.34194 -39.02685,-13.8321 -13.5668,-4.57836 -27.36137,-9.46713 -6.88243,-2.43468 -13.9134,-4.94696 -11.61596,-4.16127 -23.58842,-8.10914 c -19.49857,-6.44075 -38.67034,-13.73509 -58.23823,-20.00124 q -6.96165,-2.23099 -14.45806,-4.89847 -15.58697,-5.53866 -32.91683,-10.92211 c -2.88171,-0.8924 -9.15016,-3.07488 -10.40782,-6.17886 q -1.10911,-2.70628 -1.01998,-5.10216 c 0.20796,-5.55806 -0.97047,-11.18401 -0.99028,-16.67417 q -0.0891,-22.74633 -0.01,-47.98554 0,-3.22037 1.19823,-7.04214 z m 257.33357,107.25208 q 3.86208,1.04759 7.69446,0.5432 c 6.53583,-0.8633 16.74559,-3.15248 15.89396,-11.90181 -0.39612,-4.04487 -3.87199,-6.13036 -7.58553,-6.84815 q -6.46652,-1.26099 -13.9134,-2.04669 -5.12964,-0.55289 -10.25928,-1.56168 -5.38711,-1.067 -9.9919,-2.44438 c -13.82428,-4.13217 -27.84661,-9.54473 -41.76992,-14.2395 q -19.01333,-6.41165 -36.52144,-12.5517 c -6.09021,-2.14368 -12.78448,-3.95757 -18.76576,-6.12065 -14.72543,-5.34466 -30.16386,-10.37892 -45.13686,-15.67508 q -16.13162,-5.69386 -31.62947,-10.66992 c -10.18996,-3.26888 -19.65701,-6.89665 -29.35183,-10.50502 q -7.35777,-2.73538 -13.94311,-2.35709 c -2.8322,0.1649 -3.98092,3.64718 -4.79295,5.88786 q -0.82193,2.26978 -0.29708,4.46197 1.18833,5.02456 4.37703,6.82874 c 5.79312,3.28828 12.29925,3.91877 18.43897,6.21766 q 22.15251,8.27403 32.32266,11.44591 15.35921,4.79176 29.01514,9.74843 9.16007,3.31737 18.70635,6.34375 11.0713,3.50167 21.09291,7.21674 c 13.11128,4.85966 25.71751,8.65234 38.69015,13.3471 16.3891,5.93635 32.4316,10.89302 48.51371,17.01367 q 12.45769,4.73356 25.59868,7.36224 c 1.21804,0.2425 2.41627,0.1843 3.61451,0.5044 z m -66.70511,17.27557 q 10.47714,3.96727 21.07311,7.71144 c 3.09957,1.08639 6.47642,1.82359 9.6057,3.08458 q 9.2888,3.75387 15.74541,5.34466 3.65413,0.90209 8.77386,-1.43559 c 3.35704,-1.53259 4.59489,-4.57837 4.6345,-8.06064 q 0.0297,-2.40558 -1.426,-3.76357 -3.77296,-3.52108 -10.76432,-5.80056 -28.97552,-9.44773 -52.50452,-18.08066 -9.52647,-3.49197 -18.60732,-6.55715 -8.81347,-2.97788 -19.89468,-6.95485 -10.60587,-3.81207 -20.71661,-7.41074 -16.91394,-6.00426 -27.43069,-9.39923 c -7.92222,-2.55108 -15.3196,-5.23796 -22.94474,-7.93454 -12.39827,-4.39407 -25.98488,-8.62323 -39.19519,-13.2404 q -3.70364,-1.29979 -11.00198,-2.95848 c -2.29745,-0.52379 -5.10984,0 -6.64477,1.62959 -3.29762,3.48227 -4.45625,10.45652 0.3466,13.7448 q 2.34696,1.61018 4.69392,2.62868 c 10.89305,4.68506 22.80609,7.85694 33.55061,11.61081 q 21.00379,7.35254 36.33329,12.3674 c 12.27944,4.02547 24.54898,8.74934 36.26397,12.66811 q 15.83454,5.28646 34.09526,11.73691 c 8.52629,3.00698 17.51801,5.84905 26.01459,9.06943 z"
     id="path11"
     style="stroke-width:0.980083" />
  <path
     fill="#fef4d2"
     d="m 577.51718,616.82506 q 4.34732,0.6014 6.38729,-2.59958 c 3.90169,-6.12065 1.33688,-11.54291 -4.87217,-14.47229 q -3.53529,-1.65868 -7.12009,-2.90028 -19.6174,-6.78994 -44.44367,-15.22888 C 511.9806,576.35697 496.661,570.56611 481.49985,564.98866 q -4.57508,-1.68779 -7.91232,-1.79449 -3.61451,-0.1067 -4.80284,0.97969 -6.22885,5.65506 -3.39666,12.9979 -0.0396,2.65778 -2.76287,0.5432 a 2.5443515,2.3771004 5.3796301 0 1 -0.713,-0.87299 l -1.46561,-2.97788 a 1.1939335,1.1584509 15.924533 0 1 -0.10893,-0.6693 q 0.19805,-1.81388 0.3565,-3.68597 0.099,-1.29009 0.713,-2.46378 0.70309,-1.34829 1.19823,-2.75478 0.13864,-0.42679 0.51495,-0.67899 1.0695,-0.7081 2.06968,-1.74599 3.37684,-3.51137 8.25891,-2.21158 2.61434,0.69839 5.26828,1.26099 c 1.90133,0.3977 3.25801,1.48409 5.17915,1.65869 q 0.53475,0.0485 0.98038,0.32979 1.09921,0.7081 2.38657,1.0573 1.00018,0.27159 1.98055,0.63049 19.63721,7.13915 39.29422,14.27829 1.71318,0.6208 3.47588,1.11549 1.40619,0.388 3.46597,1.11549 9.96219,3.54048 21.69698,7.30405 c 6.60516,2.12428 13.1905,4.85966 19.77585,7.31374 3.31743,1.23189 7.14981,2.86148 9.23929,5.69386 q 2.90152,3.93817 2.35686,9.18583 -0.0297,0.3201 -0.24757,0.5723 -0.0792,0.0873 -0.16834,0.18429 -0.0495,0.0582 -0.0495,0.1358 0.0792,3.13308 -1.76269,5.27676 -2.95103,3.42408 -8.04106,3.41438 -1.97065,-0.01 -2.08948,-2.10489 -0.0198,-0.45589 -0.45553,-0.29099 -0.31689,0.12609 -0.65358,-0.0485 -0.46543,-0.2522 0.0693,-0.3007 1.25765,-0.1067 2.36676,-0.6111 z"
     id="path12"
     style="stroke-width:0.980083" />
  <path
     fill="#ff711e"
     d="m 256.90487,738.99563 q -5.47624,-1.72658 -11.85363,-4.57836 c -6.34768,-2.84208 -12.60623,-7.70174 -16.96346,-13.4053 Q 215.48155,704.4833 211.85713,684.72455 c -0.48523,-2.64808 -0.32679,-5.23796 -1.05959,-7.81814 -0.61398,-2.17279 0.31688,-4.21947 0.49513,-6.42136 0.73281,-8.98213 3.64423,-19.38045 9.75424,-26.0055 q 6.75369,-7.32344 16.10192,-10.16552 5.07022,-1.54229 8.99172,-1.05729 7.5162,0.93119 15.78502,3.65687 57.78271,19.06035 104.1178,33.92064 c 10.40782,3.33678 19.57779,7.06155 29.77765,9.79693 q 1.19824,0.32009 0.78232,1.46469 -3.91159,10.76691 -5.50594,21.18463 c -0.78232,5.04397 -0.0891,9.87453 -0.93086,14.85059 -1.0695,6.27585 -0.0693,12.08611 0.10893,18.23586 q 0.63378,21.54354 0.30698,44.75546 -0.01,0.4947 -0.50504,0.4268 -3.23821,-0.4268 -5.90205,-1.29009 -23.45968,-7.64354 -42.32447,-13.6187 c -27.73768,-8.78813 -56.17846,-18.56566 -84.94602,-27.64479 z m 16.0722,-76.83311 c -3.14908,-1.15429 -6.21894,-1.60049 -9.38783,-2.44438 q -1.7726,-0.4753 -3.2283,0.23279 c -5.83274,2.83238 -7.21913,10.96092 -2.56482,15.44229 q 3.15898,3.05547 6.62495,4.07397 c 17.04268,5.00516 32.33257,10.53412 48.44439,15.83028 q 19.63721,6.45045 38.94762,13.25009 c 4.6444,1.62959 9.65521,2.99728 14.49767,3.86057 4.278,0.7566 6.60515,-3.86057 7.74397,-7.31374 0.73281,-2.24068 0.17825,-3.99637 -1.0695,-5.87815 -3.72344,-5.59686 -11.07131,-8.14794 -17.29025,-9.97153 -8.09057,-2.35708 -16.65647,-4.49106 -24.6183,-7.21674 q -18.48849,-6.32436 -37.86822,-12.60021 c -6.82302,-2.21158 -13.51729,-4.78206 -20.23138,-7.26524 z m -6.57544,57.02586 c 25.42043,8.46804 50.85076,16.75178 77.20205,25.55931 5.45643,1.82358 10.72471,3.79267 16.23065,5.71326 5.76342,2.01758 12.56663,1.71688 13.80447,-5.23797 q 1.82211,-10.30132 -8.27872,-13.42469 -32.34247,-10.02003 -64.76416,-20.83544 c -11.10101,-3.70538 -21.97426,-7.61445 -33.12479,-10.40802 q -4.10965,-1.0282 -7.77368,-0.2619 c -3.75315,0.78569 -4.46615,7.36224 -3.96111,10.21402 0.77241,4.34557 6.93194,7.43014 10.66529,8.68143 z"
     id="path13"
     style="stroke-width:0.980083" />
  <path
     fill="#ff546d"
     d="m 623.18879,917.05718 q 4.86226,1.76538 9.74433,3.51137 26.09382,9.33133 49.73175,17.57627 2.79258,0.96999 6.19914,1.91088 3.35704,0.93119 6.29816,1.37739 3.53529,0.5335 7.89251,0.388 c 8.71445,-0.3007 18.58752,-4.36497 26.06411,-8.38074 11.00199,-5.89755 20.18186,-10.11702 30.25299,-15.33558 11.64566,-6.05276 22.79619,-11.38771 34.07545,-17.29497 8.62532,-4.51047 17.16152,-8.56503 25.76703,-13.124 9.39774,-4.98576 19.58769,-9.80663 29.71823,-14.98639 q 16.69609,-8.53593 33.70906,-16.77117 c 2.64404,-1.27069 6.15953,-3.53077 9.24919,-5.01486 q 12.65575,-6.08185 24.44996,-12.26071 c 13.01225,-6.81904 26.16314,-12.833 39.40315,-19.84605 6.72398,-3.56957 13.61632,-6.69294 20.51855,-10.25282 q 20.13235,-10.38862 41.0074,-20.67054 2.9015,-1.43559 5.9813,-3.00698 16.2703,-8.32253 33.2238,-16.54807 8.15,-3.95757 17.6171,-8.86573 12.9924,-6.74145 26.272,-13.0658 c 3.3076,-1.57139 6.5161,-3.48228 9.7642,-5.12157 14.0421,-7.10034 29.1934,-14.23949 43.7702,-21.97033 q 9.0413,-4.79176 20.0334,-9.14703 4.169,-1.64899 9.4274,-2.64808 4.9811,-0.95059 8.9818,-0.291 c 15.8445,2.58988 26.1434,13.03671 30.352,28.03279 q 0.6932,2.48318 0.8121,4.97606 c 0.1089,2.49288 1.1487,4.79177 0.5446,7.30405 -0.7823,3.23977 -0.3466,6.41165 -1.1982,9.65142 q -3.6442,13.9776 -14.3789,23.15373 -3.664,3.13307 -13.6559,8.01214 -35.4321,17.28526 -65.5168,32.31045 -3.1887,1.59079 -6.2882,3.14278 -17.32,8.66203 -34.2339,16.96517 c -2.6243,1.29009 -5.1198,3.08457 -7.8232,4.30676 -6.4764,2.91968 -12.4676,6.69295 -18.6767,9.62233 -9.7839,4.60747 -18.9539,9.77753 -28.51,14.44319 q -5.1396,2.50258 -10.0514,5.16036 c -9.6849,5.24766 -19.8154,9.91333 -29.51026,14.79239 -1.87163,0.94089 -3.59471,2.14368 -5.46634,3.04578 -7.78358,3.76357 -15.22057,7.96364 -23.07347,11.78541 -4.83255,2.34738 -9.50666,5.19916 -14.22039,7.44954 q -11.4377,5.46106 -22.64765,11.35861 c -8.25891,4.34557 -16.7654,8.25464 -24.70743,12.60991 -6.71408,3.68597 -13.59651,6.61535 -20.10263,10.17522 q -16.84463,9.22463 -32.57024,16.82937 c -3.09957,1.49379 -5.98128,3.42408 -9.06104,4.89846 q -19.5976,9.37983 -38.91791,19.59389 c -11.94275,6.3146 -23.85579,12.154 -35.93718,18.62382 q -8.74415,4.6851 -17.53782,8.9725 -15.52755,7.5853 -30.63919,16.0824 c -4.37703,2.4541 -9.18978,4.6269 -13.82428,6.5572 -10.92276,4.5686 -22.31096,2.425 -33.76847,-1.0088 q -11.58625,-3.4629 -26.11362,-8.4874 -31.25317,-10.8058 -63.08069,-21.9995 -15.27999,-5.364 -28.78738,-9.83572 -10.28898,-3.4144 -18.66673,-6.4699 -6.63486,-2.4152 -12.76468,-4.4425 c -15.17106,-5.00518 -30.01532,-10.99974 -45.2854,-15.5199 q -7.99154,-2.36678 -16.25046,-4.90816 c -6.30807,-1.93999 -10.64548,-8.96274 -11.65557,-15.10279 -0.32679,-2.06608 -1.01998,-3.90907 -1.01998,-6.02365 q -0.0891,-27.38289 -0.01,-53.93159 0.0198,-5.56776 0.87145,-8.76874 c 1.96075,-7.24584 6.36748,-13.70599 14.12136,-15.28708 4.06014,-0.82449 9.10065,-0.1455 13.17069,1.08639 5.3574,1.61019 10.91286,3.02638 16.15143,5.01486 6.25856,2.37649 12.54682,4.17097 18.75586,6.47955 q 20.21157,7.50775 38.67035,13.5314 c 5.50594,1.79449 10.91286,4.11277 16.54754,5.99456 q 18.64693,6.25645 36.55115,12.7069 c 6.63486,2.38618 13.61632,4.52986 20.25118,6.95485 z m 79.05387,67.7443 c 3.42636,0.8051 7.42708,0.6208 10.97227,0.5432 q 2.54502,-0.058 4.88207,-0.5917 c 5.04052,-1.1446 9.16007,-2.9197 10.83364,-8.22556 q 0.61397,-1.96908 -0.0693,-3.74417 c -2.39647,-6.18855 -5.86244,-7.99274 -12.22002,-7.88604 q -5.60498,0.0873 -11.0218,0.0873 -4.75333,0 -9.6453,-1.01849 -8.02125,-1.65869 -11.23965,-2.86148 c -16.65647,-6.23705 -32.8079,-11.67871 -49.60301,-17.74116 -13.80448,-4.97607 -28.33185,-9.42833 -42.35418,-14.44319 q -12.86371,-4.60747 -26.46022,-8.97244 -9.34822,-3.00697 -18.48849,-6.42135 -9.12045,-3.40467 -18.47858,-6.40195 c -11.30897,-3.61807 -23.04376,-7.77934 -33.74866,-11.81451 q -9.13036,-3.45317 -16.13163,-4.83056 c -2.06968,-0.4074 -7.00126,-0.8051 -9.05114,0.54319 -2.81238,1.83329 -4.87216,5.58716 -4.47605,8.52624 0.57436,4.28737 3.60461,7.10035 7.4766,8.80753 7.58552,3.35618 16.44851,5.30586 24.6084,8.17704 8.75405,3.08458 17.61704,6.28555 26.46022,9.20523 q 16.4287,5.42226 33.21391,11.48471 9.55618,3.44348 18.64693,6.50865 32.39199,10.89302 65.22959,22.56203 8.81348,3.13308 17.41899,5.93636 c 10.3286,3.35617 21.56825,7.58534 32.94654,10.68932 q 4.37703,1.1931 7.72416,1.4744 1.31707,0.1067 2.57473,0.4074 z m -222.47579,-54.5427 c -2.40638,-0.7372 -6.72399,-2.22129 -8.95211,-0.6887 q -4.70382,3.22038 -4.9613,9.25373 c -0.24757,5.97516 7.02107,8.88513 11.69518,10.38862 q 24.09346,7.75024 47.51353,15.83028 4.05023,1.39679 7.93212,2.84208 5.85254,2.17278 15.06213,5.11186 13.99262,4.48137 32.44149,11.42653 c 3.62442,1.3677 7.75388,2.2213 11.55655,3.5502 q 30.84715,10.8251 61.67449,21.70842 c 10.03152,3.5405 19.9739,6.4601 30.09454,9.7387 q 9.35813,3.0458 14.74524,-4.782 c 3.55509,-5.1604 -3.23821,-10.379 -7.32806,-12.2317 q -6.71408,-3.04572 -17.18132,-6.05272 -12.97263,-3.7442 -32.1147,-10.9027 c -14.35903,-5.37378 -28.8864,-10.00065 -43.31475,-15.08341 -7.1201,-2.50258 -14.28971,-4.62686 -20.99389,-7.06155 q -15.79493,-5.73265 -36.20455,-12.3965 -4.49586,-1.46469 -9.35813,-3.20098 c -7.73406,-2.76448 -15.78502,-5.28646 -23.40026,-7.96364 q -14.07184,-4.94696 -28.9062,-9.48652 z"
     id="path14"
     style="stroke-width:0.980083" />
  <path
     fill="#ff546d"
     d="m 259.66774,810.79449 q -1.98055,6.04305 -2.46579,11.36831 -0.29708,3.13308 -0.78232,6.22735 -0.46543,3.01668 -0.46543,5.95576 0.0297,19.84605 0.0198,41.43808 c 0,3.09428 0.98038,5.94606 0.94077,9.05003 -0.20796,14.89909 5.82283,27.42169 15.53746,38.73181 q 0.45552,0.52379 -0.22777,0.39769 -18.43897,-3.40467 -32.31276,-15.52958 -2.57472,-2.24068 -4.69392,-4.74326 c -2.05977,-2.42498 -4.3077,-4.65597 -6.26845,-7.19735 q -12.4577,-16.21827 -16.399,-38.7997 -1.92114,-10.99002 -0.94077,-20.04975 0.49514,-4.50076 1.7726,-9.98122 2.60443,-11.07732 8.2094,-19.84605 5.16925,-8.08974 13.85399,-13.9194 9.36802,-6.27585 20.07293,-8.59413 3.80266,-0.81479 7.26864,-0.79539 c 3.61451,0.0291 7.843,-0.388 11.35848,0.49469 a 0.99027771,0.96999261 0 0 1 0.52485,1.54229 c -5.91196,7.29434 -12.07149,15.30648 -15.00271,24.24982 z"
     id="path15"
     style="stroke-width:0.980083" />
  <path
     fill="#ff546d"
     d="m 395.97947,849.20619 q -4.02053,9.58353 -4.23839,16.52868 -0.0891,3.07487 -0.55456,5.84905 -0.51494,3.07488 -0.52484,6.06246 -0.0495,20.90334 0,39.5757 c 0.01,2.46378 0.87144,4.67536 0.91105,7.09064 q 0.13864,9.87453 0.0297,18.34256 -0.0198,1.45499 -1.45571,1.05729 -5.79312,-1.61988 -10.91286,-3.33677 -29.81726,-10.00063 -57.62426,-18.42016 c -2.33705,-0.7081 -5.10983,-3.61807 -6.4368,-5.80056 q -5.13954,-8.45833 -5.67429,-17.04277 c -0.19806,-3.15247 -0.98038,-6.16915 -1.00019,-9.18583 q -0.13863,-23.59022 -0.0198,-46.53054 c 0.0297,-6.21766 1.0893,-12.39651 3.06986,-17.88667 1.93104,-5.39316 6.08031,-12.6487 12.19032,-14.61779 q 1.15862,-0.37829 2.46579,-0.0194 c 5.06032,1.37739 9.9721,2.56079 15.08193,4.32617 q 27.04448,9.36043 54.00975,17.86727 3.44616,1.09609 7.1498,1.91088 a 0.81202773,0.79539394 0 0 1 0.49514,1.21249 q -4.01062,6.00426 -6.96165,13.0173 z M 332.2551,839.20557 c -5.50595,2.07578 -6.65467,7.02275 -5.86245,12.18311 0.7031,4.52016 8.86299,7.50774 12.87361,8.66203 q 12.49731,3.61807 24.9352,7.28465 c 8.5857,2.53168 11.15052,-4.18067 10.62568,-11.03852 q -0.18816,-2.42498 -1.90134,-3.82177 -3.23821,-2.64808 -7.99154,-4.30677 -10.09093,-3.53077 -23.95482,-7.91514 c -1.71318,-0.54319 -3.51548,-0.61109 -5.23857,-1.13489 q -1.7825,-0.5529 -3.48577,0.0873 z"
     id="path16"
     style="stroke-width:0.980083" />
  <path
     fill="#955bcf"
     d="m 450.80124,1038.0638 q 4.47606,-10.0491 14.64621,-11.8145 c 3.565,-0.6208 7.79349,-0.2037 11.29907,0.7081 q 11.59615,3.0166 22.53872,7.013 14.48776,5.2865 28.30214,10.0103 c 18.23101,6.2371 36.35309,12.8233 54.43556,19.1283 q 42.33437,14.7439 81.01462,28.3044 10.27909,3.6083 20.57797,5.7811 c 4.02053,0.8536 7.76378,0.6402 11.7546,0.7081 q 3.97101,0.068 8.01135,-0.8827 c 10.38801,-2.4444 19.9739,-6.8966 29.79745,-12.4838 q 4.14927,-2.3668 8.9125,-4.5977 c 6.29817,-2.9391 11.89324,-6.3147 17.87452,-9.2344 q 4.6642,-2.2795 9.08084,-4.5977 18.06267,-9.4672 35.3034,-18.2359 c 8.15989,-4.1516 16.58715,-8.8754 25.35111,-13.1725 q 8.16979,-4.0061 16.89414,-8.6329 12.08139,-6.402 27.60894,-14.1813 c 6.22885,-3.1234 12.30915,-6.5378 18.55781,-9.5933 q 5.67429,-2.76442 11.63576,-6.05272 c 5.06032,-2.7839 10.52665,-5.1507 15.62658,-8.0121 9.09075,-5.1022 18.40926,-9.60297 27.65846,-14.56933 5.42672,-2.90998 10.88315,-5.65506 16.30987,-8.47774 q 9.45715,-4.90816 18.91431,-10.05882 7.843,-4.26797 14.59669,-7.49805 c 6.65464,-3.18157 12.78454,-6.78024 19.46884,-10.00062 q 13.1212,-6.30495 24.6877,-12.6972 6.7933,-3.76357 12.6953,-6.59595 c 5.7337,-2.75478 11.4278,-6.05276 16.9833,-8.77844 13.3291,-6.55715 26.2225,-13.70599 38.9674,-20.10794 q 11.1406,-5.58716 21.4296,-11.12582 c 6.8726,-3.70537 13.9926,-7.08094 21.0137,-10.92212 q 12.6558,-6.92574 22.7269,-11.73691 c 7.0904,-3.38527 13.7252,-5.08276 21.4395,-3.96727 q 9.1304,1.30949 15.7157,7.91514 6.4368,6.46015 9.1799,14.72449 2.2281,6.73175 2.5153,11.26162 0.2476,3.83147 0.1782,8.54563 c -0.04,3.32708 -0.8318,6.53775 -1.5646,9.78723 q -2.1291,9.33133 -7.536,16.43167 -6.6943,8.79783 -16.6367,14.33649 -11.8239,6.60565 -25.0936,13.5411 -13.3292,6.96455 -28.2823,14.87969 -6.0308,3.20097 -12.1409,6.41165 -22.7268,11.94061 -49.4346,25.7145 -19.2015,9.89392 -37.8979,19.87512 c -5.6545,3.0264 -11.0614,6.2662 -16.7952,9.118 q -9.6354,4.7917 -20.1323,10.5341 -4.8425,2.6578 -9.88299,5.0828 -3.44617,1.6683 -9.92258,5.1603 -31.84733,17.1204 -63.73428,34.1535 -4.51566,2.4152 -8.5857,4.5977 -9.30861,5.0052 -19.13217,10.0298 c -16.84462,8.6135 -33.35255,17.7217 -50.04863,26.3256 q -15.686,8.0897 -31.03531,16.2182 -38.31384,20.2729 -74.48869,39.3623 -14.38873,7.5854 -35.40243,19.5551 -3.9314,2.2407 -12.03187,4.4328 -4.19878,1.1349 -8.14999,1.0379 c -3.71354,-0.097 -7.30825,0.1358 -10.97227,-0.5529 q -8.25892,-1.5616 -11.89324,-2.7741 -27.48021,-9.1665 -55.03963,-18.9149 -9.07095,-3.2107 -18.69645,-6.3728 -16.4287,-5.3932 -32.02558,-10.8834 -26.90584,-9.4865 -64.09077,-22.0382 -13.27963,-4.4814 -25.62839,-7.9927 -11.4278,-3.2495 -15.78503,-13.7933 -2.852,-6.887 -3.24811,-11.3392 -0.25747,-2.8033 -0.17825,-5.9461 c 0.0792,-3.2301 -0.93086,-6.3534 -0.95066,-9.5544 q -0.0891,-17.4793 0.01,-35.9965 c 0.01,-3.618 0.98037,-7.0227 1.15862,-10.7087 q 0.11884,-2.5219 1.56464,-5.7908 z m 236.55754,103.9735 c 4.21859,0.7857 8.96202,0.4268 13.02215,0.4753 18.12209,0.2522 33.18421,-10.1946 48.74147,-17.9449 q 8.63523,-4.3068 17.25064,-8.662 2.93122,-1.4744 5.84264,-2.9779 11.94275,-6.1594 23.1626,-11.5429 c 6.49622,-3.1137 13.10137,-6.8385 19.6273,-10.0879 12.14081,-6.0528 23.97462,-12.5905 36.07582,-18.6045 8.22921,-4.0837 16.4287,-8.8172 24.88568,-13.0852 q 8.51638,-4.2971 17.4982,-9.0985 11.95266,-6.3923 24.90549,-12.7748 7.26864,-3.5793 14.52737,-7.4593 c 10.08103,-5.3834 19.70653,-9.9521 29.88658,-15.8981 q 8.01135,-4.6657 16.06231,-8.3032 c 8.9224,-4.0158 17.19122,-9.34102 25.99477,-13.52172 q 7.7341,-3.6763 15.1909,-7.8569 6.5754,-3.68599 13.7153,-7.29436 6.8429,-3.44348 13.8936,-7.05185 c 13.4579,-6.89665 26.8168,-13.75449 40.0271,-20.90334 11.0713,-5.98485 23.2319,-11.65931 34.8875,-18.00306 q 6.8329,-3.72477 13.646,-7.08095 11.6159,-5.74236 22.2119,-11.53321 c 7.9321,-4.34557 16.0128,-8.10914 24.0043,-12.20251 q 6.0605,-3.11367 7.2291,-8.42923 c 1.2873,-5.82966 -2.5847,-10.69902 -8.4372,-11.58172 -4.8425,-0.73719 -12.0121,3.61808 -16.2802,5.95576 q -4.2086,2.29888 -8.6352,4.48136 -11.2297,5.54836 -22.8952,11.96001 -14.052,7.72114 -28.0546,14.57899 c -8.0014,3.91877 -15.5671,8.36134 -23.4299,12.24131 -7.5658,3.72477 -14.9235,7.89574 -22.4496,11.57201 q -11.715,5.72296 -22.7566,11.81451 c -6.3873,3.52107 -12.8241,6.62505 -19.152,10.02972 -7.1894,3.86058 -14.7551,7.25555 -22.0535,11.26162 -6.35758,3.48227 -13.16079,6.59595 -19.78575,10.12674 q -9.70472,5.1797 -20.12244,10.0782 c -4.69392,2.2116 -9.09075,4.947 -13.84408,7.30402 q -4.9712,2.4638 -10.41773,5.4708 -14.18077,7.8375 -28.94581,15.3065 c -1.91124,0.97 -4.01063,2.4153 -6.12982,3.4241 q -13.33904,6.3825 -26.77711,13.8224 c -7.4964,4.1418 -15.75532,7.7987 -23.40026,11.9988 -5.20887,2.8517 -10.57617,5.2185 -15.6761,8.1576 -4.40674,2.5317 -9.03133,4.5299 -13.36875,6.9064 q -5.08012,2.7935 -9.96219,5.2088 -11.26936,5.5678 -22.58824,11.8145 -4.71372,2.5996 -9.19968,4.6948 -4.86226,2.2795 -9.19968,4.6657 c -12.35866,6.7899 -25.24218,12.3868 -37.75929,19.0603 -6.84282,3.6472 -15.15125,7.3914 -22.89522,8.5262 q -3.43626,0.5044 -6.70418,0.873 -4.06014,0.4462 -9.79385,-0.388 -9.83345,-1.4259 -14.2798,-2.7256 -13.39846,-3.9188 -38.77928,-13.221 c -13.48758,-4.9567 -27.39108,-9.1374 -40.83905,-14.094 q -9.72453,-3.5793 -18.59741,-6.693 -44.45357,-15.6266 -88.91704,-31.2046 c -6.55564,-2.2892 -19.64711,-5.8394 -20.89486,4.7432 q -0.54465,4.5687 1.21804,6.9549 2.44599,3.327 7.17952,4.8984 30.79763,10.2432 61.37741,21.2526 c 5.14944,1.8527 10.57616,3.4531 15.79493,5.3543 q 6.35758,2.3183 11.64566,4.0643 17.85471,5.8976 35.6302,12.5323 8.88279,3.3077 17.96363,6.2759 c 11.81402,3.8605 23.29134,8.5359 34.73895,12.2898 8.54609,2.8129 17.22093,6.0915 25.97498,8.1188 q 4.52557,1.0476 9.20958,1.9303 z m -58.54522,1.3483 c -15.45823,-5.1507 -31.34229,-11.3489 -47.21644,-16.4899 q -8.23911,-2.6675 -16.7555,-5.7909 -13.88369,-5.0924 -27.94563,-9.6999 -8.66493,-2.8421 -18.67664,-6.4601 -14.52737,-5.2477 -29.32212,-9.7485 c -5.53566,-1.6877 -16.08211,-6.1788 -20.34031,-0.9506 q -5.0009,6.1401 -0.83183,11.4557 c 1.93104,2.4637 4.51566,3.7441 7.35776,4.8984 q 8.02125,3.2689 15.36911,5.6939 24.2222,7.9927 39.83887,13.5508 7.26864,2.5802 15.71571,5.3446 c 11.59615,3.8024 22.74668,8.4972 34.24381,12.1055 q 12.28934,3.8703 22.78629,7.6339 c 12.40818,4.462 24.51927,8.3613 36.87794,12.8718 q 15.42852,5.6259 30.28269,10.0588 5.04051,1.5035 10.00181,2.425 6.58534,1.2125 11.48722,-2.522 c 5.0108,-3.8218 3.28772,-10.505 -1.43591,-13.9873 q -2.06968,-1.5229 -7.01116,-2.8518 -17.31006,-4.6365 -35.73913,-11.087 -13.01224,-4.5589 -18.68654,-6.4504 z"
     id="path17"
     style="stroke-width:0.980083" />
  <path
     fill="#955bcf"
     d="m 266.95618,1065.5049 q -0.28718,4.3649 -0.0297,7.8472 c 0.25747,3.5793 3.32733,7.3429 5.89215,9.8648 q 0.69319,0.6887 -0.28718,0.5626 -16.51783,-2.0855 -28.42097,-12.0182 c -6.24865,-5.2088 -13.16079,-11.7854 -17.65665,-18.8372 q -11.28917,-17.6927 -14.48777,-37.9461 -0.64368,-4.0934 -0.59416,-8.1383 c 0.0396,-3.9188 -0.20796,-7.70172 0.41591,-11.50412 q 1.34678,-8.2352 4.278,-15.18038 c 2.24793,-5.34466 6.14963,-11.40712 10.695,-14.98639 6.11002,-4.82086 12.93303,-8.52624 20.62749,-9.68053 q 4.18887,-0.63049 9.96219,0.4171 10.3385,1.87209 19.17178,4.96636 c 12.31905,4.30677 27.91593,8.84634 36.76901,11.97941 q 20.62748,7.28465 40.41323,13.44413 c 16.09202,5.0051 31.29278,10.0006 46.63218,14.69542 a 0.33669442,0.32979749 0 0 1 0.20796,0.4462 c -4.19878,9.5253 -8.72435,19.2543 -8.98182,30.0309 -0.0891,3.6278 -0.93086,7.0616 -0.93086,10.7378 q 0.0297,15.4423 0.0297,31.6315 -0.01,7.7017 0.61397,17.2853 0.57436,8.8948 0.28718,17.6926 -0.0198,0.6984 -0.68329,0.4365 c -14.87397,-5.6938 -30.01532,-10.5923 -44.83978,-15.8399 -19.89468,-7.0325 -41.27477,-13.997 -59.27802,-21.4175 q -5.65449,-2.328 -11.80411,-6.0236 -2.66385,-1.6005 -7.29835,-1.1737 -0.66348,0.068 -0.7031,0.7081 z m 107.11825,-38.0335 a 9.5858883,9.3895285 0 0 0 -6.00653,-11.9043 l -99.67205,-33.04609 a 9.5858883,9.3895285 0 0 0 -12.15318,5.88347 l -0.3874,1.1209 a 9.5858883,9.3895285 0 0 0 6.00653,11.90432 l 99.67205,33.0461 a 9.5858883,9.3895285 0 0 0 12.15318,-5.8835 z m -76.50876,6.0819 q -13.77476,-4.8985 -29.36174,-9.0306 c -2.55491,-0.679 -5.82283,-1.746 -8.30843,-0.5044 -3.35704,1.6781 -6.71408,6.043 -5.76341,9.9133 1.49532,6.0819 6.44671,9.0015 12.34876,10.5923 q 21.30088,5.7424 42.04719,13.5993 c 3.00054,1.1349 6.13972,1.8624 9.269,2.7839 q 1.47552,0.4365 3.30753,-0.4268 c 3.90169,-1.8624 8.60551,-7.0518 6.51603,-11.6593 q -2.68366,-5.9364 -8.02125,-8.08 c -6.88243,-2.7742 -14.73533,-4.5978 -22.03368,-7.1877 z"
     id="path18"
     style="stroke-width:0.980083" />
</svg>
