<?xml version="1.0" encoding="UTF-8" standalone="no"?>
<svg
   version="1.1"
   viewBox="0.00 0.00 1224.00 1711.00"
   id="svg6"
   xmlns="http://www.w3.org/2000/svg"
   xmlns:svg="http://www.w3.org/2000/svg">
  <defs
     id="defs6" />
  <path
     fill="#bd93f9"
     d="   M 647.92 0.00   L 701.37 0.00   L 701.37 73.18   Q 701.37 73.70 701.82 73.96   L 1132.02 322.56   Q 1133.25 323.27 1134.66 323.27   L 1223.26 323.27   Q 1223.50 323.27 1223.50 323.51   L 1223.50 376.77   A 0.27 0.27 0.0 0 1 1223.23 377.04   L 793.70 377.04   Q 793.38 377.04 793.38 377.36   L 793.38 1171.48   A 0.50 0.50 0.0 0 1 792.52 1171.82   Q 787.27 1166.27 781.60 1161.07   Q 774.04 1154.11 762.05 1146.21   Q 754.74 1141.38 739.21 1133.33   Q 738.71 1133.07 738.71 1132.50   L 738.71 377.50   A 0.46 0.46 0.0 0 0 738.25 377.04   L 702.18 377.04   Q 701.66 377.04 701.66 377.57   L 701.66 1125.30   A 0.66 0.66 0.0 0 1 700.76 1125.91   Q 695.83 1123.95 690.54 1122.93   Q 690.31 1122.88 690.11 1122.74   Q 689.91 1122.59 689.68 1122.48   Q 689.25 1122.27 688.78 1122.36   Q 687.56 1122.59 686.42 1121.96   Q 685.92 1121.68 685.36 1121.75   Q 683.16 1121.99 681.31 1121.17   Q 680.83 1120.95 680.29 1120.98   Q 678.44 1121.08 674.74 1120.73   Q 661.30 1119.43 647.95 1119.68   A 0.33 0.32 0.0 0 1 647.62 1119.36   L 647.62 377.46   A 0.42 0.41 -90.0 0 0 647.21 377.04   L 521.33 377.04   Q 520.95 377.04 520.95 377.42   L 520.95 635.77   A 0.72 0.72 0.0 0 1 520.23 636.49   L 382.50 636.49   Q 382.01 636.49 382.01 636.00   L 382.01 377.56   Q 382.01 377.05 381.49 377.05   L 0.00 377.04   L 0.00 323.26   L 211.18 323.27   A 3.80 3.75 29.7 0 0 213.06 322.77   Q 434.98 194.52 644.94 73.25   Q 646.11 72.57 647.49 72.09   Q 647.95 71.92 647.95 71.44   L 647.92 0.00   Z   M 647.28 323.03   A 0.34 0.34 0.0 0 0 647.62 322.69   L 647.62 134.02   A 0.34 0.34 0.0 0 0 647.11 133.72   L 320.62 322.40   A 0.34 0.34 0.0 0 0 320.79 323.03   L 647.28 323.03   Z   M 702.19 135.96   A 0.35 0.35 0.0 0 0 701.66 136.27   L 701.66 322.68   A 0.35 0.35 0.0 0 0 702.01 323.03   L 1024.59 323.03   A 0.35 0.35 0.0 0 0 1024.77 322.38   L 702.19 135.96   Z   M 494.25 377.51   A 0.47 0.47 0.0 0 0 493.78 377.04   L 409.14 377.04   A 0.47 0.47 0.0 0 0 408.67 377.51   L 408.67 496.49   A 0.47 0.47 0.0 0 0 409.14 496.96   L 493.78 496.96   A 0.47 0.47 0.0 0 0 494.25 496.49   L 494.25 377.51   Z"
     id="path1"
     style="fill:#ff79c6;fill-opacity:1" />
  <rect
     fill="#ff79c6"
     x="70.50"
     y="570.79"
     width="138.94"
     height="139.72"
     rx="0.40"
     id="rect1"
     style="fill-rule:nonzero;fill:#50fa7b;fill-opacity:1" />
  <rect
     fill="#f1fa8c"
     x="226.62"
     y="570.79"
     width="138.90"
     height="139.72"
     rx="0.44"
     id="rect2" />
  <rect
     fill="#8be9fd"
     x="382.00"
     y="726.21"
     width="138.94"
     height="139.54"
     rx="0.26"
     id="rect3" />
  <rect
     fill="#ff5555"
     x="70.50"
     y="726.21"
     width="138.98"
     height="139.54"
     rx="0.32"
     id="rect4" />
  <rect
     fill="#ffb86c"
     x="226.62"
     y="726.21"
     width="138.90"
     height="139.54"
     rx="0.26"
     id="rect5" />
  <path
     fill="#50fa7b"
     d="   M 261.81 1136.74   C 237.12 1160.25 219.32 1190.52 211.44 1223.94   Q 211.30 1224.55 210.68 1224.47   Q 199.52 1223.04 191.48 1223.27   Q 167.83 1223.94 141.64 1230.79   Q 140.83 1231.00 140.16 1230.50   Q 78.09 1183.80 50.01 1112.38   C 36.03 1076.82 30.49 1037.72 33.14 1000.06   Q 37.35 940.03 67.41 886.73   Q 67.69 886.24 68.25 886.24   L 523.78 886.23   A 1.49 1.47 74.8 0 1 525.06 886.98   Q 558.39 945.20 559.68 1013.08   C 560.45 1053.30 555.50 1093.88 538.47 1129.90   A 0.43 0.42 34.6 0 1 537.80 1130.02   C 511.74 1105.21 476.96 1091.27 440.80 1085.76   C 407.80 1080.74 374.11 1081.76 342.30 1091.01   Q 295.56 1104.60 261.81 1136.74   Z"
     id="path5"
     style="fill:#bd93f9;fill-opacity:1" />
  <path
     fill="#bd93f9"
     d="   M 421.37 1711.00   L 408.00 1711.00   Q 403.27 1710.48 398.51 1710.04   Q 350.15 1705.59 311.43 1678.59   Q 276.50 1654.23 255.43 1617.23   Q 253.98 1614.69 252.56 1612.21   Q 252.30 1611.75 251.78 1611.86   C 200.39 1622.31 147.59 1610.71 105.59 1579.52   C 61.15 1546.51 34.00 1495.44 31.96 1439.97   C 28.51 1346.34 97.15 1265.38 190.00 1252.90   Q 196.68 1252.00 207.53 1251.42   Q 215.73 1250.98 225.02 1250.87   Q 227.22 1250.85 233.47 1251.80   A 0.66 0.65 -77.5 0 0 234.20 1251.33   C 235.79 1245.60 237.35 1239.68 239.34 1234.09   Q 259.16 1178.53 306.92 1144.72   C 354.89 1110.76 418.18 1101.86 473.96 1122.47   Q 518.83 1139.04 550.40 1175.25   Q 550.63 1175.52 550.92 1175.32   Q 600.47 1141.79 660.44 1143.64   C 692.97 1144.65 725.02 1154.93 752.05 1172.37   C 822.81 1218.05 852.71 1304.71 826.26 1384.52   A 1.30 1.30 0.0 0 0 826.45 1385.70   C 861.60 1434.00 871.40 1495.26 852.18 1552.29   C 835.11 1602.96 795.76 1643.82 745.78 1663.35   Q 704.99 1679.28 660.14 1674.62   Q 614.60 1669.88 575.89 1643.21   Q 572.23 1640.69 564.21 1634.31   Q 563.73 1633.94 563.38 1634.42   Q 547.95 1655.58 528.37 1671.11   Q 481.74 1708.10 421.37 1711.00   Z"
     id="path6"
     style="fill:#ff79c6;fill-opacity:1" />
</svg>
