<?xml version="1.0" encoding="UTF-8" standalone="no"?>
<svg
   version="1.1"
   viewBox="0 0 222127.88 244902.95"
   id="svg48"
   width="222127.88"
   height="244902.95"
   xmlns="http://www.w3.org/2000/svg"
   xmlns:svg="http://www.w3.org/2000/svg">
  <defs
     id="defs48" />
  <g
     stroke-width="2"
     fill="none"
     stroke-linecap="butt"
     id="g25"
     transform="matrix(1.4003906,0,0,1.4003906,-13051.975,-3521.2507)">
    <path
       stroke="#eac486"
       vector-effect="non-scaling-stroke"
       d="m 336.23,109.46 q -1.35,0.83 0.16,3.41 2.81,4.78 4.18,10.16"
       id="path1" />
    <path
       stroke="#c7ed88"
       vector-effect="non-scaling-stroke"
       d="m 340.57,123.03 q -1.01,0.44 -1.1,-0.74 -0.13,-1.61 -1.08,-0.31 -0.37,0.5 -0.99,0.15 -0.35,-0.2 -0.75,-0.14 -0.68,0.11 -1.13,-0.3 -0.37,-0.33 -0.86,-0.35 -3.6,-0.16 -7.07,0.39 c -1.44,0.22 -2.26,1.2 -3.66,1.38 q -0.48,0.06 -0.85,0.37 -1.7,1.42 -3.98,2.18 -1.37,0.45 -1.87,1.7 -0.16,0.42 -0.61,0.39 -0.97,-0.05 -1.57,-1.53"
       id="path2" />
    <path
       stroke="#fc807f"
       vector-effect="non-scaling-stroke"
       d="m 396.23,195.99 q -0.53,0.11 -0.98,-0.05 -0.4,-0.13 -0.44,-0.55 -0.01,-0.23 -0.12,-0.45 -0.09,-0.17 -0.08,0.03 0.01,0.13 -0.08,0.25 -0.07,0.08 -0.16,0.06 -2.08,-0.52 -4.08,-1.72 -1.78,-1.06 -3.7,-2.02 a 0.92,0.9 -42.4 0 0 -0.78,-0.03 q -0.52,0.21 -1.05,-0.04 -1.77,-0.84 -3.45,-1.53 c -1.14,-0.46 -2.35,-0.44 -3.51,-0.93 q -0.73,-0.31 0.06,-0.3 0.69,0 1.22,-0.39 0.95,-0.7 -0.23,-0.7 -2.08,-0.01 -4.39,0 -2.17,0.01 -4.33,-0.44 -6.38,-1.31 -12.75,-2.55 -0.47,-0.09 -0.78,0.27 -0.23,0.27 -0.55,0.38 -0.33,0.11 -0.27,-0.22 0.03,-0.19 0.18,-0.26 0.75,-0.34 -0.06,-0.54 -3.36,-0.8 -5.82,-0.41"
       id="path3" />
    <path
       stroke="#d6bc7b"
       vector-effect="non-scaling-stroke"
       d="m 348.97,162.35 q 0.58,-0.21 0.47,-1.1 -1.58,-12.64 -4.61,-25.02 -1.65,-6.76 -4.26,-13.2"
       id="path4" />
    <path
       stroke="#75d682"
       vector-effect="non-scaling-stroke"
       d="m 329.71,214.64 q -6.81,1.33 -13.63,1.83 -2.95,0.21 -5.25,-0.85 -2.84,-1.33 -5.23,-3.31"
       id="path5" />
    <path
       stroke="#f05186"
       vector-effect="non-scaling-stroke"
       d="m 405.43,272.47 q -26.44,-24.04 -40.81,-36.85 -7.87,-7.02 -18.39,-15.17"
       id="path6" />
    <path
       stroke="#ee3888"
       vector-effect="non-scaling-stroke"
       d="m 402.94,290.08 q -2.21,-2.53 -7.69,-3.84 -3.26,-0.78 -7.89,-2.28 -1.89,-0.61 -3.51,-1.59 c -2.8,-1.7 -5.48,-3.31 -8.44,-4.83 q -5.27,-2.7 -9.64,-5.81 -5.21,-3.7 -12.39,-9.46 -0.48,-0.38 -1.09,-0.32 -0.64,0.06 -0.94,-0.45 -0.23,-0.39 -0.64,-0.58 l -3,-1.32 q -0.48,-0.21 -0.69,-0.69 -0.61,-1.41 -2.44,-1.73 -0.5,-0.09 -0.72,-0.57 -0.21,-0.49 -0.76,-0.49 -2.11,0.01 -4.23,0 -0.4,0 -0.77,0.14 -0.43,0.17 -0.71,-0.19 -0.44,-0.58 -0.9,-0.01 -0.36,0.46 -0.95,0.56 a 0.67,0.67 0 0 0 -0.45,1.02 q 0.6,0.96 0.81,1.88"
       id="path7" />
    <path
       stroke="#a5307e"
       vector-effect="non-scaling-stroke"
       d="m 335.9,259.52 q -0.77,-0.76 -1.89,-0.88"
       id="path8" />
    <path
       stroke="#76d48d"
       vector-effect="non-scaling-stroke"
       d="m 194.14,246.28 q -5.93,-6.67 -3.92,-14.37 0.61,-2.32 -0.72,-0.33 c -1.52,2.28 -3.37,4 -4.64,6.5 q -2.53,5 -3.41,8.59 -4.36,17.92 5.42,32.51 10.34,15.44 28.91,15.76 9.55,0.17 18.82,-4.83 9.26,-5 15.51,-14.05"
       id="path9" />
    <path
       stroke="#24bd87"
       vector-effect="non-scaling-stroke"
       d="m 270.78,260.77 q 1.34,0.92 3.36,0.58 0.5,-0.09 0.91,0.22 l 1.48,1.12 q 0.39,0.3 0.89,0.26 7.14,-0.55 10.85,-1.5 3.24,-0.84 6.73,-0.79 4.9,0.07 9.16,-0.43 0.46,-0.06 0.61,0.38 0.26,0.76 0.75,1.38"
       id="path10" />
    <path
       stroke="#0e8f79"
       vector-effect="non-scaling-stroke"
       d="m 231.79,322.55 -4.35,-0.22 q -0.56,-0.02 -1.11,0.14 -0.95,0.29 -1.83,-0.18 -0.35,-0.18 -0.71,-0.03 c -1.13,0.46 -2.49,-0.52 -3.72,-0.59 q -1.04,-0.06 -1.98,-0.48 -1.67,-0.74 -3.46,-0.71 c -8.32,0.12 -15.92,-0.57 -23.67,-4.09 q -14.02,-6.37 -24.38,-19.38"
       id="path11" />
    <path
       stroke="#61cc81"
       vector-effect="non-scaling-stroke"
       d="m 145.19,215.02 q 2.02,-1.93 5.21,-3.37 9.75,-4.41 31.24,-14.67"
       id="path12" />
    <path
       stroke="#b23380"
       vector-effect="non-scaling-stroke"
       d="m 390.8,327.19 q -0.81,-2.3 -1.98,-4.49 C 375.88,298.52 356.97,276.92 335.9,259.52"
       id="path13" />
    <path
       stroke="#722d7d"
       vector-effect="non-scaling-stroke"
       d="m 372.76,357.92 q -3.25,-3.9 -8.64,-6.6 -1.83,-0.92 -3.33,-1.95 -1.76,-1.22 -3.82,-2.15 -0.37,-0.17 -0.42,0.24 -0.01,0.14 0.05,0.27 0.39,0.82 -0.41,0.41 -4.73,-2.35 -8.97,-4.62 -3.59,-1.92 -7.28,-3.6 -3.74,-1.7 -7.21,-3.79 -0.54,-0.32 -1.01,-0.74 -0.47,-0.41 -1.06,-0.62 -3.29,-1.19 -6.53,-2.24 -0.92,-0.3 -1.71,-0.88 -0.86,-0.63 -1.84,-0.78 -1.35,-0.21 -2.59,-0.69 -2.47,-0.97 -5.06,-1.81 -0.5,-0.16 -0.73,-0.62 -0.26,-0.51 -0.81,-0.57 -0.4,-0.05 -0.79,-0.19 -6.32,-2.34 -13.07,-3.61 -3.79,-0.71 -7.71,-1.62 -0.54,-0.13 -0.81,-0.62 -0.07,-0.11 -0.09,-0.24 -0.16,-0.76 -0.83,-0.37 -0.36,0.21 -0.79,0.26"
       id="path14" />
    <path
       stroke="#76d48d"
       vector-effect="non-scaling-stroke"
       d="m 256.1,172.48 q -0.18,-0.43 -0.46,-0.57 -0.19,-0.1 -0.39,0 -13.99,6.62 -27.65,13.95 c -7.45,3.99 -14.96,7.54 -22.5,11.19"
       id="path15" />
    <path
       stroke="#8e3392"
       vector-effect="non-scaling-stroke"
       d="m 326.82,376.69 -15.74,-4.46 a 2.05,1.97 75.3 0 1 -0.9,-0.55 q -0.49,-0.54 -1.17,-0.68 -0.47,-0.09 -0.89,-0.32 -2.71,-1.48 -5.56,-2.77 -8.43,-3.84 -16.36,-6.63 -0.74,-0.25 -1.37,-0.64 -0.73,-0.44 -1.51,-0.31 -0.57,0.1 -0.81,-0.42 -0.21,-0.43 -0.73,-0.37 -0.61,0.07 -0.68,0.68 -0.02,0.19 -0.12,0.34 -0.06,0.09 -0.15,0.16 -0.4,0.3 -0.56,0.06 -0.16,-0.24 -0.41,-0.1 -0.39,0.22 -0.16,0.81"
       id="path16" />
    <path
       stroke="#692b75"
       vector-effect="non-scaling-stroke"
       d="M 279.7,361.49 Q 268.71,351.04 256.78,341.78"
       id="path17" />
    <path
       stroke="#c7ed88"
       vector-effect="non-scaling-stroke"
       d="M 182.22,190.9 Q 154.51,200.95 127.54,213"
       id="path18" />
    <path
       stroke="#7c3081"
       vector-effect="non-scaling-stroke"
       d="m 279.7,361.49 q 19.31,17.73 34.83,39.07"
       id="path19" />
    <path
       stroke="#c7ed88"
       vector-effect="non-scaling-stroke"
       d="M 138.29,198.9 116.4,209.38"
       id="path20" />
    <path
       stroke="#75d682"
       vector-effect="non-scaling-stroke"
       d="m 102.54,209.63 q -1.94,0.59 -4.79,-0.55 -1.54,-0.62 -2.07,-1.82"
       id="path21" />
    <path
       stroke="#692b75"
       vector-effect="non-scaling-stroke"
       d="m 184.41,357.57 q 0.88,1.32 2.75,1.69 0.39,0.08 0.21,-0.27 -0.08,-0.17 0.43,-0.26 0.3,-0.06 0.58,0.04 2.48,0.86 4.99,0.86 0.67,0 0.41,0.62 -0.09,0.22 -0.08,0.45 a 0.49,0.49 0 0 0 0.43,0.46 q 0.6,0.08 0.81,0.64 a 0.51,0.5 57 0 0 0.83,0.18 l 0.25,-0.25 q 0.4,-0.39 0.94,-0.24 2.88,0.82 5.38,1.67 0.19,0.07 0.14,0.26 -0.01,0.05 -0.06,0.07 -0.6,0.19 0,0.39 3.56,1.22 7.11,2.4 11.56,3.86 22.08,8.58 a 33.54,17.47 17.6 0 0 4.36,1.77 q 2.58,0.95 5.01,2.58 2.24,1.51 4.66,2.85 4.13,2.3 8.29,4.43 4.92,2.52 8.26,4.46 4.36,2.53 8.7,5.07 0.76,0.44 5.29,3.47 2.14,1.44 5.4,3.31 5.05,2.91 11.35,9.68"
       id="path22" />
    <path
       stroke="#24b383"
       vector-effect="non-scaling-stroke"
       d="m 139.18,252.81 q -2.17,1.52 -5.95,0.85 -0.5,-0.09 -0.94,0.18 -0.99,0.62 -2.08,0.82 -3.38,0.61 -9.16,0.23 -3.22,-0.21 -6.57,0.63 -2.5,0.63 -5.94,2.34 -3.16,1.57 -6.58,2.7"
       id="path23" />
    <path
       stroke="#bb3588"
       vector-effect="non-scaling-stroke"
       d="m 118.5,319.28 q -10.75,-4.69 -19.3,-13.3 -0.88,-0.9 -4.08,-4.76 -1.94,-2.36 -4.27,-4.59"
       id="path24" />
    <path
       stroke="#0e8475"
       vector-effect="non-scaling-stroke"
       d="m 149.02,298.42 -0.87,0.8 q -0.37,0.33 -0.49,-0.14 -0.05,-0.19 -0.23,-0.27 -0.53,-0.23 -0.63,0.34 -0.06,0.35 -0.3,0.57 -0.17,0.15 -0.39,0.22 -5.07,1.79 -10.7,3.12 -1.91,0.45 -4.27,2 a 1.44,1.42 -57.7 0 1 -0.98,0.23 q -0.88,-0.11 -1.06,0.63 -0.08,0.34 -0.42,0.28 -1.78,-0.35 -3.34,0.28 -0.42,0.17 -0.27,-0.26 0.08,-0.21 -0.13,-0.28 -0.22,-0.08 -0.41,0.06 -0.22,0.18 -0.57,0.57"
       id="path25" />
  </g>
  <path
     fill="#dbf593"
     d="m -12581.121,-3367.9639 q -1.891,1.1623 0.224,4.7753 3.935,6.6939 5.853,14.228 -1.414,0.6162 -1.54,-1.0363 -0.182,-2.2546 -1.512,-0.4341 -0.519,0.7002 -1.387,0.21 -0.49,-0.28 -1.05,-0.196 -0.952,0.154 -1.583,-0.4201 -0.518,-0.4622 -1.204,-0.4902 -5.041,-0.224 -9.901,0.5462 c -2.016,0.3081 -3.164,1.6805 -5.125,1.9325 q -0.672,0.084 -1.19,0.5182 -2.381,1.9885 -5.574,3.0528 -1.918,0.6302 -2.619,2.3807 -0.224,0.5882 -0.854,0.5461 -1.358,-0.07 -2.199,-2.1426 -4.117,-13.7238 -7.8,-20.9638 -16.552,-32.5311 -46.521,-54.1811 a 1.1063087,1.1063087 0 0 1 0.448,-1.9886 q 2.297,-0.4201 4.44,0.4622 28.582,11.5952 52.71,30.2904 13.906,10.783 26.384,22.9104 z"
     id="path26"
     style="stroke-width:1.40039" />
  <path
     fill="#b2e47c"
     d="m -12858.315,-3242.713 -30.654,14.6761 -19.41,0.3501 q -2.716,0.8263 -6.707,-0.7702 -2.157,-0.8682 -2.899,-2.5487 5.671,-17.827 7.786,-22.4203 2.787,-6.0776 5.237,-12.3094 1.751,-4.4672 3.697,-7.8702 c 1.947,-3.3749 2.885,-6.8479 5.028,-10.1528 q 2.941,-4.5233 5.657,-9.2426 1.961,-3.3889 4.552,-7.184 c 2.1,-3.0668 3.907,-6.4138 5.965,-9.2706 q 11.386,-15.8804 21.202,-26.7194 21.72,-24.0027 48.356,-42.4179 13.135,-9.1025 26.075,-15.0262 1.905,-0.8682 3.963,-0.28 a 1.0783008,1.0783008 0 0 1 0.462,1.8205 q -7.142,6.7919 -14.508,13.1917 c -4.649,4.0331 -9.41,8.7384 -13.261,13.6538 -2.227,2.8147 -4.65,5.1394 -6.834,8.0242 q -8.697,11.4832 -16.119,23.8346 -2.647,4.3973 -4.635,8.7105 c -1.863,4.0471 -4.313,7.5481 -5.868,11.7072 -1.932,5.1255 -4.509,9.9148 -6.218,15.1103 q -4.411,13.3457 -6.595,22.3782 -3.515,14.5641 -4.272,32.7551 z"
     id="path27"
     style="stroke-width:1.40039" />
  <path
     fill="#f99379"
     d="m -12581.121,-3367.9639 c 4.131,2.4787 6.288,5.9096 10.069,8.6264 2.114,1.5124 3.29,3.8651 5.447,5.4475 q 3.081,2.2547 5.518,5.9237 c 0.448,0.6862 2.254,1.6945 3.052,2.5907 q 6.372,7.058 12.506,14.326 10.937,12.9676 24.493,34.7297 1.204,1.9325 2.156,4.0471 c 0.869,1.9045 2.311,3.2349 3.235,5.1955 q 2.003,4.2011 6.4,12.9256 5.924,11.7352 11.147,27.3636 -0.742,0.154 -1.372,-0.07 -0.56,-0.1821 -0.616,-0.7702 -0.01,-0.3221 -0.168,-0.6302 -0.126,-0.2381 -0.112,0.042 0.01,0.1821 -0.112,0.3501 -0.1,0.112 -0.225,0.084 -2.912,-0.7282 -5.713,-2.4087 -2.493,-1.4844 -5.182,-2.8288 a 1.2603516,1.2883594 47.6 0 0 -1.092,-0.042 q -0.728,0.2941 -1.47,-0.056 -2.479,-1.1763 -4.832,-2.1426 c -1.596,-0.6441 -3.291,-0.6162 -4.915,-1.3023 q -1.022,-0.4342 0.08,-0.4202 0.966,0 1.708,-0.5461 1.331,-0.9803 -0.322,-0.9803 -2.913,-0.014 -6.147,0 -3.039,0.014 -6.064,-0.6161 -8.935,-1.8346 -17.855,-3.5711 -0.658,-0.126 -1.092,0.3782 -0.322,0.3781 -0.771,0.5321 -0.462,0.1541 -0.378,-0.3081 0.04,-0.2661 0.252,-0.3641 1.051,-0.4761 -0.08,-0.7562 -4.705,-1.1203 -8.15,-0.5742 0.504,-11.9593 -0.224,-25.305 c -0.1,-1.8905 -0.658,-3.0809 -1.33,-4.8034 q 0.812,-0.294 0.658,-1.5404 -2.213,-17.7009 -6.456,-35.0377 -2.311,-9.4667 -5.966,-18.4852 -1.918,-7.5341 -5.853,-14.228 -2.115,-3.613 -0.224,-4.7753 z"
     id="path28"
     style="stroke-width:1.40039" />
  <path
     fill="#b2e47c"
     d="m -12575.044,-3348.9606 q 3.655,9.0185 5.966,18.4852 4.243,17.3368 6.456,35.0377 0.154,1.2464 -0.658,1.5405 -4.58,-4.5093 -10.587,-0.5322 -2.353,1.5544 -2.703,7.7582 -0.56,10.1388 -2.367,20.3056 -1.47,8.2623 -4.509,22.2663 -1.246,5.7415 -3.319,12.0573 -1.876,5.6996 -3.487,11.3712 -9.536,1.8625 -19.087,2.5627 -4.131,0.2941 -7.352,-1.1903 -3.977,-1.8625 -7.324,-4.6353 2.226,-5.2655 4.145,-10.3489 7.114,-18.8493 8.598,-24.3808 1.821,-6.7079 4.762,-24.5209 2.674,-16.1184 0.546,-35.934 -0.56,-5.2094 -2.171,-12.7155 -1.344,-6.2738 -2.647,-12.6596 0.841,2.0726 2.199,2.1426 0.63,0.042 0.854,-0.5461 0.701,-1.7505 2.619,-2.3807 3.193,-1.0643 5.574,-3.0528 0.518,-0.4341 1.19,-0.5182 c 1.961,-0.252 3.109,-1.6244 5.125,-1.9325 q 4.86,-0.7702 9.901,-0.5462 0.686,0.028 1.204,0.4902 0.631,0.5741 1.583,0.4201 0.56,-0.084 1.05,0.196 0.868,0.4902 1.387,-0.21 1.33,-1.8205 1.512,0.4341 0.126,1.6525 1.54,1.0363 z"
     id="path29"
     style="stroke-width:1.40039" />
  <path
     fill="#dbf593"
     d="m -12796.795,-3253.9161 q -38.805,14.0739 -76.574,30.9486 l -15.6,-5.0694 30.654,-14.6761 q 5.35,-2.7727 10.601,-5.0134 5.252,-2.2266 10.727,-4.6212 13.36,-5.8117 26.16,-11.4412 20.809,-9.1446 45.288,-19.5075 4.93,-2.0866 10.055,-4.4952 4.944,-2.3107 10.111,-4.3412 1.512,-0.5882 3.053,-1.2884 13.219,-5.9377 27.363,-11.9453 3.866,-1.6385 7.801,-3.417 c 4.607,-2.0726 9.452,-3.599 14.116,-5.6996 q 8.57,-3.8511 17.084,-0.098 5.742,2.5347 9.845,6.6939 1.723,1.7505 -0.476,2.8288 l -99.344,49.4618 q -0.546,0.266 -0.98,-0.1681 -14.956,-15.5723 -29.884,1.8485 z"
     id="path30"
     style="stroke-width:1.40039" />
  <path
     fill="#dbf593"
     d="m -12693.335,-3279.7113 q -0.252,-0.6022 -0.644,-0.7982 -0.266,-0.14 -0.546,0 -19.591,9.2706 -38.721,19.5354 c -10.433,5.5876 -20.95,10.559 -31.508,15.6704 q -0.743,-2.7027 2.072,-4.1591 33.792,-17.575 67.737,-34.8698 c 5.574,-2.8428 10.769,-5.9516 16.679,-8.0382 q 0.784,-0.2801 0.14,0.2381 z"
     id="path31"
     style="stroke-width:1.40039" />
  <path
     fill="#10b386"
     d="m -12693.335,-3279.7113 q -7.548,6.8899 -11.693,10.2509 -23.106,18.7792 -44.98,38.9728 -3.809,3.515 -11.189,11.5533 -16.217,17.6589 -18.906,42.5718 -8.304,-9.3406 -5.489,-20.1236 0.854,-3.2489 -1.009,-0.4621 c -2.128,3.1929 -4.719,5.6016 -6.497,9.1025 q -3.543,7.002 -4.776,12.0294 -6.105,25.095 7.59,45.5267 14.48,21.622 40.486,22.0701 13.373,0.2381 26.355,-6.7638 12.968,-7.002 21.72,-19.6755 15.46,-9.1446 28.946,-21.412 1.877,1.2884 4.706,0.8122 0.7,-0.126 1.274,0.3081 l 2.072,1.5685 q 0.547,0.4201 1.247,0.364 9.999,-0.7702 15.194,-2.1005 4.537,-1.1764 9.425,-1.1063 6.862,0.098 12.827,-0.6022 0.644,-0.084 0.854,0.5321 0.365,1.0643 1.051,1.9326 c -19.242,28.1198 -43.286,52.5846 -72.47,70.3976 q -14.649,8.9485 -30.781,14.41 l -6.092,-0.3081 q -0.784,-0.028 -1.554,0.1961 -1.331,0.4061 -2.563,-0.2521 -0.49,-0.252 -0.994,-0.042 c -1.583,0.6442 -3.487,-0.7282 -5.21,-0.8262 q -1.456,-0.084 -2.772,-0.6722 -2.339,-1.0363 -4.846,-0.9943 c -11.651,0.1681 -22.294,-0.7982 -33.147,-5.7276 q -19.633,-8.9204 -34.142,-27.1395 -6.777,-11.6093 -9.816,-26.2854 -5.7,-27.4756 1.904,-54.1671 c 1.667,-5.8536 4.37,-11.1051 6.848,-16.5246 q 0.854,-1.8765 2.227,-3.515 c 2.1,-2.5207 3.249,-5.5175 5.447,-7.9542 q 1.653,-1.8485 3.039,-3.8791 a 0.46212891,0.46212891 0 0 0 -0.364,-0.7282 l -39.239,-1.7645 q 2.829,-2.7027 7.296,-4.7193 13.654,-6.1757 43.748,-20.5437 3.291,12.2814 13.654,13.8218 6.722,1.0083 11.974,-2.5627 5.475,-3.725 7.226,-11.1611 c 10.558,-5.1114 21.075,-10.0828 31.508,-15.6704 q 19.13,-10.2648 38.721,-19.5354 0.28,-0.14 0.546,0 0.392,0.1961 0.644,0.7982 z"
     id="path32"
     style="stroke-width:1.40039" />
  <path
     fill="#fe6c85"
     d="m -12497.098,-3246.7881 q 3.613,9.8587 4.593,14.0179 c 2.241,9.5227 5,19.5495 6.414,28.568 q 4.944,31.3827 1.877,64.516 -37.027,-33.6654 -57.15,-51.6044 -11.021,-9.8308 -25.753,-21.2439 1.764,-9.4667 3.697,-20.0816 1.946,-10.629 1.694,-31.1727 3.445,-0.5462 8.15,0.5741 1.135,0.2801 0.08,0.7562 -0.21,0.098 -0.252,0.3641 -0.08,0.4622 0.378,0.3081 0.449,-0.154 0.771,-0.5321 0.434,-0.5042 1.092,-0.3781 8.92,1.7364 17.855,3.571 3.025,0.6301 6.064,0.6161 3.235,-0.014 6.147,0 1.653,0 0.322,0.9803 -0.742,0.5462 -1.708,0.5462 -1.106,-0.014 -0.08,0.4201 c 1.624,0.6862 3.319,0.6582 4.915,1.3023 q 2.353,0.9663 4.832,2.1426 0.742,0.3501 1.47,0.056 a 1.2603516,1.2883594 47.6 0 1 1.092,0.042 q 2.689,1.3444 5.182,2.8288 2.801,1.6805 5.713,2.4087 0.127,0.028 0.225,-0.084 0.126,-0.168 0.112,-0.3501 -0.01,-0.2801 0.112,-0.042 0.154,0.3081 0.168,0.6302 0.06,0.5881 0.616,0.7702 0.63,0.224 1.372,0.07 z"
     id="path33"
     style="stroke-width:1.40039" />
  <ellipse
     fill="#dbf593"
     cx="-12004.228"
     cy="-5459.3677"
     transform="rotate(-10.2)"
     rx="6.5538282"
     ry="6.2737498"
     id="ellipse33"
     style="fill:#ffb86c;fill-opacity:1;stroke-width:1.40039" />
  <path
     fill="#b2e47c"
     d="m -12796.795,-3253.9161 -0.813,8.5144 q -30.094,14.368 -43.748,20.5437 -4.467,2.0166 -7.296,4.7193 -11.231,-0.238 -24.717,-2.8288 37.769,-16.8747 76.574,-30.9486 z"
     id="path34"
     style="stroke-width:1.40039" />
  <path
     fill="#38c788"
     d="m -12917.985,-3231.0057 q 0.742,1.6805 2.899,2.5487 3.991,1.5965 6.707,0.7702 c 6.862,14.8442 17.869,26.6215 33.918,31.2567 q 7.842,2.2547 14.704,2.5067 0.728,0.028 0.784,0.7563 l 1.905,25.9492 q -3.039,2.1286 -8.333,1.1903 -0.7,-0.126 -1.316,0.2521 -1.386,0.8682 -2.913,1.1483 -4.733,0.8543 -12.827,0.3221 -4.51,-0.2941 -9.201,0.8823 -3.501,0.8822 -8.318,3.2769 -4.425,2.1986 -9.215,3.781 -1.624,-4.9014 -2.058,-8.5004 -0.869,-7.0999 -2.157,-13.9899 c -1.19,-6.4418 -7.38,-9.6486 -13.052,-5.9096 q -0.938,0.6162 -0.826,-0.5041 2.339,-23.7647 9.299,-45.7368 z"
     id="path35"
     style="stroke-width:1.40039" />
  <path
     fill="#38c788"
     d="m -12624.015,-3223.9337 q 3.347,2.7728 7.324,4.6353 3.221,1.4844 7.352,1.1903 9.551,-0.7002 19.087,-2.5627 -12.519,35.5139 -33.875,66.3085 -0.686,-0.8683 -1.051,-1.9326 -0.21,-0.6161 -0.854,-0.5321 -5.965,0.7002 -12.827,0.6022 -4.888,-0.07 -9.425,1.1063 -5.195,1.3303 -15.194,2.1005 -0.7,0.056 -1.247,-0.364 l -2.072,-1.5685 q -0.574,-0.4341 -1.274,-0.3081 -2.829,0.4762 -4.706,-0.8122 18.499,-17.3928 27.322,-31.1587 3.151,-4.9154 4.215,-6.4698 9.985,-14.536 17.225,-30.2344 z"
     id="path36"
     style="stroke-width:1.40039" />
  <path
     fill="#e13586"
     d="m -12567.117,-3212.5345 q 14.732,11.4131 25.753,21.2439 20.123,17.939 57.15,51.6044 l -3.487,24.6609 q -3.095,-3.543 -10.769,-5.3776 -4.565,-1.0923 -11.049,-3.1928 -2.647,-0.8543 -4.916,-2.2267 c -3.921,-2.3806 -7.674,-4.6353 -11.819,-6.7639 q -7.38,-3.781 -13.5,-8.1362 -7.296,-5.1815 -17.351,-13.2477 -0.672,-0.5322 -1.526,-0.4481 -0.896,0.084 -1.316,-0.6302 -0.322,-0.5462 -0.897,-0.8122 l -4.201,-1.8486 q -0.672,-0.294 -0.966,-0.9662 -0.854,-1.9746 -3.417,-2.4227 -0.7,-0.126 -1.008,-0.7982 -0.294,-0.6862 -1.065,-0.6862 -2.954,0.014 -5.923,0 -0.56,0 -1.078,0.196 -0.603,0.2381 -0.995,-0.266 -0.616,-0.8123 -1.26,-0.014 -0.504,0.6441 -1.331,0.7842 a 0.93826172,0.93826172 0 0 0 -0.63,1.4284 q 0.841,1.3444 1.135,2.6327 -1.079,-1.0643 -2.647,-1.2323 -0.112,-1.0783 0.1,-1.5825 2.899,-7.0859 5.798,-14.1859 1.946,-4.7474 3.402,-9.6627 c 1.877,-6.3998 4.104,-12.6315 5.602,-19.1434 q 0.98,-4.2431 2.213,-8.9064 z"
     id="path37"
     style="stroke-width:1.40039" />
  <path
     fill="#dbf593"
     d="m -12780.103,-3176.3625 q -0.154,10.433 1.261,18.1631 1.274,6.988 6.455,14.6201 8.907,13.1216 23.793,16.7767 5.98,1.4704 13.43,1.1903 17.589,-0.6582 33.441,-9.0465 -8.752,12.6735 -21.72,19.6755 -12.982,7.0019 -26.355,6.7638 -26.006,-0.4481 -40.486,-22.0701 -13.695,-20.4317 -7.59,-45.5267 1.233,-5.0274 4.776,-12.0294 c 1.778,-3.5009 4.369,-5.9096 6.497,-9.1025 q 1.863,-2.7868 1.009,0.4621 -2.815,10.783 5.489,20.1236 z"
     id="path38"
     style="stroke-width:1.40039" />
  <path
     fill="#0f9e7e"
     d="m -12857.068,-3167.2179 q 1.778,23.1344 8.262,47.1792 2.563,9.4946 5.518,16.6926 l -1.219,1.1203 q -0.518,0.4622 -0.686,-0.196 -0.07,-0.2661 -0.322,-0.3781 -0.742,-0.3221 -0.882,0.4761 -0.08,0.4901 -0.42,0.7982 -0.238,0.2101 -0.546,0.3081 -7.1,2.5067 -14.985,4.3692 -2.674,0.6302 -5.979,2.8008 a 1.9885547,2.0165625 32.3 0 1 -1.373,0.3221 q -1.232,-0.154 -1.484,0.8822 -0.112,0.4762 -0.588,0.3922 -2.493,-0.4902 -4.678,0.3921 -0.588,0.238 -0.378,-0.3642 0.112,-0.294 -0.182,-0.3921 -0.308,-0.112 -0.574,0.084 -0.308,0.2521 -0.798,0.7983 -22.21,-28.3719 -30.809,-64.432 4.79,-1.5824 9.215,-3.7811 4.817,-2.3946 8.318,-3.2769 4.691,-1.1763 9.201,-0.8822 8.094,0.5321 12.827,-0.3221 1.527,-0.2801 2.913,-1.1483 0.616,-0.3781 1.316,-0.2521 5.294,0.9383 8.333,-1.1903 z"
     id="path39"
     style="stroke-width:1.40039" />
  <path
     fill="#fb3b8a"
     d="m -12487.701,-3115.0253 q -2.689,9.4666 -4.327,17.7569 -1.919,9.6907 -11.638,33.9175 a 0.60216797,0.63017578 15.1 0 1 -0.658,0.3921 q -0.168,-0.028 -0.378,-0.098 -1.134,-3.2209 -2.773,-6.2878 c -18.121,-33.8614 -44.602,-64.1099 -74.108,-88.4767 q -0.294,-1.2883 -1.135,-2.6327 a 0.93826172,0.93826172 0 0 1 0.63,-1.4284 q 0.827,-0.14 1.331,-0.7842 0.644,-0.7982 1.26,0.014 0.392,0.5041 0.995,0.2661 0.518,-0.1961 1.078,-0.1961 2.969,0.014 5.923,0 0.771,0 1.065,0.6862 0.308,0.6722 1.008,0.7982 2.563,0.4481 3.417,2.4227 0.294,0.6722 0.966,0.9663 l 4.201,1.8485 q 0.575,0.2661 0.897,0.8122 0.42,0.7142 1.316,0.6302 0.854,-0.084 1.526,0.4481 10.055,8.0663 17.351,13.2477 6.12,4.3552 13.5,8.1363 c 4.145,2.1286 7.898,4.3832 11.819,6.7639 q 2.269,1.3723 4.916,2.2266 6.484,2.1006 11.049,3.1929 7.674,1.8345 10.769,5.3775 z"
     id="path40"
     style="stroke-width:1.40039" />
  <path
     fill="#682b75"
     d="m -12584.23,-3159.0536 q 1.568,0.168 2.647,1.2323 c 29.506,24.3668 55.987,54.6153 74.108,88.4767 q 1.639,3.0668 2.773,6.2878 -0.224,0.056 -0.406,0.154 -0.154,0.084 -0.266,0.3081 -5.602,10.853 -10.741,21.9161 -2.689,5.7696 -13.85,20.6558 -4.551,-5.4616 -12.099,-9.2426 -2.563,-1.2884 -4.664,-2.7308 -2.464,-1.7085 -5.349,-3.0108 -0.518,-0.2381 -0.588,0.3361 -0.01,0.196 0.07,0.3781 0.546,1.1483 -0.574,0.5741 -6.624,-3.2909 -12.562,-6.4698 -5.027,-2.6887 -10.195,-5.0414 -5.237,-2.3806 -10.097,-5.3075 -0.756,-0.4481 -1.414,-1.0363 -0.658,-0.5741 -1.484,-0.8682 -4.608,-1.6664 -9.145,-3.1369 -1.288,-0.4201 -2.395,-1.2323 -1.204,-0.8823 -2.576,-1.0923 -1.891,-0.2941 -3.627,-0.9663 -3.459,-1.3584 -7.086,-2.5347 -0.701,-0.224 -1.023,-0.8682 -0.364,-0.7142 -1.134,-0.7983 -0.56,-0.07 -1.106,-0.266 -8.851,-3.2769 -18.303,-5.0554 -5.308,-0.9943 -10.797,-2.2687 -0.757,-0.182 -1.135,-0.8682 -0.1,-0.1541 -0.126,-0.3361 -0.224,-1.0643 -1.162,-0.5182 -0.504,0.2941 -1.106,0.3642 12.099,-11.1472 15.138,-14.256 29.1,-29.7863 47.781,-69.0533 c 0.644,-1.3584 1.639,-2.4927 2.493,-3.725 z"
     id="path41"
     style="stroke-width:1.40039" />
  <path
     fill="#fb3b8a"
     d="m -12886.028,-3074.1339 q -15.054,-6.5679 -27.028,-18.6252 -1.232,-1.2604 -5.713,-6.6659 -2.717,-3.3049 -5.98,-6.4278 -1.863,-5.6996 -2.129,-12.0153 -0.06,-1.3864 0.588,-0.1541 c 1.219,2.3807 2.409,4.7893 4.02,6.96 q 7.114,9.6066 12.603,15.6143 9.901,10.839 23.569,18.6252 0.644,0.3641 0.994,1.0503 0.602,1.1483 -0.924,1.6385 z"
     id="path42"
     style="stroke-width:1.40039" />
  <path
     fill="#7b2e85"
     d="m -12924.749,-3105.8528 q 3.263,3.1229 5.98,6.4278 4.481,5.4055 5.713,6.6659 11.974,12.0573 27.028,18.6252 -4.019,11.5112 5.097,20.0676 17.421,16.3705 42.95,24.5768 c 3.543,1.1343 9.061,3.1369 14.27,4.3132 q 16.441,3.7391 29.982,4.6633 1.233,1.8485 3.852,2.3667 0.546,0.112 0.294,-0.3781 -0.112,-0.2381 0.602,-0.3641 0.42,-0.084 0.812,0.056 3.473,1.2043 6.988,1.2043 0.938,0 0.574,0.8682 -0.126,0.3081 -0.112,0.6302 a 0.68619141,0.68619141 0 0 0 0.602,0.6442 q 0.84,0.112 1.135,0.8962 a 0.71419922,0.70019531 57 0 0 1.162,0.2521 l 0.35,-0.3501 q 0.56,-0.5461 1.316,-0.3361 4.033,1.1483 7.534,2.3387 0.267,0.098 0.197,0.3641 -0.01,0.07 -0.08,0.098 -0.841,0.2661 0,0.5461 4.985,1.7085 9.956,3.361 16.189,5.4055 30.921,12.0153 a 46.969102,24.464824 17.6 0 0 6.106,2.4787 q 3.613,1.3304 7.016,3.613 3.137,2.1146 6.526,3.9911 5.783,3.2209 11.609,6.2038 6.89,3.529 11.567,6.2457 6.106,3.543 12.183,7.1 1.065,0.6162 7.408,4.8594 2.997,2.0165 7.563,4.6352 7.072,4.0752 15.894,13.5558 -9.215,3.333 -14.242,4.3132 -4.999,0.9663 -10.167,2.4507 -11.889,3.403 -24.017,4.8734 -1.316,0.154 -2.352,-0.6862 -8.515,-7.002 -16.371,-12.3375 -6.189,-4.2011 -13.205,-8.1923 -19.676,-11.1891 -40.668,-18.8352 -6.61,-2.4087 -12.099,-3.739 c -5.49,-1.3304 -10.895,-3.2209 -16.357,-4.2992 q -27.461,-5.4055 -54.797,-3.333 a 3.3469336,3.3329296 64.6 0 1 -2.605,-0.9382 q -8.164,-8.0103 -16.986,-17.3369 -2.325,-2.4507 -4.3,-5.0694 c -1.82,-2.4367 -4.215,-4.3132 -6.105,-6.6518 q -16.497,-20.2777 -25.18,-34.8417 c -3.851,-6.4418 -7.702,-13.2897 -10.699,-20.2077 q -2.982,-6.8899 -6.189,-13.9338 -3.193,-7.002 -6.652,-23.4706 z"
     id="path43"
     style="stroke-width:1.40039" />
  <path
     fill="#0c6a6c"
     d="m -12818.698,-3105.3206 q 14.509,18.219 34.142,27.1395 c 10.853,4.9294 21.496,5.8957 33.147,5.7276 q 2.507,-0.042 4.846,0.9943 1.316,0.5882 2.772,0.6722 c 1.723,0.098 3.627,1.4704 5.21,0.8262 q 0.504,-0.21 0.994,0.042 1.232,0.6582 2.563,0.2521 0.77,-0.2241 1.554,-0.1961 l 6.092,0.3081 q -21.174,7.8002 -44.168,5.9377 -8.403,-0.6722 -15.251,-4.5093 -10.236,-5.7416 -16.678,-12.8976 -2.969,-3.3049 -5.952,-7.0439 -2.717,-3.431 -4.677,-7.4641 -2.227,-4.5793 -4.594,-9.7888 z"
     id="path44"
     style="stroke-width:1.40039" />
  <path
     fill="#0c6a6c"
     d="m -12843.288,-3103.3461 q 5.671,14.466 9.872,20.7678 3.655,5.4615 7.002,11.1331 1.121,1.9045 2.451,3.361 c 1.484,1.6104 3.123,3.2068 3.767,5.3494 q 0.602,2.0026 -1.456,1.6805 -8.599,-1.3024 -18.149,-3.9911 -17.407,-4.9014 -30.011,-17.3368 -4.593,-4.5373 -8.57,-9.5507 0.49,-0.5462 0.798,-0.7982 0.266,-0.1961 0.574,-0.084 0.294,0.098 0.182,0.3921 -0.21,0.6021 0.378,0.3641 2.185,-0.8823 4.678,-0.3921 0.476,0.084 0.588,-0.3921 0.252,-1.0363 1.484,-0.8823 a 1.9885547,2.0165625 32.3 0 0 1.373,-0.3221 q 3.305,-2.1706 5.979,-2.8008 7.885,-1.8625 14.985,-4.3692 0.308,-0.098 0.546,-0.3081 0.336,-0.3081 0.42,-0.7982 0.14,-0.7982 0.882,-0.4761 0.252,0.112 0.322,0.3781 0.168,0.6582 0.686,0.196 z"
     id="path45"
     style="stroke-width:1.40039" />
  <path
     fill="#7b2e85"
     d="m -12529.965,-3020.0228 q -9.018,12.7995 -12.309,15.8244 -3.683,3.3749 -6.918,8.0382 -1.149,1.6665 -3.137,2.6327 a 1.9605469,1.9885547 51.1 0 1 -2.045,-0.21 q -3.389,-2.5347 -6.526,-5.5176 -2.884,-2.7587 -6.371,-5.3775 -14.522,-10.951 -25.011,-17.1827 -6.442,-3.8231 -13.808,-7.2261 -0.588,-0.28 -1.177,-0.28 a 0.57416016,0.58816406 77.9 0 0 -0.532,0.8122 q 4.117,9.7467 8.193,18.4151 2.562,5.4475 5.307,16.3566 l -22.042,-6.2458 a 2.8708008,2.7587696 75.3 0 1 -1.26,-0.7702 q -0.687,-0.7562 -1.639,-0.9522 -0.658,-0.1261 -1.246,-0.4482 -3.795,-2.0725 -7.786,-3.879 -11.806,-5.3775 -22.911,-9.2846 -1.036,-0.3501 -1.918,-0.8963 -1.023,-0.6162 -2.115,-0.4341 -0.798,0.14 -1.134,-0.5882 -0.294,-0.6021 -1.023,-0.5181 -0.854,0.098 -0.952,0.9523 -0.03,0.266 -0.168,0.4761 -0.08,0.126 -0.21,0.224 -0.56,0.4202 -0.784,0.084 -0.224,-0.336 -0.574,-0.14 -0.546,0.3081 -0.224,1.1343 -15.391,-14.6341 -32.097,-27.6017 22.938,-12.5615 42.74,-29.3942 0.602,-0.07 1.106,-0.3641 0.938,-0.5461 1.162,0.5182 0.03,0.182 0.126,0.3361 0.378,0.6862 1.135,0.8682 5.489,1.2744 10.797,2.2686 9.452,1.7785 18.303,5.0554 0.546,0.1961 1.106,0.2661 0.77,0.084 1.134,0.7982 0.322,0.6442 1.023,0.8683 3.627,1.1763 7.086,2.5347 1.736,0.6722 3.627,0.9663 1.372,0.21 2.576,1.0923 1.107,0.8122 2.395,1.2323 4.537,1.4704 9.145,3.1369 0.826,0.2941 1.484,0.8682 0.658,0.5882 1.414,1.0363 4.86,2.9268 10.097,5.3075 5.168,2.3526 10.195,5.0414 5.938,3.1789 12.562,6.4698 1.12,0.5742 0.574,-0.5742 -0.08,-0.182 -0.07,-0.3781 0.07,-0.5741 0.588,-0.3361 2.885,1.3024 5.349,3.0109 2.101,1.4424 4.664,2.7307 7.548,3.7811 12.099,9.2426 z"
     id="path46"
     style="stroke-width:1.40039" />
  <path
     fill="#572864"
     d="m -12692.382,-3042.6252 q 16.706,12.9677 32.097,27.6017 27.041,24.829 48.775,54.7133 -2.674,0.7002 -3.011,2.4227 -0.08,0.4481 -0.294,0.8682 l -1.344,2.6188 a 1.6944727,1.7925 1.6 0 1 -0.77,0.7702 c -1.989,1.0083 -3.557,2.3526 -5.672,3.1929 q -10.391,4.1871 -19.157,6.8199 -8.823,-9.4807 -15.895,-13.5558 -4.565,-2.6187 -7.562,-4.6353 -6.343,-4.2432 -7.408,-4.8594 -6.077,-3.557 -12.183,-7.0999 -4.677,-2.7168 -11.567,-6.2458 -5.826,-2.9828 -11.61,-6.2037 -3.389,-1.8765 -6.525,-3.9911 -3.403,-2.2827 -7.016,-3.613 a 46.969102,24.464824 17.6 0 1 -6.106,-2.4787 q -14.732,-6.6099 -30.921,-12.0154 -4.971,-1.6524 -9.956,-3.3609 -0.841,-0.2801 0,-0.5462 0.07,-0.028 0.08,-0.098 0.07,-0.266 -0.196,-0.3641 -3.501,-1.1903 -7.534,-2.3386 -0.756,-0.2101 -1.316,0.3361 l -0.35,0.3501 a 0.71419922,0.70019531 57 0 1 -1.163,-0.2521 q -0.294,-0.7842 -1.134,-0.8962 a 0.68619141,0.68619141 0 0 1 -0.602,-0.6442 q -0.01,-0.3221 0.112,-0.6302 0.364,-0.8682 -0.574,-0.8682 -3.515,0 -6.988,-1.2044 -0.392,-0.14 -0.812,-0.056 -0.715,0.126 -0.602,0.3641 0.252,0.4902 -0.295,0.3781 -2.618,-0.5181 -3.851,-2.3666 14.13,1.5124 21.132,0.6721 c 7.982,-0.9522 16.189,-1.4143 24.045,-3.2348 q 4.985,-1.1484 9.831,-2.1426 5.377,-1.1064 10.657,-3.0249 c 4.761,-1.7365 9.48,-3.0108 14.2,-5.0414 q 10.783,-4.6353 21.482,-9.3406 z"
     id="path47"
     style="stroke-width:1.40039" />
  <path
     fill="#a1389e"
     d="m -12594.299,-2993.7375 q 2.283,5.9236 2.731,7.7722 2.633,10.951 5.503,27.5876 c 0.757,4.3693 -2.184,10.4049 -7.114,11.2172 -5.111,0.8402 -7.884,-0.5042 -11.245,-4.5233 q -3.613,-4.3272 -7.086,-8.6264 -21.734,-29.8843 -48.775,-54.7133 -0.322,-0.8262 0.224,-1.1343 0.35,-0.196 0.574,0.1401 0.224,0.3361 0.784,-0.084 0.126,-0.098 0.21,-0.2241 0.14,-0.2101 0.168,-0.4761 0.1,-0.8543 0.952,-0.9523 0.729,-0.084 1.023,0.5181 0.336,0.7283 1.134,0.5882 1.092,-0.182 2.115,0.4341 0.882,0.5462 1.918,0.8963 11.105,3.9071 22.911,9.2846 3.991,1.8065 7.786,3.8791 0.588,0.322 1.246,0.4481 0.952,0.196 1.639,0.9522 a 2.8708008,2.7587696 75.3 0 0 1.26,0.7703 z"
     id="path48"
     style="stroke-width:1.40039" />
  <ellipse
     style="fill:#ffb86c;fill-opacity:1;stroke-width:0"
     id="path49"
     cx="-12778.377"
     cy="-3247.7249"
     rx="0.93419999"
     ry="3.5313983" />
</svg>
