<?xml version="1.0" encoding="UTF-8" standalone="no"?>
<svg
   role="img"
   viewBox="0 0 24 24"
   version="1.1"
   id="svg1"
   sodipodi:docname="hulu.svg"
   inkscape:version="1.3.2 (091e20e, 2023-11-25, custom)"
   xmlns:inkscape="http://www.inkscape.org/namespaces/inkscape"
   xmlns:sodipodi="http://sodipodi.sourceforge.net/DTD/sodipodi-0.dtd"
   xmlns="http://www.w3.org/2000/svg"
   xmlns:svg="http://www.w3.org/2000/svg">
  <defs
     id="defs1" />
  <sodipodi:namedview
     id="namedview1"
     pagecolor="#ffffff"
     bordercolor="#000000"
     borderopacity="0.25"
     inkscape:showpageshadow="2"
     inkscape:pageopacity="0.0"
     inkscape:pagecheckerboard="0"
     inkscape:deskcolor="#d1d1d1"
     inkscape:zoom="55.541667"
     inkscape:cx="11.990998"
     inkscape:cy="12"
     inkscape:window-width="3840"
     inkscape:window-height="1529"
     inkscape:window-x="1432"
     inkscape:window-y="355"
     inkscape:window-maximized="1"
     inkscape:current-layer="svg1" />
  <title
     id="title1">Hulu</title>
  <path
     d="M14.707 15.957h1.912V8.043h-1.912zm-3.357-2.256a.517.517 0 01-.512.511H9.727a.517.517 0 01-.512-.511v-3.19H7.303v3.345c0 1.368.879 2.09 2.168 2.09h1.868c1.189 0 1.912-.856 1.912-2.09V10.51h-1.912c.01 0 .01 3.09.01 3.19zm10.75-3.19v3.19a.517.517 0 01-.512.511h-1.112a.517.517 0 01-.511-.511v-3.19h-1.912v3.345c0 1.368.878 2.09 2.167 2.09h1.868c1.19 0 1.912-.856 1.912-2.09V10.51zm-18.32 0H2.557c-.434 0-.645.11-.645.11V8.044H0v7.903h1.9v-3.179c0-.278.234-.511.512-.511h1.112c.278 0 .511.233.511.511v3.19h1.912v-3.446c0-1.445-.967-2-2.167-2Z"
     id="path1"
     style="fill:#50fa7b;fill-opacity:1.0" />
</svg>
