<?xml version="1.0" encoding="UTF-8" standalone="no"?>
<!-- Uploaded to: SVG Repo, www.svgrepo.com, Generator: SVG Repo Mixer Tools -->

<svg
   width="800"
   height="800"
   viewBox="0 0 24 24"
   version="1.1"
   id="svg1"
   xmlns="http://www.w3.org/2000/svg"
   xmlns:svg="http://www.w3.org/2000/svg">
  <defs
     id="defs1" />
  <path
     fill="#FF4500"
     fill-rule="evenodd"
     d="m 15.57,15.284 c -0.897,0 -1.65075,-0.7275 -1.65075,-1.6245 0,-0.897 0.75375,-1.6485 1.65075,-1.6485 0.897,0 1.6245,0.7515 1.6245,1.6485 0,0.897 -0.7275,1.6245 -1.6245,1.6245 m 0.381,3.153 c -0.8355,0.83475 -2.124,1.2405 -3.939,1.2405 -0.0038,0 -0.0083,-7.5e-4 -0.01275,-7.5e-4 -0.0038,0 -0.0083,7.5e-4 -0.01275,7.5e-4 -1.815,0 -3.10275,-0.40575 -3.9375,-1.2405 -0.2565,-0.2565 -0.2565,-0.67125 0,-0.927 0.25575,-0.25575 0.6705,-0.25575 0.927,0 0.576,0.576 1.56075,0.8565 3.0105,0.8565 0.0045,0 0.009,7.5e-4 0.01275,7.5e-4 0.0045,0 0.009,-7.5e-4 0.01275,-7.5e-4 1.44975,0 2.43525,-0.2805 3.012,-0.8565 0.2565,-0.2565 0.67125,-0.25575 0.927,0 0.25575,0.2565 0.25575,0.67125 0,0.927 M 6.8055,13.6595 c 0,-0.89625 0.75225,-1.6485 1.6485,-1.6485 0.897,0 1.6245,0.75225 1.6245,1.6485 0,0.897 -0.7275,1.6245 -1.6245,1.6245 -0.89625,0 -1.6485,-0.7275 -1.6485,-1.6245 M 19.998,3.311 c 0.6075,0 1.10175,0.49425 1.10175,1.101 0,0.6075 -0.49425,1.10175 -1.10175,1.10175 -0.6075,0 -1.10175,-0.49425 -1.10175,-1.10175 0,-0.60675 0.49425,-1.101 1.10175,-1.101 M 24,11.87525 c 0,-1.59075 -1.29375,-2.8845 -2.8845,-2.8845 -0.6885,0 -1.32075,0.243 -1.81725,0.64725 C 17.5395,8.5325 15.3075,7.8665 12.915,7.7255 l 1.248,-3.94575 3.42975,0.80775 c 0.09,1.24875 1.134,2.23725 2.40525,2.23725 1.32975,0 2.412,-1.08225 2.412,-2.41275 C 22.41,3.08225 21.32775,2 19.998,2 19.068,2 18.2595,2.5295 17.85675,3.30275 L 13.87125,2.3645 C 13.5375,2.28575 13.2,2.47775 13.0965,2.80475 L 11.547,7.70225 C 8.96925,7.76525 6.546,8.4335 4.65825,9.6035 4.1685,9.22025 3.55275,8.99075 2.8845,8.99075 1.29375,8.99075 0,10.2845 0,11.87525 c 0,0.98325 0.495,1.8525 1.24875,2.373 -0.0315,0.22875 -0.048,0.459 -0.048,0.69225 0,1.98825 1.15575,3.83775 3.25425,5.20725 2.0115,1.31325 4.674,2.03625 7.49625,2.03625 2.82225,0 5.48475,-0.723 7.49625,-2.03625 2.0985,-1.3695 3.25425,-3.219 3.25425,-5.20725 0,-0.21225 -0.01425,-0.423 -0.0405,-0.63225 C 23.46525,13.796 24,12.89675 24,11.87525"
     id="path1"
     style="fill:#ffb86c;fill-opacity:1" />
</svg>
