<?xml version="1.0" encoding="UTF-8" standalone="no"?>
<svg
   version="1.1"
   viewBox="0 0 400 384"
   id="svg34"
   sodipodi:docname="nexusmods.svg"
   inkscape:version="1.3.2 (091e20e, 2023-11-25, custom)"
   width="400"
   height="384"
   xmlns:inkscape="http://www.inkscape.org/namespaces/inkscape"
   xmlns:sodipodi="http://sodipodi.sourceforge.net/DTD/sodipodi-0.dtd"
   xmlns="http://www.w3.org/2000/svg"
   xmlns:svg="http://www.w3.org/2000/svg">
  <defs
     id="defs34" />
  <sodipodi:namedview
     id="namedview34"
     pagecolor="#ffffff"
     bordercolor="#000000"
     borderopacity="0.25"
     inkscape:showpageshadow="2"
     inkscape:pageopacity="0.0"
     inkscape:pagecheckerboard="0"
     inkscape:deskcolor="#d1d1d1"
     inkscape:zoom="1.227309"
     inkscape:cx="106.33019"
     inkscape:cy="284.76935"
     inkscape:window-width="2913"
     inkscape:window-height="1237"
     inkscape:window-x="1777"
     inkscape:window-y="605"
     inkscape:window-maximized="0"
     inkscape:current-layer="svg34" />
  <g
     stroke-width="2"
     fill="none"
     stroke-linecap="butt"
     id="g24"
     transform="matrix(1.0974055,0,0,1.0974055,-157.53143,-17.527931)">
    <path
       stroke="#8f622a"
       vector-effect="non-scaling-stroke"
       d="m 367.03,70.91 q -6.44,-2.08 -12.8,-3.78 c -3.75,-0.99 -7.39,-1.28 -11.11,-2.09 q -4.04,-0.88 -8.37,-1 -15.48,-0.44 -21.03,0.17 -20.14,2.22 -36.7,8.81 -3.29,1.31 -13.41,6.35"
       id="path1" />
    <path
       stroke="#61462c"
       vector-effect="non-scaling-stroke"
       d="M 263.61,79.37 Q 251.39,73.53 242.24,71.26 228.86,67.96 214.8,69.97"
       id="path2" />
    <path
       stroke="#918f90"
       vector-effect="non-scaling-stroke"
       d="M 214.8,69.97 Q 201.16,84 191.26,99.22 q -4.48,6.89 -7.49,14.54 -1.04,2.66 -0.38,4.89 c 3.84,12.98 11.63,23.95 20.21,34.52"
       id="path3" />
    <path
       stroke="#8f622a"
       vector-effect="non-scaling-stroke"
       d="m 203.6,153.17 q -2.9,7.12 -3.66,14.55 c -0.36,3.5 -1.5,6.79 -1.72,10.09 q -0.82,12.46 -0.12,26.04 c 0.22,4.25 1.38,8.28 1.95,12.46 1.27,9.33 4.66,18.68 8.68,27.24 q 0.67,1.43 1.23,2.93 0.57,1.55 1.19,2.81"
       id="path4" />
    <path
       stroke="#61462c"
       vector-effect="non-scaling-stroke"
       d="m 211.15,249.29 q -5.03,10.19 -8.52,20.56 c -2.2,6.53 -2.72,12.11 -3.4,19.15 q -0.75,7.83 0.94,13.77"
       id="path5" />
    <path
       stroke="#918f90"
       vector-effect="non-scaling-stroke"
       d="m 200.17,302.77 q 7.12,7.32 17.77,15.53 11.06,8.54 21.46,13.67 4.5,2.22 7.11,2.22 2.79,0 7.87,-2.21 16.43,-7.14 29.76,-19.43"
       id="path6" />
    <path
       stroke="#8f622a"
       vector-effect="non-scaling-stroke"
       d="m 284.14,312.55 q 15.61,4.63 20.28,5.07 8.65,0.82 17.1,1.57 4.35,0.38 7.49,0.1 5.44,-0.5 11.12,-1.05 5.45,-0.54 11.06,-1.77 10.82,-2.38 15.72,-4.03 4.22,-1.42 16.75,-7.17"
       id="path7" />
    <path
       stroke="#61462c"
       vector-effect="non-scaling-stroke"
       d="m 383.66,305.27 q 12.4,6.43 25.42,9.5 c 5.79,1.37 11.86,1.68 17.92,1.95 q 4.51,0.21 8.13,-1.19"
       id="path8" />
    <path
       stroke="#918f90"
       vector-effect="non-scaling-stroke"
       d="m 435.13,315.53 q 4.59,-4.07 8.25,-8.39 c 9.4,-11.08 18.5,-22.87 23.35,-36.64 0.41,-1.15 0.22,-2.29 -0.16,-3.42 Q 459.91,247.8 446.2,232.8"
       id="path9" />
    <path
       stroke="#8f622a"
       vector-effect="non-scaling-stroke"
       d="m 446.2,232.8 q 4.44,-15.15 5.55,-23.8 1.45,-11.18 0.66,-26.47 -0.39,-7.7 -1.98,-15.52 -2.18,-10.77 -3.97,-16.27 -2.06,-6.32 -7.43,-17.25"
       id="path10" />
    <path
       stroke="#61462c"
       vector-effect="non-scaling-stroke"
       d="m 439.03,133.49 q 8.3,-16.5 10.67,-31.74 1.37,-8.85 -0.2,-18.97"
       id="path11" />
    <path
       stroke="#918f90"
       vector-effect="non-scaling-stroke"
       d="m 449.5,82.78 q -4.5,-4.9 -8.62,-8.4 -7.51,-6.39 -15.66,-12.32 C 419.36,57.8 413.53,54.68 406.91,51.93 q -4.26,-1.76 -6.81,-0.87 -18.53,6.5 -33.07,19.85"
       id="path12" />
    <path
       stroke="#ceb59a"
       vector-effect="non-scaling-stroke"
       d="m 449.5,82.78 q -9.84,-1.04 -16.52,1.42 -10.97,4.06 -21.51,12.97"
       id="path13" />
    <path
       stroke="#fcd198"
       vector-effect="non-scaling-stroke"
       d="m 411.47,97.17 q -23.67,19.81 -37.99,47.34 a 1.53,1.52 -61.7 0 0 0.61,2.04 l 14.16,7.89 a 0.64,0.64 0 0 1 -0.07,1.15 c -7.49,3.05 -15.12,5.61 -22.57,8.72 q -12.8,5.34 -26.45,10.28 -2.02,0.73 -4.15,1.35 a 0.89,0.89 0 0 1 -1.11,-0.63 q -7.37,-29 -15.13,-56.13 -0.69,-2.39 1.47,-1.15 5.83,3.33 11.55,5.8 1.34,0.58 1.94,-0.75 5.63,-12.56 11.78,-23.61 6.36,-11.44 16.66,-23.79 0.94,-1.13 4.86,-4.77"
       id="path14" />
    <path
       stroke="#cb8734"
       vector-effect="non-scaling-stroke"
       d="m 411.47,97.17 q 16.89,15.52 27.56,36.32"
       id="path15" />
    <path
       stroke="#fcd198"
       vector-effect="non-scaling-stroke"
       d="m 446.2,232.8 q -8.4,-8.5 -17.53,-14.47 -15.03,-9.84 -32.37,-17.42 -1.38,-0.6 -2.62,-1.56 -0.51,-0.4 -0.05,-0.85 l 0.45,-0.45 q 0.36,-0.36 0.53,-0.85 1.96,-5.5 5.26,-10.91 0.27,-0.45 0.12,-0.85 -0.22,-0.62 -0.86,-0.45 -21.47,5.82 -42.84,11.79 c -4.57,1.28 -9.03,2.02 -13.57,3.32 q -1.82,0.52 -1.13,2.28 l 20.45,52.61 a 0.51,0.5 -38.2 0 0 0.89,0.1 q 4.57,-6.65 7.52,-14.02 a 2.06,2.05 24.6 0 1 2.86,-1.06 q 26.49,13.79 46.58,37.02"
       id="path16" />
    <path
       stroke="#cb8734"
       vector-effect="non-scaling-stroke"
       d="m 419.89,277.03 q -11.05,12.22 -24.72,21.54 -1.87,1.27 -5.75,3.34 -2.81,1.49 -5.76,3.36"
       id="path17" />
    <path
       stroke="#fcd198"
       vector-effect="non-scaling-stroke"
       d="m 284.14,312.55 q 11.92,-12.98 19,-25.91 6.84,-12.48 12.68,-25.07 a 1.11,1.1 -65.6 0 1 1.45,-0.55 q 5.86,2.58 12.55,6.54 a 0.49,0.49 0 0 0 0.73,-0.48 q -0.27,-2.38 -0.95,-4.81 -5.15,-18.54 -10.67,-38.4 c -1.35,-4.85 -1.98,-9.78 -3.77,-14.51 a 1,1 0 0 0 -1.29,-0.59 q -15.15,5.66 -28.29,10.97 c -8.2,3.31 -16.51,6.06 -24.53,9.69 a 0.63,0.62 48.8 0 0 -0.07,1.1 q 7.04,4.41 14.47,7.69 a 1.23,1.22 25.8 0 1 0.59,1.69 q -13.87,26.42 -36.12,46.16"
       id="path18" />
    <path
       stroke="#cb8734"
       vector-effect="non-scaling-stroke"
       d="m 239.92,286.07 q -5.59,-4.02 -10.93,-10.58 C 223.47,268.7 219,263.14 215.06,256.08 q -1.87,-3.36 -3.91,-6.79"
       id="path19" />
    <path
       stroke="#fcd198"
       vector-effect="non-scaling-stroke"
       d="m 203.6,153.17 c 15.85,14.8 33.63,24.54 52.85,33.04 a 0.52,0.52 0 0 1 0.23,0.75 q -2.68,4.32 -4.67,9.19 -0.74,1.8 -2.07,3.52 a 0.62,0.62 0 0 0 0.61,0.99 c 1.86,-0.35 3.5,-1.1 5.37,-1.45 q 5.54,-1.04 12.33,-3.01 c 12.04,-3.48 24.41,-6.78 36.29,-9.95 q 1.79,-0.47 3.66,-0.82 a 0.72,0.71 -15.9 0 0 0.54,-0.96 l -20.55,-53.11 q -0.7,-1.81 -1.62,-0.11 l -7.65,14.17 a 1.24,1.22 -64 0 1 -1.57,0.55 c -5.02,-2.14 -8.76,-4.6 -14.1,-8.1 q -19.4,-12.71 -34.22,-30.51"
       id="path20" />
    <path
       stroke="#cb8734"
       vector-effect="non-scaling-stroke"
       d="m 229.03,107.36 q 0.77,-0.45 1.46,-1.47 0.61,-0.89 1.33,-1.65 8.13,-8.55 17.57,-15.58 3.07,-2.28 7.08,-4.75 3.5,-2.14 7.14,-4.54"
       id="path21" />
    <path
       stroke="#ceb59a"
       vector-effect="non-scaling-stroke"
       d="m 435.13,315.53 c -0.19,-7.03 0.17,-12.02 -3.12,-19.05 q -5.1,-10.92 -12.12,-19.45"
       id="path22" />
    <path
       stroke="#ceb59a"
       vector-effect="non-scaling-stroke"
       d="m 229.03,107.36 q -5.77,-7.19 -9.8,-15.35 -3.53,-7.14 -4.72,-15 -0.26,-1.73 -0.1,-3.5 0.15,-1.55 0.39,-3.54"
       id="path23" />
    <path
       stroke="#ceb59a"
       vector-effect="non-scaling-stroke"
       d="m 200.17,302.77 q 14.42,0.32 26.17,-6.9 7.1,-4.35 13.58,-9.8"
       id="path24" />
  </g>
  <path
     fill="#242021"
     d="m 161.83552,361.50495 q -2.43624,1.19617 -4.75177,2.77643 -2.38137,1.64611 -4.62007,3.02884 -4.88346,3.01787 -9.88763,5.73943 -6.73807,3.67631 -17.36095,7.04535 -1.56929,0.5048 -3.18248,0.63649 c -1.69,0.13169 -2.77643,0.87793 -4.52131,0.98767 q -7.26482,0.43896 -9.97541,-0.17559 -15.627061,-3.53364 -28.784951,-12.00562 -7.91229,-5.10293 -15.330754,-10.85334 -2.15092,-1.66805 -4.31281,-3.18247 -2.21676,-1.55832 -4.14819,-3.27027 -5.87112,-5.17975 -11.70932,-10.4912 c -0.86695,-0.77915 -1.75585,-1.15227 -2.535,-1.99727 -2.55696,-2.78741 -5.36632,-5.57482 -7.08924,-9.0097 q -2.69962,-5.33339 -4.03846,-9.18529 c -0.91084,-2.63377 -0.011,-5.83819 -0.92182,-8.47197 -1.10838,-3.19345 -0.57065,-8.45002 -0.55967,-11.83003 q 0.011,-2.90812 0.58162,-6.23326 0.5487,-3.22637 0.42799,-6.44177 -0.0878,-2.40332 0.86695,-4.87248 0.94377,-2.43624 1.24007,-4.80664 0.2963,-2.24968 0.98766,-4.55423 1.08643,-3.59949 1.97533,-7.24288 0.70234,-2.89715 1.79975,-5.48703 1.15227,-2.71059 1.87656,-5.68456 0.13169,-0.55967 -0.12071,-1.07545 -0.86695,-1.7778 -1.02059,-3.86287 -0.0439,-0.61455 -0.38409,-1.1413 -1.4376,-2.16189 -1.72293,-4.66398 -0.15364,-1.25104 -0.70234,-2.40331 c -0.61455,-1.26202 -0.2963,-2.56793 -0.77916,-3.87384 q -1.30591,-3.56657 -1.78877,-7.24288 -0.2963,-2.27163 -1.19617,-4.55423 -1.02059,-2.57891 -1.00961,-5.32242 0.022,-3.00689 -0.80111,-6.14547 -1.04253,-3.96163 -1.1852,-7.71476 -0.53772,-13.68465 -0.0878,-28.26917 0.17559,-5.71748 1.66806,-11.91782 c 0.61454,-2.54598 0.0658,-5.498 0.89987,-8.10983 q 0.72429,-2.24968 -0.99864,-4.62007 -0.52675,-0.72429 -0.99864,-1.4815 -2.93007,-4.74079 -6.11255,-9.76691 c -1.37175,-2.17286 -2.19481,-4.47742 -3.44585,-6.71612 q -0.71331,-1.28397 -1.24007,-2.72157 -1.76682,-4.85053 -3.59949,-9.67911 -0.55967,-1.49248 -0.65844,-2.95203 c -0.0878,-1.56928 -0.96572,-2.48013 -1.1852,-3.9726 -0.62552,-4.47741 -1.13033,-11.47886 0.72429,-15.74777 0.74623,-1.72292 0.34019,-3.544616 1.19617,-5.289491 1.1852,-2.392344 1.59124,-4.905403 2.89715,-7.188006 0.83403,-1.470524 0.85598,-2.853254 1.82169,-4.312804 1.39371,-2.117992 2.0302,-4.554233 3.50073,-6.672225 q 5.71748,-8.230541 11.77516,-16.812252 3.78605,-5.377287 8.43905,-10.611911 4.53228,-5.091962 8.70242,-9.942494 4.96028,-5.761379 9.33892,-8.7134 3.808,-2.556954 7.681844,-4.279881 3.70923,-1.635134 8.1647,-1.777797 16.55985,-0.504806 30.398131,0.373118 c 3.16053,0.208507 5.90404,1.766823 8.95483,1.931434 q 2.00825,0.10974 3.68728,1.064483 1.45955,0.823054 3.05079,1.119354 4.41157,0.823054 8.85606,2.381369 0.51578,0.186559 1.04254,0.01097 9.14138,-3.017865 17.83284,-6.321055 c 1.85461,-0.691366 4.15916,-0.131689 6.0467,-1.152276 3.14955,-1.711952 6.48567,-1.262016 9.81081,-2.359422 q 4.04942,-1.338834 7.85742,-1.393705 c 3.18247,-0.05487 6.02475,-1.613186 9.16333,-1.799745 q 16.80128,-1.009613 34.49146,0.06584 c 1.81072,0.109741 3.01786,1.196172 4.74079,1.294939 q 7.13314,0.384092 13.96997,2.43624 c 3.05079,0.899873 4.23599,-1.086431 6.78197,-2.139941 a 1.7119526,1.7009785 2.2 0 0 0.86695,-0.801106 l 0.17558,-0.318247 q 0.23046,-0.449936 0.73527,-0.537729 c 2.11799,-0.35117 3.11663,-1.843641 4.85053,-2.776436 q 3.38001,-1.810719 6.76002,-3.753127 1.79974,-1.042535 3.56656,-1.569289 c 1.71196,-0.515781 2.93008,-1.810719 4.58716,-2.063122 2.39234,-0.3621442 3.98358,-1.8326676 6.35398,-2.1728626 2.93007,-0.427989 5.25657,-2.096045 8.15372,-2.227734 q 6.45274,-0.296299 12.45555,0.09877 c 2.22773,0.142663 3.77508,1.722927 5.90404,1.953382 2.50209,0.2524027 4.11527,1.3937044 6.40885,2.1838364 q 5.92599,2.0302002 11.23743,5.5857932 1.4376,0.965717 3.13858,1.668057 1.1852,0.493832 2.13994,1.404679 0.9328,0.877924 2.20579,1.558316 2.46916,1.316886 4.63105,3.061761 1.58026,1.283964 3.44585,2.359422 c 2.88618,1.668056 5.01515,4.279881 7.95619,5.904041 1.62416,0.899873 2.53501,2.337474 4.12625,3.171502 q 0.52675,0.274352 0.70234,0.834028 0.16461,0.570651 0.74623,0.746236 0.57065,0.175585 1.00962,0.581625 2.20578,2.0302 4.20306,4.181115 1.32786,1.437601 3.00689,2.260655 0.42799,0.208507 0.71331,0.592599 0.6365,0.877925 1.51442,1.536368 5.95891,4.510337 9.81081,10.776522 c 0.8889,1.448575 1.13033,3.061761 2.29358,4.257933 a 2.3594218,2.3813699 17.4 0 1 0.63649,1.229094 c 0.64747,3.687283 2.3704,6.694174 2.48014,10.644834 0.24143,8.548788 0.60357,17.734072 -0.92182,26.217017 -1.15228,6.430795 -2.0741,12.718935 -4.21404,18.952195 q -1.84364,5.38826 -3.40196,11.19353 -0.15363,0.5926 0.17559,1.11936 0.23045,0.36214 0.31824,0.79013 0.91085,4.59813 2.6228,8.98775 0.81208,2.06312 1.29494,4.26891 c 0.52676,2.42526 1.61319,4.75176 1.88754,7.24287 0.14266,1.36079 0.16461,2.58988 0.72429,3.86287 1.77779,3.99456 1.37175,7.80255 2.33747,11.8849 0.6365,2.6667 1.32786,5.2456 1.36078,8.03301 q 0.0439,3.44585 0.51578,6.73807 0.60358,4.34573 0.6365,6.6832 0.0549,4.15917 0.0658,8.03301 0.011,2.535 -0.65844,7.4843 -0.48286,3.56657 -0.5926,7.44041 -0.0549,2.0302 -1.32786,6.99048 -0.81208,3.20442 -0.92182,5.71748 -0.12071,2.95202 -1.04253,5.32241 -0.18656,0.49384 -0.022,0.98767 0.60357,1.75585 1.63513,3.1715 1.03156,1.42663 1.98631,2.90813 1.79974,2.77643 3.39098,5.42118 5.48703,9.08652 8.32931,17.11952 0.58162,1.65709 1.18519,2.963 c 0.91085,1.95338 1.13033,3.1715 1.29494,5.15781 q 0.0988,1.16325 0.72429,2.15091 c 1.63513,2.58988 1.31689,6.26619 1.30591,9.29502 q -0.0219,4.71885 -1.7339,8.87802 c -0.58162,1.40467 -0.37312,2.76546 -0.98766,4.25793 q -1.63514,3.98358 -3.09469,7.80255 -1.21812,3.14956 -2.85325,6.01378 -1.70098,2.963 -3.45683,5.75041 -3.52267,5.5419 -7.47333,11.27035 -1.7339,2.50209 -3.58852,4.72982 c -1.75584,2.10702 -3.07273,4.42254 -4.82858,6.54054 q -5.34436,6.47469 -7.36359,8.51586 -3.13858,3.19345 -5.67359,6.31009 -3.22637,3.99455 -5.95891,5.98086 -3.25929,2.37039 -6.99047,4.37864 c -2.19481,1.1852 -4.92735,1.60222 -7.44041,2.54598 -3.42391,1.30592 -8.27444,0.40604 -12.27997,1.29494 q -3.30319,0.72429 -6.61735,0.12072 -3.34709,-0.61455 -6.71613,-0.66942 c -3.39098,-0.0658 -6.76001,-0.14266 -9.99736,-1.1413 q -3.19345,-0.98767 -6.52956,-1.21812 c -2.69962,-0.18656 -4.83956,-1.32786 -7.39651,-2.00825 q -1.56929,-0.41702 -3.02884,-1.00962 -4.29086,-1.75585 -9.14139,-2.56793 c -2.82033,-0.48285 -5.21268,0.61455 -7.8684,1.2291 q -1.97533,0.46091 -3.73118,1.38273 c -1.72292,0.89987 -3.52267,0.69136 -5.2456,1.53637 q -2.63377,1.28396 -5.62969,1.49247 c -3.27026,0.21948 -6.13449,1.87656 -9.50353,2.12896 q -2.80936,0.21949 -5.56384,1.10838 c -4.70787,1.51442 -9.70107,0.99864 -14.56257,1.55832 q -4.1482,0.47188 -7.93425,0.62552 -7.87937,0.32922 -14.83692,-0.0988 c -1.15227,-0.0768 -1.94241,-0.64746 -3.10566,-0.66941 q -4.6091,-0.12072 -8.99872,-0.40604 -3.61046,-0.24143 -7.0234,-1.25104 -2.27163,-0.6804 -4.30183,-0.71332 -1.95338,-0.0439 -3.6763,-0.63649 -0.43897,-0.14267 -0.85598,0.0549 z M 245.24931,60.289093 Q 238.18202,58.006489 231.20252,56.1409 c -4.11527,-1.086431 -8.10983,-1.404679 -12.19217,-2.293577 q -4.43352,-0.965717 -9.18529,-1.097406 -16.98784,-0.482858 -23.07844,0.186559 -22.10174,2.43624 -40.27478,9.668142 -3.61046,1.437602 -14.7162,6.968525 -13.4103,-6.408848 -23.45156,-8.899958 -14.683291,-3.621438 -30.112811,-1.415653 -14.968614,15.396599 -25.832924,32.09911 -4.91638,7.561124 -8.21957,15.956278 -1.1413,2.9191 -0.41701,5.36631 c 4.21403,14.24432 12.76282,26.28286 22.178564,37.88243 q -3.182474,7.81353 -4.016504,15.96725 c -0.39507,3.84092 -1.64611,7.45139 -1.88754,11.07282 q -0.89987,13.67368 -0.13169,28.57644 c 0.24143,4.66398 1.51442,9.08652 2.13994,13.67368 1.39371,10.23879 5.113914,20.49953 9.525484,29.89332 q 0.73526,1.56929 1.34981,3.2154 0.62552,1.70098 1.30591,3.08371 -5.51995,11.18256 -9.34989,22.56266 c -2.414294,7.16605 -2.984944,13.28958 -3.731184,21.01531 q -0.82305,8.59269 1.03156,15.11127 7.813534,8.03301 19.500904,17.04271 12.1373,9.37184 23.550321,15.00153 4.93832,2.43625 7.80255,2.43625 3.06176,0 8.63658,-2.42527 18.03037,-7.83548 32.65879,-21.32259 17.1305,5.08099 22.25538,5.56385 9.49256,0.89987 18.76564,1.72292 4.77371,0.41702 8.21956,0.10974 5.96989,-0.5487 12.20315,-1.15227 5.98086,-0.5926 12.13731,-1.94241 11.87393,-2.61183 17.25121,-4.42254 4.63105,-1.55832 18.38154,-7.8684 13.60783,7.05632 27.89605,10.42535 c 6.35398,1.50345 13.01523,1.84364 19.66551,2.13994 q 4.9493,0.23046 8.9219,-1.30591 5.0371,-4.46644 9.0536,-9.20723 c 10.31561,-12.15926 20.302,-25.09767 25.62442,-40.20894 0.44993,-1.26202 0.24143,-2.51306 -0.17559,-3.75313 q -7.30872,-21.15798 -22.35415,-37.61906 4.87248,-16.62569 6.0906,-26.11825 1.59124,-12.26899 0.72429,-29.04832 -0.42799,-8.45002 -2.17286,-17.03173 -2.39235,-11.81906 -4.3567,-17.85479 -2.26066,-6.9356 -8.15372,-18.93025 9.10846,-18.10718 11.70931,-34.831642 1.50345,-9.712039 -0.21948,-20.817782 -4.93832,-5.377287 -9.45963,-9.218206 -8.24152,-7.012421 -17.18537,-13.520036 c -6.4308,-4.674947 -12.82867,-8.098852 -20.0935,-11.116717 q -4.67495,-1.931434 -7.47333,-0.954743 -20.33492,7.133135 -36.2912,21.783499 z"
     id="path25"
     style="fill:#282a36;fill-opacity:1;stroke-width:1.09741" />
  <path
     fill="#fefefe"
     d="m 335.75234,73.315296 q -10.79847,-1.141302 -18.12914,1.558316 -12.03854,4.455466 -23.60519,14.233349 -25.97559,21.739599 -41.69043,51.951169 a 1.6680563,1.6790304 28.3 0 0 0.66941,2.23871 l 15.53927,8.65853 a 0.70233951,0.70233951 0 0 1 -0.0768,1.26201 c -8.21957,3.34709 -16.59277,6.15645 -24.76844,9.56938 q -14.04679,5.86015 -29.02638,11.28133 -2.21676,0.8011 -4.55423,1.4815 a 0.97669089,0.97669089 0 0 1 -1.21812,-0.69137 q -8.08788,-31.82476 -16.60375,-61.59736 -0.75721,-2.6228 1.61319,-1.26202 6.39787,3.65436 12.67503,6.36495 1.47052,0.63649 2.12897,-0.82305 6.17839,-13.78342 12.92743,-25.909746 6.9795,-12.554319 18.28278,-26.107277 1.03156,-1.240068 5.33339,-5.234624 15.95628,-14.650364 36.2912,-21.783499 2.79838,-0.976691 7.47333,0.954743 c 7.26483,3.017865 13.6627,6.44177 20.0935,11.116717 q 8.94385,6.507615 17.18537,13.520036 4.52131,3.840919 9.45963,9.218206 z"
     id="path26"
     style="fill:#6272a4;fill-opacity:1;stroke-width:1.09741" />
  <path
     fill="#f9a332"
     d="m 245.24931,60.289093 q -4.30183,3.994556 -5.33339,5.234624 -11.30328,13.552958 -18.28278,26.107277 -6.74904,12.126326 -12.92743,25.909746 -0.65845,1.45954 -2.12897,0.82305 -6.27716,-2.71059 -12.67503,-6.36495 -2.3704,-1.36078 -1.61319,1.26202 8.51587,29.7726 16.60375,61.59736 a 0.97669089,0.97669089 0 0 0 1.21812,0.69137 q 2.33747,-0.6804 4.55423,-1.4815 14.97959,-5.42118 29.02638,-11.28133 c 8.17567,-3.41293 16.54887,-6.22229 24.76844,-9.56938 a 0.70233951,0.70233951 0 0 0 0.0768,-1.26201 l -15.53927,-8.65853 a 1.6680563,1.6790304 28.3 0 1 -0.66941,-2.23871 q 15.71484,-30.21157 41.69043,-51.951169 18.53518,17.031729 30.2445,39.857759 5.89306,11.99465 8.15372,18.93025 1.96435,6.03573 4.3567,17.85479 1.74487,8.58171 2.17286,17.03173 0.86695,16.77933 -0.72429,29.04832 -1.21812,9.49256 -6.0906,26.11825 -9.2182,-9.32794 -19.23751,-15.87945 -16.49401,-10.79847 -35.52302,-19.11681 -1.51442,-0.65844 -2.8752,-1.71195 -0.55968,-0.43896 -0.0549,-0.9328 l 0.49383,-0.49383 q 0.39507,-0.39506 0.58162,-0.93279 2.15092,-6.03573 5.77236,-11.9727 0.2963,-0.49383 0.13169,-0.93279 -0.24143,-0.68039 -0.94377,-0.49383 -23.5613,6.3869 -47.01285,12.93841 c -5.01515,1.40468 -9.90958,2.21676 -14.8918,3.64338 q -1.99727,0.57065 -1.24006,2.50209 l 22.44194,57.7345 a 0.54870274,0.5596768 51.8 0 0 0.97669,0.10974 q 5.01514,-7.29775 8.25249,-15.38562 a 2.2606553,2.2496813 24.6 0 1 3.13858,-1.16325 q 29.07027,15.13322 51.11715,40.62595 -12.12634,13.41029 -27.12787,23.63811 -2.05215,1.39371 -6.31008,3.66534 -3.08371,1.63513 -6.32106,3.68728 -13.75049,6.31008 -18.38154,7.8684 -5.37728,1.81071 -17.25121,4.42254 -6.15645,1.34981 -12.13731,1.94241 -6.23326,0.60357 -12.20315,1.15227 -3.44585,0.30728 -8.21956,-0.10974 -9.27308,-0.82305 -18.76564,-1.72292 -5.12488,-0.48286 -22.25538,-5.56385 13.08107,-14.24432 20.8507,-28.43378 7.50626,-13.69562 13.91511,-27.51195 a 1.207146,1.2181201 24.4 0 1 1.59123,-0.60357 q 6.4308,2.8313 13.77244,7.17703 a 0.53772869,0.53772869 0 0 0 0.80111,-0.52676 q -0.2963,-2.61182 -1.04254,-5.27852 -5.65163,-20.3459 -11.70931,-42.14037 c -1.4815,-5.32242 -2.17287,-10.73262 -4.13722,-15.92335 a 1.0974055,1.0974055 0 0 0 -1.41565,-0.64747 q -16.6257,6.21131 -31.04561,12.03854 c -8.99872,3.63241 -18.11816,6.65027 -26.91935,10.63386 a 0.69136546,0.6803914 48.8 0 0 -0.0768,1.20714 q 7.72573,4.83956 15.87946,8.43905 a 1.3498088,1.3388347 25.8 0 1 0.64747,1.85462 q -15.22102,28.99345 -39.63829,50.65623 -6.134501,-4.41157 -11.994641,-11.61055 c -6.05768,-7.45138 -10.96308,-13.55295 -15.28686,-21.30064 q -2.05215,-3.68728 -4.29086,-7.45138 -0.68039,-1.38273 -1.30591,-3.08371 -0.61455,-1.64611 -1.34981,-3.2154 c -4.41157,-9.39379 -8.131774,-19.65453 -9.525484,-29.89332 -0.62552,-4.58716 -1.89851,-9.0097 -2.13994,-13.67368 q -0.76818,-14.90276 0.13169,-28.57644 c 0.24143,-3.62143 1.49247,-7.2319 1.88754,-11.07282 q 0.83403,-8.15372 4.016504,-15.96725 c 17.39388,16.2416 36.905751,26.93033 57.997881,36.25828 a 0.57065085,0.57065085 0 0 1 0.25241,0.82305 q -2.94105,4.7408 -5.12489,10.08516 -0.81208,1.97533 -2.27163,3.86287 a 0.6803914,0.6803914 0 0 0 0.66942,1.08643 c 2.04117,-0.38409 3.84092,-1.20715 5.89307,-1.59124 q 6.07962,-1.1413 13.53101,-3.30319 c 13.21276,-3.81897 26.78766,-7.44041 39.82484,-10.91918 q 1.96436,-0.51578 4.01651,-0.89988 a 0.7791579,0.79013195 74.1 0 0 0.5926,-1.0535 l -22.55169,-58.28321 q -0.76818,-1.9863 -1.77779,-0.12071 l -8.39516,15.55023 a 1.3388347,1.3607828 26 0 1 -1.72292,0.60357 c -5.50898,-2.34844 -9.61328,-5.04806 -15.47342,-8.88898 q -21.28967,-13.94802 -37.553221,-33.48184 0.84501,-0.49383 1.60222,-1.613183 0.66941,-0.976691 1.45954,-1.810719 8.921911,-9.382817 19.281421,-17.097578 3.36903,-2.502084 7.76963,-5.212676 3.84092,-2.348448 7.83548,-4.982221 11.10574,-5.530923 14.7162,-6.968525 18.17304,-7.231902 40.27478,-9.668142 6.0906,-0.669417 23.07844,-0.186559 4.75177,0.131689 9.18529,1.097406 c 4.08234,0.888898 8.0769,1.207146 12.19217,2.293577 q 6.9795,1.865589 14.04679,4.148193 z"
     id="path27"
     style="fill:#ffb86c;fill-opacity:1;stroke-width:1.09741" />
  <path
     fill="#9d6b36"
     d="m 131.75564,69.573143 q -3.99456,2.633773 -7.83548,4.982221 -4.4006,2.710592 -7.76963,5.212676 -10.35951,7.714761 -19.281421,17.097578 -0.79013,0.834028 -1.45954,1.810719 -0.75721,1.119353 -1.60222,1.613183 -6.33203,-7.890343 -10.75457,-16.845171 -3.87384,-7.835476 -5.17975,-16.461083 -0.28533,-1.898511 -0.10974,-3.840919 0.16461,-1.700978 0.42798,-3.884815 15.42952,-2.205785 30.112811,1.415653 10.04126,2.49111 23.45156,8.899958 z"
     id="path28"
     style="fill:#ff79c6;fill-opacity:1;stroke-width:1.09741" />
  <path
     fill="#fefefe"
     d="m 78.191269,59.257532 q -0.26337,2.183837 -0.42798,3.884815 -0.17559,1.942408 0.10974,3.840919 1.30591,8.625607 5.17975,16.461083 4.42254,8.954828 10.75457,16.845171 16.263551,19.53382 37.553221,33.48184 c 5.86014,3.84092 9.96444,6.54054 15.47342,8.88898 a 1.3388347,1.3607828 26 0 0 1.72292,-0.60357 l 8.39516,-15.55023 q 1.00961,-1.86559 1.77779,0.12071 l 22.55169,58.28321 a 0.7791579,0.79013195 74.1 0 1 -0.5926,1.0535 q -2.05215,0.3841 -4.01651,0.89988 c -13.03718,3.47877 -26.61208,7.10021 -39.82484,10.91918 q -7.45139,2.16189 -13.53101,3.30319 c -2.05215,0.38409 -3.8519,1.20715 -5.89307,1.59124 a 0.6803914,0.6803914 0 0 1 -0.66942,-1.08643 q 1.45955,-1.88754 2.27163,-3.86287 2.18384,-5.34436 5.12489,-10.08516 a 0.57065085,0.57065085 0 0 0 -0.25241,-0.82305 C 102.80608,177.49199 83.294209,166.80326 65.900329,150.56166 56.484585,138.96209 47.935795,126.92355 43.721765,112.67923 q -0.72429,-2.44721 0.41701,-5.36631 3.30319,-8.395154 8.21957,-15.956278 10.86431,-16.702511 25.832924,-32.09911 z"
     id="path29"
     style="fill:#6272a4;fill-opacity:1;stroke-width:1.09741" />
  <path
     fill="#9d6b36"
     d="m 335.75234,73.315296 q 1.72293,11.105743 0.21948,20.817782 -2.60085,16.724462 -11.70931,34.831642 -11.70932,-22.82603 -30.2445,-39.857759 11.56665,-9.777883 23.60519,-14.233349 7.33067,-2.699618 18.12914,-1.558316 z"
     id="path30"
     style="fill:#ff79c6;fill-opacity:1;stroke-width:1.09741" />
  <path
     fill="#fefefe"
     d="m 332.1309,237.94806 q 15.04543,16.46108 22.35415,37.61906 c 0.41702,1.24007 0.62552,2.49111 0.17559,3.75313 -5.32242,15.11127 -15.30881,28.04968 -25.62442,40.20894 q -4.0165,4.74079 -9.0536,9.20723 c -0.2085,-7.71476 0.18656,-13.19082 -3.4239,-20.90558 q -5.59677,-11.98366 -13.30055,-21.34453 -22.04688,-25.49273 -51.11715,-40.62595 a 2.2606553,2.2496813 24.6 0 0 -3.13858,1.16325 q -3.23735,8.08787 -8.25249,15.38562 a 0.54870274,0.5596768 51.8 0 1 -0.97669,-0.10974 l -22.44194,-57.7345 q -0.75721,-1.93144 1.24006,-2.50209 c 4.98222,-1.42662 9.87665,-2.2387 14.8918,-3.64338 q 23.45155,-6.55151 47.01285,-12.93841 0.70234,-0.18656 0.94377,0.49383 0.16461,0.43896 -0.13169,0.93279 -3.62144,5.93697 -5.77236,11.9727 -0.18655,0.53773 -0.58162,0.93279 l -0.49383,0.49383 q -0.50481,0.49384 0.0549,0.9328 1.36078,1.05351 2.8752,1.71195 19.02901,8.31834 35.52302,19.11681 10.01931,6.55151 19.23751,15.87945 z"
     id="path31"
     style="fill:#6272a4;fill-opacity:1;stroke-width:1.09741" />
  <path
     fill="#fefefe"
     d="m 154.28537,325.46615 q -14.62842,13.48711 -32.65879,21.32259 -5.57482,2.42527 -8.63658,2.42527 -2.86423,0 -7.80255,-2.43625 -11.413021,-5.62969 -23.550321,-15.00153 -11.68737,-9.0097 -19.500904,-17.04271 15.824594,0.35117 28.719104,-7.57209 7.79158,-4.77372 14.902771,-10.75458 24.41727,-21.66278 39.63829,-50.65623 a 1.3498088,1.3388347 25.8 0 0 -0.64747,-1.85462 q -8.15373,-3.59949 -15.87946,-8.43905 a 0.69136546,0.6803914 48.8 0 1 0.0768,-1.20714 c 8.80119,-3.98359 17.92063,-7.00145 26.91935,-10.63386 q 14.41991,-5.82723 31.04561,-12.03854 a 1.0974055,1.0974055 0 0 1 1.41565,0.64747 c 1.96435,5.19073 2.65572,10.60093 4.13722,15.92335 q 6.05768,21.79447 11.70931,42.14037 0.74624,2.6667 1.04254,5.27852 a 0.53772869,0.53772869 0 0 1 -0.80111,0.52676 q -7.34164,-4.34573 -13.77244,-7.17703 a 1.207146,1.2181201 24.4 0 0 -1.59123,0.60357 q -6.40885,13.81633 -13.91511,27.51195 -7.76963,14.18946 -20.8507,28.43378 z"
     id="path32"
     style="fill:#6272a4;fill-opacity:1;stroke-width:1.09741" />
  <path
     fill="#9d6b36"
     d="m 74.185739,256.04428 q 2.23871,3.7641 4.29086,7.45138 c 4.32378,7.74769 9.22918,13.84926 15.28686,21.30064 q 5.86014,7.19898 11.994641,11.61055 -7.111191,5.98086 -14.902771,10.75458 -12.89451,7.92326 -28.719104,7.57209 -1.85461,-6.51858 -1.03156,-15.11127 c 0.74624,-7.72573 1.31689,-13.84926 3.731184,-21.01531 q 3.82994,-11.3801 9.34989,-22.56266 z"
     id="path33"
     style="fill:#ff79c6;fill-opacity:1;stroke-width:1.09741" />
  <path
     fill="#9d6b36"
     d="m 303.25817,286.48631 q 7.70378,9.36087 13.30055,21.34453 c 3.61046,7.71476 3.2154,13.19082 3.4239,20.90558 q -3.9726,1.53637 -8.9219,1.30591 c -6.65028,-0.2963 -13.31153,-0.63649 -19.66551,-2.13994 q -14.28822,-3.36903 -27.89605,-10.42535 3.23735,-2.05215 6.32106,-3.68728 4.25793,-2.27163 6.31008,-3.66534 15.00153,-10.22782 27.12787,-23.63811 z"
     id="path34"
     style="fill:#ff79c6;fill-opacity:1;stroke-width:1.09741" />
</svg>
