<?xml version="1.0" encoding="UTF-8" standalone="no"?>
<svg
   version="1.1"
   viewBox="0.00 0.00 500.00 500.00"
   id="svg48"
   xmlns="http://www.w3.org/2000/svg"
   xmlns:svg="http://www.w3.org/2000/svg">
  <defs
     id="defs48" />
  <g
     stroke-width="2"
     fill="none"
     stroke-linecap="butt"
     id="g25"
     transform="matrix(1.4003906,0,0,1.4003906,-98.772425,-92.63103)">
    <path
       stroke="#eac486"
       vector-effect="non-scaling-stroke"
       d="m 336.23,109.46 q -1.35,0.83 0.16,3.41 2.81,4.78 4.18,10.16"
       id="path1" />
    <path
       stroke="#c7ed88"
       vector-effect="non-scaling-stroke"
       d="m 340.57,123.03 q -1.01,0.44 -1.1,-0.74 -0.13,-1.61 -1.08,-0.31 -0.37,0.5 -0.99,0.15 -0.35,-0.2 -0.75,-0.14 -0.68,0.11 -1.13,-0.3 -0.37,-0.33 -0.86,-0.35 -3.6,-0.16 -7.07,0.39 c -1.44,0.22 -2.26,1.2 -3.66,1.38 q -0.48,0.06 -0.85,0.37 -1.7,1.42 -3.98,2.18 -1.37,0.45 -1.87,1.7 -0.16,0.42 -0.61,0.39 -0.97,-0.05 -1.57,-1.53"
       id="path2" />
    <path
       stroke="#fc807f"
       vector-effect="non-scaling-stroke"
       d="m 396.23,195.99 q -0.53,0.11 -0.98,-0.05 -0.4,-0.13 -0.44,-0.55 -0.01,-0.23 -0.12,-0.45 -0.09,-0.17 -0.08,0.03 0.01,0.13 -0.08,0.25 -0.07,0.08 -0.16,0.06 -2.08,-0.52 -4.08,-1.72 -1.78,-1.06 -3.7,-2.02 a 0.92,0.9 -42.4 0 0 -0.78,-0.03 q -0.52,0.21 -1.05,-0.04 -1.77,-0.84 -3.45,-1.53 c -1.14,-0.46 -2.35,-0.44 -3.51,-0.93 q -0.73,-0.31 0.06,-0.3 0.69,0 1.22,-0.39 0.95,-0.7 -0.23,-0.7 -2.08,-0.01 -4.39,0 -2.17,0.01 -4.33,-0.44 -6.38,-1.31 -12.75,-2.55 -0.47,-0.09 -0.78,0.27 -0.23,0.27 -0.55,0.38 -0.33,0.11 -0.27,-0.22 0.03,-0.19 0.18,-0.26 0.75,-0.34 -0.06,-0.54 -3.36,-0.8 -5.82,-0.41"
       id="path3" />
    <path
       stroke="#d6bc7b"
       vector-effect="non-scaling-stroke"
       d="m 348.97,162.35 q 0.58,-0.21 0.47,-1.1 -1.58,-12.64 -4.61,-25.02 -1.65,-6.76 -4.26,-13.2"
       id="path4" />
    <path
       stroke="#75d682"
       vector-effect="non-scaling-stroke"
       d="m 329.71,214.64 q -6.81,1.33 -13.63,1.83 -2.95,0.21 -5.25,-0.85 -2.84,-1.33 -5.23,-3.31"
       id="path5" />
    <path
       stroke="#f05186"
       vector-effect="non-scaling-stroke"
       d="m 405.43,272.47 q -26.44,-24.04 -40.81,-36.85 -7.87,-7.02 -18.39,-15.17"
       id="path6" />
    <path
       stroke="#ee3888"
       vector-effect="non-scaling-stroke"
       d="m 402.94,290.08 q -2.21,-2.53 -7.69,-3.84 -3.26,-0.78 -7.89,-2.28 -1.89,-0.61 -3.51,-1.59 c -2.8,-1.7 -5.48,-3.31 -8.44,-4.83 q -5.27,-2.7 -9.64,-5.81 -5.21,-3.7 -12.39,-9.46 -0.48,-0.38 -1.09,-0.32 -0.64,0.06 -0.94,-0.45 -0.23,-0.39 -0.64,-0.58 l -3,-1.32 q -0.48,-0.21 -0.69,-0.69 -0.61,-1.41 -2.44,-1.73 -0.5,-0.09 -0.72,-0.57 -0.21,-0.49 -0.76,-0.49 -2.11,0.01 -4.23,0 -0.4,0 -0.77,0.14 -0.43,0.17 -0.71,-0.19 -0.44,-0.58 -0.9,-0.01 -0.36,0.46 -0.95,0.56 a 0.67,0.67 0 0 0 -0.45,1.02 q 0.6,0.96 0.81,1.88"
       id="path7" />
    <path
       stroke="#a5307e"
       vector-effect="non-scaling-stroke"
       d="m 335.9,259.52 q -0.77,-0.76 -1.89,-0.88"
       id="path8" />
    <path
       stroke="#76d48d"
       vector-effect="non-scaling-stroke"
       d="m 194.14,246.28 q -5.93,-6.67 -3.92,-14.37 0.61,-2.32 -0.72,-0.33 c -1.52,2.28 -3.37,4 -4.64,6.5 q -2.53,5 -3.41,8.59 -4.36,17.92 5.42,32.51 10.34,15.44 28.91,15.76 9.55,0.17 18.82,-4.83 9.26,-5 15.51,-14.05"
       id="path9" />
    <path
       stroke="#24bd87"
       vector-effect="non-scaling-stroke"
       d="m 270.78,260.77 q 1.34,0.92 3.36,0.58 0.5,-0.09 0.91,0.22 l 1.48,1.12 q 0.39,0.3 0.89,0.26 7.14,-0.55 10.85,-1.5 3.24,-0.84 6.73,-0.79 4.9,0.07 9.16,-0.43 0.46,-0.06 0.61,0.38 0.26,0.76 0.75,1.38"
       id="path10" />
    <path
       stroke="#0e8f79"
       vector-effect="non-scaling-stroke"
       d="m 231.79,322.55 -4.35,-0.22 q -0.56,-0.02 -1.11,0.14 -0.95,0.29 -1.83,-0.18 -0.35,-0.18 -0.71,-0.03 c -1.13,0.46 -2.49,-0.52 -3.72,-0.59 q -1.04,-0.06 -1.98,-0.48 -1.67,-0.74 -3.46,-0.71 c -8.32,0.12 -15.92,-0.57 -23.67,-4.09 q -14.02,-6.37 -24.38,-19.38"
       id="path11" />
    <path
       stroke="#61cc81"
       vector-effect="non-scaling-stroke"
       d="m 145.19,215.02 q 2.02,-1.93 5.21,-3.37 9.75,-4.41 31.24,-14.67"
       id="path12" />
    <path
       stroke="#b23380"
       vector-effect="non-scaling-stroke"
       d="m 390.8,327.19 q -0.81,-2.3 -1.98,-4.49 C 375.88,298.52 356.97,276.92 335.9,259.52"
       id="path13" />
    <path
       stroke="#722d7d"
       vector-effect="non-scaling-stroke"
       d="m 372.76,357.92 q -3.25,-3.9 -8.64,-6.6 -1.83,-0.92 -3.33,-1.95 -1.76,-1.22 -3.82,-2.15 -0.37,-0.17 -0.42,0.24 -0.01,0.14 0.05,0.27 0.39,0.82 -0.41,0.41 -4.73,-2.35 -8.97,-4.62 -3.59,-1.92 -7.28,-3.6 -3.74,-1.7 -7.21,-3.79 -0.54,-0.32 -1.01,-0.74 -0.47,-0.41 -1.06,-0.62 -3.29,-1.19 -6.53,-2.24 -0.92,-0.3 -1.71,-0.88 -0.86,-0.63 -1.84,-0.78 -1.35,-0.21 -2.59,-0.69 -2.47,-0.97 -5.06,-1.81 -0.5,-0.16 -0.73,-0.62 -0.26,-0.51 -0.81,-0.57 -0.4,-0.05 -0.79,-0.19 -6.32,-2.34 -13.07,-3.61 -3.79,-0.71 -7.71,-1.62 -0.54,-0.13 -0.81,-0.62 -0.07,-0.11 -0.09,-0.24 -0.16,-0.76 -0.83,-0.37 -0.36,0.21 -0.79,0.26"
       id="path14" />
    <path
       stroke="#76d48d"
       vector-effect="non-scaling-stroke"
       d="m 256.1,172.48 q -0.18,-0.43 -0.46,-0.57 -0.19,-0.1 -0.39,0 -13.99,6.62 -27.65,13.95 c -7.45,3.99 -14.96,7.54 -22.5,11.19"
       id="path15" />
    <path
       stroke="#8e3392"
       vector-effect="non-scaling-stroke"
       d="m 326.82,376.69 -15.74,-4.46 a 2.05,1.97 75.3 0 1 -0.9,-0.55 q -0.49,-0.54 -1.17,-0.68 -0.47,-0.09 -0.89,-0.32 -2.71,-1.48 -5.56,-2.77 -8.43,-3.84 -16.36,-6.63 -0.74,-0.25 -1.37,-0.64 -0.73,-0.44 -1.51,-0.31 -0.57,0.1 -0.81,-0.42 -0.21,-0.43 -0.73,-0.37 -0.61,0.07 -0.68,0.68 -0.02,0.19 -0.12,0.34 -0.06,0.09 -0.15,0.16 -0.4,0.3 -0.56,0.06 -0.16,-0.24 -0.41,-0.1 -0.39,0.22 -0.16,0.81"
       id="path16" />
    <path
       stroke="#692b75"
       vector-effect="non-scaling-stroke"
       d="M 279.7,361.49 Q 268.71,351.04 256.78,341.78"
       id="path17" />
    <path
       stroke="#c7ed88"
       vector-effect="non-scaling-stroke"
       d="M 182.22,190.9 Q 154.51,200.95 127.54,213"
       id="path18" />
    <path
       stroke="#7c3081"
       vector-effect="non-scaling-stroke"
       d="m 279.7,361.49 q 19.31,17.73 34.83,39.07"
       id="path19" />
    <path
       stroke="#c7ed88"
       vector-effect="non-scaling-stroke"
       d="M 138.29,198.9 116.4,209.38"
       id="path20" />
    <path
       stroke="#75d682"
       vector-effect="non-scaling-stroke"
       d="m 102.54,209.63 q -1.94,0.59 -4.79,-0.55 -1.54,-0.62 -2.07,-1.82"
       id="path21" />
    <path
       stroke="#692b75"
       vector-effect="non-scaling-stroke"
       d="m 184.41,357.57 q 0.88,1.32 2.75,1.69 0.39,0.08 0.21,-0.27 -0.08,-0.17 0.43,-0.26 0.3,-0.06 0.58,0.04 2.48,0.86 4.99,0.86 0.67,0 0.41,0.62 -0.09,0.22 -0.08,0.45 a 0.49,0.49 0 0 0 0.43,0.46 q 0.6,0.08 0.81,0.64 a 0.51,0.5 57 0 0 0.83,0.18 l 0.25,-0.25 q 0.4,-0.39 0.94,-0.24 2.88,0.82 5.38,1.67 0.19,0.07 0.14,0.26 -0.01,0.05 -0.06,0.07 -0.6,0.19 0,0.39 3.56,1.22 7.11,2.4 11.56,3.86 22.08,8.58 a 33.54,17.47 17.6 0 0 4.36,1.77 q 2.58,0.95 5.01,2.58 2.24,1.51 4.66,2.85 4.13,2.3 8.29,4.43 4.92,2.52 8.26,4.46 4.36,2.53 8.7,5.07 0.76,0.44 5.29,3.47 2.14,1.44 5.4,3.31 5.05,2.91 11.35,9.68"
       id="path22" />
    <path
       stroke="#24b383"
       vector-effect="non-scaling-stroke"
       d="m 139.18,252.81 q -2.17,1.52 -5.95,0.85 -0.5,-0.09 -0.94,0.18 -0.99,0.62 -2.08,0.82 -3.38,0.61 -9.16,0.23 -3.22,-0.21 -6.57,0.63 -2.5,0.63 -5.94,2.34 -3.16,1.57 -6.58,2.7"
       id="path23" />
    <path
       stroke="#bb3588"
       vector-effect="non-scaling-stroke"
       d="m 118.5,319.28 q -10.75,-4.69 -19.3,-13.3 -0.88,-0.9 -4.08,-4.76 -1.94,-2.36 -4.27,-4.59"
       id="path24" />
    <path
       stroke="#0e8475"
       vector-effect="non-scaling-stroke"
       d="m 149.02,298.42 -0.87,0.8 q -0.37,0.33 -0.49,-0.14 -0.05,-0.19 -0.23,-0.27 -0.53,-0.23 -0.63,0.34 -0.06,0.35 -0.3,0.57 -0.17,0.15 -0.39,0.22 -5.07,1.79 -10.7,3.12 -1.91,0.45 -4.27,2 a 1.44,1.42 -57.7 0 1 -0.98,0.23 q -0.88,-0.11 -1.06,0.63 -0.08,0.34 -0.42,0.28 -1.78,-0.35 -3.34,0.28 -0.42,0.17 -0.27,-0.26 0.08,-0.21 -0.13,-0.28 -0.22,-0.08 -0.41,0.06 -0.22,0.18 -0.57,0.57"
       id="path25" />
  </g>
  <path
     fill="#dbf593"
     d="m 372.08091,60.65573 q -1.89052,1.162324 0.22407,4.775331 3.9351,6.693868 5.85363,14.227969 -1.41439,0.616172 -1.54043,-1.036289 -0.18205,-2.254628 -1.51242,-0.434121 -0.51814,0.700194 -1.38639,0.210058 -0.49014,-0.280078 -1.05029,-0.196055 -0.95227,0.154044 -1.58244,-0.420116 -0.51814,-0.462129 -1.20434,-0.490138 -5.0414,-0.224062 -9.90076,0.546153 c -2.01656,0.308086 -3.16489,1.680469 -5.12542,1.93254 q -0.6722,0.08403 -1.19034,0.518144 -2.38067,1.988554 -5.57356,3.052852 -1.91853,0.630175 -2.61873,2.380663 -0.22405,0.588164 -0.85424,0.546152 -1.35838,-0.07002 -2.19861,-2.142597 Q 338.30349,70.402448 334.62046,63.162428 318.06785,30.631354 288.09948,8.9813156 a 1.1063087,1.1063087 0 0 1 0.44813,-1.9885546 q 2.29664,-0.4201178 4.43924,0.4621288 28.58197,11.5952332 52.71071,30.2904492 13.90588,10.783008 26.38335,22.910391 z"
     id="path26"
     style="stroke-width:1.40039" />
  <path
     fill="#b2e47c"
     d="m 94.887588,185.90666 -30.654545,14.67609 -19.409418,0.35011 q -2.716754,0.82622 -6.707862,-0.77023 -2.156606,-0.86824 -2.898814,-2.54871 5.671582,-17.82697 7.786176,-22.42025 2.78677,-6.07769 5.237462,-12.30943 1.750484,-4.46724 3.697024,-7.8702 c 1.94655,-3.37493 2.884808,-6.8479 5.027404,-10.15282 q 2.940823,-4.52327 5.657576,-9.24259 1.960552,-3.38894 4.551275,-7.18399 c 2.100583,-3.06686 3.907092,-6.4138 5.965662,-9.27059 Q 84.524705,103.28361 94.341444,92.444593 116.0615,68.441901 142.69693,50.026764 q 13.13566,-9.102538 26.07528,-15.026191 1.90452,-0.868242 3.9631,-0.280079 a 1.0783008,1.0783008 0 0 1 0.46213,1.820509 q -7.142,6.791894 -14.50804,13.191679 c -4.64931,4.033125 -9.41063,8.738438 -13.2617,13.653809 -2.22663,2.814786 -4.6493,5.139434 -6.83391,8.024238 q -8.69642,11.483204 -16.1185,23.834649 -2.64674,4.397227 -4.63529,8.710422 c -1.86252,4.04713 -4.3132,7.54811 -5.86764,11.70727 -1.93254,5.12543 -4.50925,9.91477 -6.21774,15.11021 q -4.41123,13.34572 -6.595834,22.37825 -3.514985,14.56406 -4.271198,32.75513 z"
     id="path27"
     style="stroke-width:1.40039" />
  <path
     fill="#f99379"
     d="m 372.08091,60.65573 c 4.13115,2.478691 6.28776,5.909647 10.06881,8.626405 2.11459,1.512422 3.29092,3.865079 5.44753,5.44752 q 3.08086,2.254629 5.51754,5.923652 c 0.44812,0.686191 2.25462,1.694473 3.05285,2.590723 q 6.37177,7.057974 12.50549,14.326001 10.93705,12.967609 24.49283,34.729679 1.20434,1.93254 2.15659,4.04713 c 0.86825,1.90453 2.31065,3.2349 3.23491,5.19545 q 2.00256,4.20117 6.39979,12.92561 5.92365,11.73527 11.14711,27.36362 -0.74222,0.15405 -1.37239,-0.07 -0.56015,-0.18205 -0.61617,-0.77021 -0.0139,-0.3221 -0.16805,-0.63018 -0.12603,-0.23806 -0.11203,0.042 0.014,0.18206 -0.11203,0.3501 -0.098,0.11203 -0.22406,0.0841 -2.91282,-0.72822 -5.7136,-2.40869 -2.4927,-1.48441 -5.18144,-2.82878 a 1.2603516,1.2883594 47.6 0 0 -1.09231,-0.042 q -0.7282,0.29408 -1.47041,-0.056 -2.4787,-1.17633 -4.83135,-2.1426 c -1.59643,-0.64418 -3.29092,-0.61619 -4.91536,-1.30237 q -1.0223,-0.43412 0.0839,-0.42012 0.96626,0 1.70847,-0.54615 1.33038,-0.98027 -0.3221,-0.98027 -2.91281,-0.0141 -6.1477,0 -3.03885,0.014 -6.0637,-0.61617 -8.93449,-1.83451 -17.85498,-3.57101 -0.65817,-0.12603 -1.0923,0.37811 -0.32208,0.3781 -0.77021,0.53215 -0.46213,0.15405 -0.37812,-0.30808 0.042,-0.26608 0.25207,-0.36411 1.0503,-0.47612 -0.084,-0.75621 -4.70532,-1.12031 -8.15029,-0.57416 0.50414,-11.95933 -0.22405,-25.30505 c -0.098,-1.89053 -0.65818,-3.08087 -1.33037,-4.80335 q 0.81223,-0.29407 0.65818,-1.54042 -2.21262,-17.70094 -6.4558,-35.037771 -2.31064,-9.466642 -5.96566,-18.485157 -1.91853,-7.534101 -5.85363,-14.227968 -2.1146,-3.613008 -0.22407,-4.775331 z"
     id="path28"
     style="stroke-width:1.40039" />
  <path
     fill="#b2e47c"
     d="m 378.15861,79.65903 q 3.65502,9.018515 5.96566,18.485157 4.24319,17.336833 6.4558,35.037763 0.15405,1.24636 -0.65818,1.54043 -4.57927,-4.50925 -10.58695,-0.53215 -2.35266,1.55444 -2.70275,7.75818 -0.56016,10.13882 -2.36667,20.30566 -1.47041,8.2623 -4.50925,22.26621 -1.24635,5.74159 -3.31893,12.05735 -1.87653,5.6996 -3.48697,11.37118 -9.53666,1.86252 -19.08732,2.56271 -4.13116,0.29409 -7.35206,-1.19032 -3.9771,-1.86252 -7.32404,-4.6353 2.22662,-5.26547 4.14516,-10.34889 7.11398,-18.84926 8.5984,-24.38079 1.8205,-6.70787 4.76132,-24.52085 2.67476,-16.11849 0.54616,-35.93402 -0.56016,-5.20946 -2.17062,-12.715546 -1.34437,-6.27375 -2.64673,-12.659528 0.84023,2.072578 2.19861,2.142597 0.63019,0.04201 0.85424,-0.546152 0.7002,-1.750488 2.61873,-2.380663 3.19289,-1.064298 5.57356,-3.052852 0.51814,-0.434121 1.19034,-0.518144 c 1.96053,-0.252071 3.10886,-1.624454 5.12542,-1.93254 q 4.85936,-0.770215 9.90076,-0.546153 0.6862,0.02802 1.20434,0.490138 0.63017,0.57416 1.58244,0.420116 0.56015,-0.08403 1.05029,0.196055 0.86825,0.490136 1.38639,-0.210058 1.33037,-1.820507 1.51242,0.434121 0.12604,1.652461 1.54043,1.036289 z"
     id="path29"
     style="stroke-width:1.40039" />
  <path
     fill="#dbf593"
     d="m 156.40675,174.70354 q -38.80481,14.07393 -76.573351,30.94863 l -15.600356,-5.06942 30.654545,-14.67609 q 5.349502,-2.77277 10.600962,-5.01339 5.25147,-2.22663 10.727,-4.62129 13.35972,-5.81162 26.15929,-11.4412 20.8098,-9.14454 45.28864,-19.50743 4.92937,-2.08659 10.05481,-4.49526 4.94337,-2.31065 10.11082,-4.34121 1.51241,-0.58816 3.05284,-1.28836 13.21968,-5.93766 27.36363,-11.94533 3.86508,-1.63845 7.80018,-3.41696 c 4.60728,-2.07258 9.45264,-3.599 14.11594,-5.69958 q 8.57039,-3.85108 17.08477,-0.098 5.7416,2.53471 9.84474,6.69386 1.72247,1.75049 -0.47614,2.82879 l -99.34371,49.4618 q -0.54615,0.26607 -0.98027,-0.16804 -14.95617,-15.57235 -29.88434,1.84851 z"
     id="path30"
     style="stroke-width:1.40039" />
  <path
     fill="#dbf593"
     d="m 259.86761,148.90834 q -0.25206,-0.60217 -0.64418,-0.79822 -0.26607,-0.14003 -0.54615,0 -19.59146,9.27059 -38.7208,19.53544 c -10.43291,5.58757 -20.94984,10.55896 -31.50879,15.67037 q -0.7422,-2.70275 2.07258,-4.15915 33.79143,-17.57491 67.73689,-34.86973 c 5.57356,-2.84278 10.76901,-5.95165 16.67866,-8.03825 q 0.78421,-0.28006 0.14003,0.23808 z"
     id="path31"
     style="stroke-width:1.40039" />
  <path
     fill="#10b386"
     d="m 259.86761,148.90834 q -7.54811,6.88993 -11.69325,10.25086 -23.10646,18.77924 -44.98055,38.97287 -3.80906,3.51499 -11.18912,11.55323 -16.21652,17.65892 -18.90528,42.57187 -8.30431,-9.3406 -5.48953,-20.12361 0.85424,-3.24891 -1.00829,-0.46213 c -2.12859,3.19289 -4.71931,5.60156 -6.49781,9.10254 q -3.54298,7.00194 -4.77532,12.02935 -6.1057,25.09501 7.59011,45.5267 14.48004,21.62203 40.4853,22.07015 13.37372,0.23808 26.35535,-6.76388 12.96762,-7.00196 21.72005,-19.67549 15.46032,-9.14455 28.94608,-21.41197 1.87652,1.28836 4.70531,0.81222 0.70019,-0.12603 1.27436,0.30808 l 2.07257,1.56845 q 0.54616,0.42012 1.24635,0.36409 9.99879,-0.77021 15.19424,-2.10058 4.53727,-1.17633 9.42463,-1.10631 6.86192,0.098 12.82757,-0.60215 0.64419,-0.0841 0.85425,0.53213 0.36409,1.06431 1.0503,1.93254 c -19.24137,28.11985 -43.28609,52.58467 -72.47023,70.39764 q -14.64809,8.9485 -30.78059,14.41002 l -6.09169,-0.30809 q -0.78422,-0.028 -1.55444,0.19606 -1.33036,0.40612 -2.5627,-0.25207 -0.49015,-0.25207 -0.99429,-0.042 c -1.58244,0.64418 -3.48697,-0.7282 -5.20945,-0.82623 q -1.4564,-0.084 -2.77278,-0.67219 -2.33865,-1.03629 -4.84535,-0.99427 c -11.65124,0.16804 -22.29421,-0.79823 -33.14724,-5.72761 q -19.63348,-8.92048 -34.14153,-27.13957 -6.77789,-11.60923 -9.81673,-26.28533 -5.6996,-27.47566 1.90453,-54.1671 c 1.66646,-5.85365 4.36922,-11.10511 6.84791,-16.52461 q 0.85424,-1.87653 2.22662,-3.51498 c 2.10059,-2.52071 3.24891,-5.51755 5.44752,-7.95423 q 1.65246,-1.84851 3.03885,-3.87908 a 0.46212891,0.46212891 0 0 0 -0.3641,-0.7282 l -39.23895,-1.76449 q 2.82879,-2.70275 7.29604,-4.71932 13.6538,-6.17572 43.7482,-20.54373 3.29091,12.28143 13.6538,13.82185 6.72188,1.00829 11.97335,-2.56271 5.47553,-3.72504 7.22601,-11.16112 c 10.55895,-5.11141 21.07588,-10.0828 31.50879,-15.67037 q 19.12934,-10.26485 38.7208,-19.53543 0.28008,-0.14004 0.54615,0 0.39212,0.19604 0.64418,0.79821 z"
     id="path32"
     style="stroke-width:1.40039" />
  <path
     fill="#fe6c85"
     d="m 456.10436,181.83152 q 3.61301,9.85875 4.59327,14.01792 c 2.24063,9.52265 4.9994,19.54944 6.41379,28.56796 q 4.94338,31.38276 1.87653,64.516 -37.02634,-33.66539 -57.14995,-51.6044 -11.02107,-9.83073 -25.75317,-21.24392 1.76449,-9.46664 3.69702,-20.0816 1.94654,-10.62897 1.69447,-31.1727 3.44497,-0.54615 8.15028,0.57416 1.13431,0.28008 0.084,0.75621 -0.21006,0.098 -0.25207,0.3641 -0.084,0.46213 0.37811,0.30809 0.44813,-0.15405 0.77022,-0.53215 0.43412,-0.50414 1.0923,-0.37811 8.92048,1.73649 17.85498,3.57101 3.02484,0.63017 6.0637,0.61617 3.23489,-0.0141 6.1477,0 1.65247,0 0.32209,0.98027 -0.7422,0.54615 -1.70847,0.54615 -1.10632,-0.014 -0.084,0.42012 c 1.62444,0.68618 3.31893,0.65818 4.91536,1.30237 q 2.35265,0.96627 4.83135,2.14259 0.74222,0.3501 1.47041,0.056 a 1.2603516,1.2883594 47.6 0 1 1.09231,0.042 q 2.68875,1.34437 5.18144,2.82878 2.80078,1.68047 5.7136,2.40868 0.12603,0.028 0.22406,-0.0841 0.12604,-0.16804 0.11203,-0.3501 -0.014,-0.28007 0.11203,-0.042 0.15405,0.30808 0.16806,0.63018 0.056,0.58816 0.61616,0.77021 0.63017,0.22406 1.37239,0.07 z"
     id="path33"
     style="stroke-width:1.40039" />
  <ellipse
     fill="#dbf593"
     cx="137.10059"
     cy="208.87901"
     transform="rotate(-10.2)"
     rx="6.5538282"
     ry="6.2737498"
     id="ellipse33"
     style="stroke-width:1.40039" />
  <path
     fill="#b2e47c"
     d="m 156.40675,174.70354 -0.81222,8.51437 q -30.0944,14.36801 -43.7482,20.54373 -4.46725,2.01657 -7.29604,4.71932 -11.23113,-0.23808 -24.716891,-2.82879 37.768541,-16.8747 76.573351,-30.94863 z"
     id="path34"
     style="stroke-width:1.40039" />
  <path
     fill="#38c788"
     d="m 35.216949,197.61392 q 0.742208,1.68047 2.898814,2.54871 3.991108,1.59645 6.707862,0.77023 c 6.861915,14.84413 17.868993,26.62142 33.917464,31.25671 q 7.842186,2.25463 14.704101,2.5067 0.7282,0.028 0.784225,0.75621 l 1.904523,25.94924 q -3.038847,2.12859 -8.332323,1.19033 -0.700198,-0.12604 -1.316368,0.25207 -1.386384,0.86825 -2.91281,1.14832 -4.73332,0.85424 -12.827577,0.3221 -4.509261,-0.29409 -9.200567,0.88224 -3.500979,0.88224 -8.318316,3.27691 -4.425234,2.19861 -9.214579,3.78106 -1.624443,-4.90138 -2.05857,-8.50038 -0.868241,-7.09998 -2.156597,-13.98991 c -1.190339,-6.44179 -7.380063,-9.64868 -13.051646,-5.90964 q -0.938262,0.61617 -0.82623,-0.50414 2.338653,-23.76462 9.298594,-45.73676 z"
     id="path35"
     style="stroke-width:1.40039" />
  <path
     fill="#38c788"
     d="m 329.18695,204.6859 q 3.34694,2.77278 7.32404,4.6353 3.2209,1.48441 7.35206,1.19032 9.55066,-0.70019 19.08732,-2.56271 -12.51949,35.51391 -33.87544,66.30849 -0.68621,-0.86823 -1.0503,-1.93254 -0.21006,-0.61616 -0.85425,-0.53213 -5.96565,0.70018 -12.82757,0.60215 -4.88736,-0.07 -9.42463,1.10631 -5.19545,1.33037 -15.19424,2.10058 -0.70019,0.056 -1.24635,-0.36409 l -2.07257,-1.56845 q -0.57417,-0.43411 -1.27436,-0.30808 -2.82879,0.47614 -4.70531,-0.81222 18.49915,-17.39285 27.32162,-31.15869 3.15089,-4.91538 4.21517,-6.4698 9.98479,-14.53606 17.22481,-30.23444 z"
     id="path36"
     style="stroke-width:1.40039" />
  <path
     fill="#e13586"
     d="m 386.08483,216.08508 q 14.7321,11.41319 25.75317,21.24392 20.12361,17.93901 57.14995,51.6044 l -3.48697,24.66088 q -3.09487,-3.54299 -10.76901,-5.37751 -4.56527,-1.0923 -11.04908,-3.19288 -2.64674,-0.85424 -4.91537,-2.22663 c -3.9211,-2.38066 -7.67414,-4.63529 -11.8193,-6.76389 q -7.38005,-3.78104 -13.49977,-8.13626 -7.29603,-5.18145 -17.35084,-13.24769 -0.67218,-0.53216 -1.52643,-0.44813 -0.89624,0.0841 -1.31636,-0.63018 -0.32209,-0.54615 -0.89624,-0.81222 l -4.20118,-1.84852 q -0.67219,-0.29408 -0.96627,-0.96627 -0.85424,-1.97455 -3.41695,-2.42267 -0.7002,-0.12604 -1.00829,-0.79823 -0.29408,-0.68619 -1.06429,-0.68619 -2.95483,0.014 -5.92365,0 -0.56015,0 -1.0783,0.19606 -0.60217,0.23806 -0.99428,-0.26608 -0.61617,-0.81222 -1.26035,-0.014 -0.50415,0.64417 -1.33038,0.78422 a 0.93826172,0.93826172 0 0 0 -0.63017,1.4284 q 0.84023,1.34438 1.13431,2.63273 -1.0783,-1.06429 -2.64674,-1.23234 -0.11202,-1.0783 0.098,-1.58244 2.89881,-7.08598 5.79762,-14.18596 1.94654,-4.74733 3.40295,-9.66269 c 1.87653,-6.39979 4.10316,-12.63152 5.60156,-19.14334 q 0.98027,-4.24319 2.21263,-8.90649 z"
     id="path37"
     style="stroke-width:1.40039" />
  <path
     fill="#dbf593"
     d="m 173.09941,252.25717 q -0.15404,10.43292 1.26036,18.16307 1.27435,6.98794 6.4558,14.62007 8.90649,13.12166 23.79263,16.77669 5.97967,1.47041 13.42974,1.19032 17.58891,-0.65819 33.44133,-9.04652 -8.75243,12.67353 -21.72005,19.67549 -12.98163,7.00196 -26.35535,6.76388 -26.00526,-0.44812 -40.4853,-22.07015 -13.69581,-20.43169 -7.59011,-45.5267 1.23234,-5.02741 4.77532,-12.02935 c 1.7785,-3.50098 4.36922,-5.90965 6.49781,-9.10254 q 1.86253,-2.78678 1.00829,0.46213 -2.81478,10.78301 5.48953,20.12361 z"
     id="path38"
     style="stroke-width:1.40039" />
  <path
     fill="#0f9e7e"
     d="m 96.133938,261.40172 q 1.778502,23.13445 8.262302,47.17917 2.56273,9.49463 5.51755,16.69265 l -1.21834,1.12031 q -0.51814,0.46213 -0.6862,-0.19606 -0.07,-0.26606 -0.32209,-0.3781 -0.74219,-0.3221 -0.88224,0.47613 -0.084,0.49013 -0.42012,0.79823 -0.23806,0.21005 -0.54615,0.30809 -7.099984,2.50669 -14.984183,4.3692 -2.674741,0.63018 -5.979663,2.8008 a 1.9885547,2.0165625 32.3 0 1 -1.372383,0.32208 q -1.232351,-0.15404 -1.484412,0.88224 -0.11204,0.47614 -0.588169,0.39212 -2.492695,-0.49015 -4.677305,0.39211 -0.588169,0.23806 -0.378101,-0.36412 0.112029,-0.29407 -0.182055,-0.3921 -0.308085,-0.11203 -0.574157,0.084 -0.308085,0.25207 -0.798226,0.79823 -22.210199,-28.37192 -30.808598,-64.43197 4.789345,-1.58245 9.214579,-3.78106 4.817337,-2.39467 8.318316,-3.27691 4.691306,-1.17633 9.200567,-0.88225 8.094257,0.53215 12.827577,-0.3221 1.526426,-0.28006 2.91281,-1.14831 0.61617,-0.37811 1.316368,-0.25207 5.293476,0.93826 8.332323,-1.19033 z"
     id="path39"
     style="stroke-width:1.40039" />
  <path
     fill="#fb3b8a"
     d="m 465.50098,313.59428 q -2.68875,9.46663 -4.32721,17.75694 -1.91853,9.69072 -11.63724,33.91747 a 0.60216797,0.63017578 15.1 0 1 -0.65819,0.39211 q -0.16805,-0.028 -0.37811,-0.098 -1.13432,-3.22091 -2.77277,-6.28776 C 427.60641,325.4136 401.12502,295.16516 371.61878,270.79836 q -0.29408,-1.28835 -1.13431,-2.63273 a 0.93826172,0.93826172 0 0 1 0.63017,-1.4284 q 0.82623,-0.14005 1.33038,-0.78422 0.64418,-0.79822 1.26035,0.014 0.39211,0.50414 0.99428,0.26608 0.51815,-0.19606 1.0783,-0.19606 2.96882,0.0139 5.92365,0 0.77021,0 1.06429,0.68619 0.30809,0.67219 1.00829,0.79823 2.56271,0.44812 3.41695,2.42267 0.29408,0.67219 0.96627,0.96627 l 4.20118,1.84851 q 0.57415,0.26608 0.89624,0.81223 0.42012,0.71421 1.31636,0.63018 0.85425,-0.084 1.52643,0.44813 10.05481,8.06624 17.35084,13.24769 6.11972,4.35522 13.49977,8.13626 c 4.14516,2.1286 7.8982,4.38323 11.8193,6.76389 q 2.26863,1.37239 4.91537,2.22663 6.48381,2.10058 11.04908,3.19288 7.67414,1.83452 10.76901,5.37751 z"
     id="path40"
     style="stroke-width:1.40039" />
  <path
     fill="#682b75"
     d="m 368.97204,269.566 q 1.56844,0.16804 2.64674,1.23234 c 29.50624,24.3668 55.98763,54.61524 74.10868,88.47668 q 1.63845,3.06685 2.77277,6.28776 -0.22406,0.056 -0.40611,0.15404 -0.15405,0.084 -0.26608,0.30809 -5.60156,10.85302 -10.74099,21.91611 -2.68876,5.76961 -13.84986,20.65576 -4.55128,-5.46153 -12.09938,-9.24258 -2.56271,-1.28836 -4.6633,-2.73076 -2.46469,-1.70848 -5.34949,-3.01085 -0.51814,-0.23806 -0.58816,0.3361 -0.014,0.19606 0.07,0.3781 0.54615,1.14833 -0.57416,0.57416 -6.62386,-3.2909 -12.56151,-6.4698 -5.02741,-2.68875 -10.19485,-5.04141 -5.23746,-2.38066 -10.09681,-5.30748 -0.75621,-0.44812 -1.4144,-1.03629 -0.65819,-0.57416 -1.48441,-0.86824 -4.60729,-1.66645 -9.14455,-3.13686 -1.28836,-0.42013 -2.39467,-1.23236 -1.20434,-0.88225 -2.57673,-1.0923 -1.89051,-0.29409 -3.627,-0.96627 -3.45897,-1.35838 -7.08598,-2.53471 -0.7002,-0.22405 -1.02228,-0.86823 -0.3641,-0.7142 -1.13432,-0.79823 -0.56016,-0.07 -1.1063,-0.26608 -8.85048,-3.27691 -18.30311,-5.05541 -5.30748,-0.99427 -10.79701,-2.26863 -0.75622,-0.18205 -1.13433,-0.86824 -0.098,-0.15404 -0.12603,-0.33609 -0.22405,-1.0643 -1.16232,-0.51816 -0.50414,0.29409 -1.10632,0.36412 12.09939,-11.14712 15.13823,-14.25599 29.10012,-29.7863 47.78133,-69.05326 c 0.64418,-1.35838 1.63846,-2.49269 2.49269,-3.72503 z"
     id="path41"
     style="stroke-width:1.40039" />
  <path
     fill="#fb3b8a"
     d="m 67.173866,354.48569 q -15.0542,-6.56784 -27.027547,-18.6252 -1.23234,-1.26035 -5.713589,-6.66586 -2.716758,-3.30492 -5.979668,-6.4278 -1.862519,-5.69959 -2.128593,-12.01535 -0.05601,-1.38638 0.588163,-0.15405 c 1.218341,2.38068 2.408673,4.78934 4.019122,6.95995 q 7.113982,9.60668 12.603515,15.61436 9.900766,10.83902 23.568571,18.62519 0.644183,0.36411 0.994283,1.0503 0.602169,1.14831 -0.924257,1.63846 z"
     id="path42"
     style="stroke-width:1.40039" />
  <path
     fill="#7b2e85"
     d="m 28.453062,322.76683 q 3.26291,3.12288 5.979668,6.4278 4.481249,5.40551 5.713589,6.66586 11.973347,12.05736 27.027547,18.6252 -4.019121,11.5112 5.09742,20.06759 17.420854,16.37056 42.949974,24.57686 c 3.54299,1.13431 9.06053,3.13687 14.26999,4.3132 q 16.44058,3.73905 29.98236,4.6633 1.23234,1.84851 3.85108,2.36667 0.54615,0.11202 0.29409,-0.37811 -0.11205,-0.23808 0.60215,-0.36411 0.42013,-0.084 0.81223,0.056 3.47298,1.20434 6.98795,1.20434 0.93826,0 0.57416,0.86824 -0.12603,0.30809 -0.11203,0.63018 a 0.68619141,0.68619141 0 0 0 0.60217,0.64418 q 0.84023,0.11203 1.13431,0.89624 a 0.71419922,0.70019531 57 0 0 1.16233,0.25207 l 0.3501,-0.35009 q 0.56016,-0.54615 1.31637,-0.3361 4.03312,1.14832 7.5341,2.33865 0.26607,0.098 0.19604,0.36411 -0.014,0.07 -0.0839,0.098 -0.84024,0.26608 0,0.54616 4.98539,1.70847 9.95678,3.36093 16.18851,5.40552 30.92061,12.01536 a 46.969102,24.464824 17.6 0 0 6.10571,2.47869 q 3.61301,1.33037 7.01596,3.613 3.13687,2.11459 6.52583,3.99112 5.7836,3.2209 11.60924,6.20372 6.88991,3.52899 11.56721,6.24575 6.1057,3.54299 12.18341,7.09997 1.0643,0.61619 7.40806,4.85937 2.99684,2.01657 7.56211,4.63529 7.07197,4.07514 15.89443,13.55579 -9.21457,3.33292 -14.24197,4.31319 -4.99939,0.96627 -10.16683,2.45069 -11.88932,3.40294 -24.01671,4.87335 -1.31635,0.15405 -2.35265,-0.68618 -8.51437,-7.00196 -16.37057,-12.33745 -6.18972,-4.20117 -13.20568,-8.19229 -19.67549,-11.18911 -40.66735,-18.83525 -6.60985,-2.40866 -12.09936,-3.73904 c -5.48953,-1.33037 -10.89505,-3.2209 -16.35657,-4.2992 q -27.46167,-5.4055 -54.79729,-3.33293 a 3.3469336,3.3329296 64.6 0 1 -2.60472,-0.93826 q -8.164287,-8.01023 -16.98674,-17.33684 -2.324652,-2.45068 -4.299205,-5.06941 c -1.820499,-2.43667 -4.215177,-4.3132 -6.105702,-6.65186 Q 60.676051,394.94297 51.993625,380.37891 c -3.851066,-6.4418 -7.702144,-13.28971 -10.698981,-20.20764 q -2.982836,-6.88993 -6.189725,-13.93388 -3.192892,-7.00196 -6.651857,-23.47056 z"
     id="path43"
     style="stroke-width:1.40039" />
  <path
     fill="#0c6a6c"
     d="m 134.50464,323.29898 q 14.50805,18.21909 34.14153,27.13957 c 10.85303,4.92938 21.496,5.89565 33.14724,5.7276 q 2.5067,-0.042 4.84535,0.99428 1.31638,0.58816 2.77278,0.67219 c 1.72248,0.098 3.62701,1.47041 5.20945,0.82623 q 0.50414,-0.21006 0.99429,0.042 1.23234,0.65819 2.5627,0.25207 0.77022,-0.22406 1.55444,-0.19606 l 6.09169,0.30809 q -21.1739,7.80017 -44.16831,5.93766 -8.40235,-0.67218 -15.25026,-4.50926 -10.23685,-5.74161 -16.67865,-12.8976 -2.96883,-3.30491 -5.95167,-7.04396 -2.71674,-3.43096 -4.67729,-7.46409 -2.22662,-4.57927 -4.59329,-9.78873 z"
     id="path44"
     style="stroke-width:1.40039" />
  <path
     fill="#0c6a6c"
     d="m 109.91379,325.27354 q 5.67158,14.46603 9.87275,20.76779 3.65502,5.46152 7.00196,11.13311 1.12031,1.90452 2.45068,3.36094 c 1.48441,1.61045 3.12287,3.20689 3.76705,5.34949 q 0.60217,2.00255 -1.45641,1.68047 -8.59839,-1.30237 -18.14906,-3.99111 -17.406856,-4.90138 -30.010378,-17.33684 -4.593278,-4.53727 -8.570386,-9.55067 0.490141,-0.54616 0.798226,-0.79823 0.266072,-0.19605 0.574157,-0.084 0.294084,0.098 0.182055,0.3921 -0.210068,0.60218 0.378101,0.36412 2.18461,-0.88226 4.677305,-0.39211 0.476129,0.084 0.588169,-0.39212 0.252061,-1.03628 1.484412,-0.88223 a 1.9885547,2.0165625 32.3 0 0 1.372383,-0.32209 q 3.304922,-2.17062 5.979663,-2.8008 7.884199,-1.86251 14.984183,-4.3692 0.30809,-0.098 0.54615,-0.30809 0.33609,-0.3081 0.42012,-0.79823 0.14005,-0.79823 0.88224,-0.47613 0.25207,0.11204 0.32209,0.37811 0.16806,0.65818 0.6862,0.19605 z"
     id="path45"
     style="stroke-width:1.40039" />
  <path
     fill="#7b2e85"
     d="m 423.23719,408.59678 q -9.01851,12.79956 -12.30943,15.82441 -3.68304,3.37494 -6.91794,8.03825 -1.14832,1.66645 -3.13687,2.63272 a 1.9605469,1.9885547 51.1 0 1 -2.04458,-0.21006 q -3.38894,-2.53469 -6.52581,-5.51753 -2.88481,-2.75876 -6.37179,-5.3775 -14.52204,-10.95105 -25.01097,-17.18279 -6.4418,-3.82307 -13.80785,-7.22602 -0.58816,-0.28008 -1.17633,-0.28008 a 0.57416016,0.58816406 77.9 0 0 -0.53215,0.81224 q 4.11715,9.7467 8.19229,18.41513 2.56271,5.44751 5.30748,16.35655 l -22.04215,-6.24573 a 2.8708008,2.7587696 75.3 0 1 -1.26035,-0.77022 q -0.68619,-0.7562 -1.63845,-0.95226 -0.65819,-0.12604 -1.24636,-0.44812 -3.79505,-2.07259 -7.78617,-3.87909 -11.80529,-5.3775 -22.91039,-9.28459 -1.03629,-0.3501 -1.91854,-0.89624 -1.02228,-0.61619 -2.11458,-0.43413 -0.79823,0.14004 -1.13433,-0.58817 -0.29407,-0.60216 -1.02228,-0.51814 -0.85422,0.098 -0.95226,0.95227 -0.028,0.26607 -0.16805,0.47613 -0.084,0.12604 -0.21006,0.22406 -0.56015,0.42012 -0.78421,0.0839 -0.22407,-0.33609 -0.57416,-0.14003 -0.54615,0.30808 -0.22406,1.13431 -15.3903,-14.63409 -32.09697,-27.6017 22.93841,-12.56151 42.73992,-29.39419 0.60218,-0.07 1.10632,-0.36412 0.93827,-0.54614 1.16232,0.51816 0.028,0.18204 0.12603,0.33609 0.37811,0.68619 1.13433,0.86824 5.48953,1.27435 10.79701,2.26863 9.45263,1.7785 18.30311,5.05541 0.54614,0.19606 1.1063,0.26607 0.77022,0.0841 1.13432,0.79822 0.32208,0.64419 1.02229,0.86825 3.627,1.17633 7.08597,2.53471 1.73649,0.67218 3.627,0.96627 1.37239,0.21005 2.57673,1.0923 1.10631,0.81222 2.39467,1.23235 4.53726,1.47041 9.14455,3.13687 0.82622,0.29408 1.48441,0.86823 0.65819,0.58817 1.4144,1.0363 4.85935,2.92682 10.09681,5.30748 5.16744,2.35265 10.19485,5.04141 5.93765,3.17888 12.56151,6.4698 1.12031,0.57416 0.57416,-0.57416 -0.0841,-0.18204 -0.07,-0.3781 0.07,-0.57417 0.58816,-0.3361 2.8848,1.30237 5.34949,3.01085 2.10059,1.4424 4.6633,2.73075 7.5481,3.78106 12.09938,9.24259 z"
     id="path46"
     style="stroke-width:1.40039" />
  <path
     fill="#572864"
     d="m 260.81987,385.99447 q 16.70667,12.96761 32.09697,27.6017 27.04154,24.82893 48.7756,54.71326 -2.67475,0.7002 -3.01084,2.42268 -0.084,0.44813 -0.29408,0.86824 l -1.34437,2.61874 a 1.6944727,1.7925 1.6 0 1 -0.77022,0.77021 c -1.98856,1.00828 -3.557,2.35265 -5.67158,3.19288 q -10.3909,4.18717 -19.15735,6.81992 -8.82246,-9.48065 -15.89443,-13.55579 -4.56528,-2.61872 -7.56211,-4.63529 -6.34377,-4.24318 -7.40806,-4.85937 -6.07771,-3.55698 -12.18341,-7.09997 -4.6773,-2.71677 -11.56722,-6.24575 -5.82563,-2.98282 -11.60923,-6.20373 -3.38896,-1.87651 -6.52583,-3.99111 -3.40295,-2.28263 -7.01596,-3.61301 a 46.969102,24.464824 17.6 0 1 -6.10571,-2.47868 q -14.7321,-6.60985 -30.92061,-12.01536 -4.97139,-1.65246 -9.95678,-3.36093 -0.84024,-0.28008 0,-0.54616 0.07,-0.028 0.0839,-0.098 0.07,-0.26606 -0.19605,-0.3641 -3.50097,-1.19033 -7.5341,-2.33865 -0.75621,-0.21005 -1.31636,0.3361 l -0.3501,0.35009 a 0.71419922,0.70019531 57 0 1 -1.16233,-0.25207 q -0.29408,-0.78421 -1.13431,-0.89624 a 0.68619141,0.68619141 0 0 1 -0.60217,-0.64418 q -0.014,-0.32209 0.11203,-0.63018 0.3641,-0.86824 -0.57416,-0.86824 -3.51498,0 -6.98795,-1.20434 -0.3921,-0.14004 -0.81223,-0.056 -0.7142,0.12603 -0.60217,0.36411 0.25207,0.49013 -0.29408,0.37811 -2.61873,-0.51816 -3.85107,-2.36666 14.12995,1.51241 21.13189,0.67217 c 7.98222,-0.95226 16.18852,-1.41439 24.04471,-3.23489 q 4.98539,-1.14833 9.83073,-2.14259 5.37751,-1.10632 10.65699,-3.02486 c 4.76132,-1.73648 9.48064,-3.01084 14.19996,-5.0414 q 10.783,-4.63529 21.48198,-9.34061 z"
     id="path47"
     style="stroke-width:1.40039" />
  <path
     fill="#a1389e"
     d="m 358.90324,434.8821 q 2.28263,5.92366 2.73076,7.77218 2.63274,10.95105 5.50354,27.58769 c 0.75621,4.36922 -2.18461,10.4049 -7.11399,11.21714 -5.11142,0.84022 -7.8842,-0.50415 -11.24513,-4.52327 q -3.61301,-4.3272 -7.08598,-8.62641 -21.73406,-29.88433 -48.7756,-54.71326 -0.32209,-0.82623 0.22406,-1.13431 0.35009,-0.19606 0.57416,0.14003 0.22406,0.3361 0.78421,-0.084 0.12604,-0.098 0.21006,-0.22406 0.14005,-0.21006 0.16805,-0.47613 0.098,-0.85425 0.95226,-0.95227 0.72821,-0.084 1.02228,0.51814 0.3361,0.72822 1.13433,0.58817 1.0923,-0.18205 2.11458,0.43413 0.88225,0.54615 1.91854,0.89624 11.1051,3.90709 22.91039,9.28459 3.99112,1.8065 7.78617,3.87909 0.58817,0.32208 1.24636,0.44812 0.95226,0.19606 1.63845,0.95226 a 2.8708008,2.7587696 75.3 0 0 1.26035,0.77022 z"
     id="path48"
     style="stroke-width:1.40039" />
</svg>
